<svg width="500" height="300" viewBox="0 0 500 300" fill="none" xmlns="http://www.w3.org/2000/svg">
<path d="M150.901 147.008L122.609 145.969L183.351 85.1L210.972 86.8105L150.901 147.008Z" fill="white"/>
<path d="M164.464 160.599L150.901 147.008L210.972 86.8105L224.321 100.654L164.464 160.599Z" fill="white"/>
<path d="M164.464 160.599L178.06 147.036L224.491 193.318L210.868 206.887L164.464 160.599Z" fill="white"/>
<path d="M122.609 145.969L150.912 147.003L210.868 206.886L182.471 205.622L122.609 145.969Z" fill="white"/>
<path d="M261.039 143.18H253.185L250.908 135.997H239.528L237.273 143.18H229.463L241.112 110.895H249.659L261.039 143.18ZM249.258 130.415L245.82 119.563C245.567 118.755 245.386 117.787 245.287 116.659H245.105C245.028 117.605 244.847 118.54 244.55 119.475L241.068 130.415H249.258Z" fill="white"/>
<path d="M286.41 143.18H279.381V130.371C279.381 126.801 278.116 125.014 275.586 125.014C274.365 125.014 273.364 125.487 272.572 126.433C271.786 127.379 271.39 128.578 271.39 130.035V143.186H264.339V120.13H271.39V123.776H271.478C273.161 120.971 275.603 119.569 278.82 119.569C283.875 119.569 286.405 122.737 286.405 129.067V143.18H286.41Z" fill="white"/>
<path d="M305.798 142.91C304.758 143.466 303.185 143.741 301.09 143.741C296.123 143.741 293.637 141.139 293.637 135.931V125.371H289.936V120.124H293.637V115.147L300.666 113.122V120.124H305.798V125.371H300.666V134.693C300.666 137.097 301.612 138.296 303.499 138.296C304.241 138.296 305.011 138.076 305.798 137.641V142.91Z" fill="white"/>
<path d="M313.338 116.478C312.15 116.478 311.177 116.12 310.418 115.411C309.659 114.696 309.279 113.821 309.279 112.787C309.279 111.72 309.659 110.851 310.418 110.175C311.177 109.498 312.15 109.163 313.338 109.163C314.543 109.163 315.522 109.498 316.27 110.175C317.023 110.851 317.397 111.72 317.397 112.787C317.397 113.865 317.023 114.756 316.27 115.444C315.522 116.131 314.543 116.478 313.338 116.478ZM316.82 143.18H309.769V120.124H316.82V143.18Z" fill="white"/>
<path d="M344.82 143.18H337.791V130.371C337.791 126.801 336.526 125.014 333.996 125.014C332.775 125.014 331.774 125.487 330.982 126.433C330.196 127.379 329.8 128.578 329.8 130.035V143.186H322.749V120.13H329.8V123.776H329.888C331.571 120.971 334.013 119.569 337.23 119.569C342.285 119.569 344.815 122.737 344.815 129.067V143.18H344.82Z" fill="white"/>
<path d="M361.287 143.741C357.481 143.741 354.484 142.663 352.306 140.513C350.128 138.362 349.039 135.436 349.039 131.746C349.039 127.934 350.166 124.953 352.432 122.797C354.693 120.641 357.751 119.569 361.601 119.569C365.396 119.569 368.366 120.647 370.527 122.797C372.683 124.953 373.761 127.797 373.761 131.339C373.761 135.167 372.65 138.192 370.423 140.414C368.195 142.63 365.154 143.741 361.287 143.741ZM361.463 125.014C359.797 125.014 358.504 125.591 357.58 126.746C356.656 127.901 356.2 129.54 356.2 131.652C356.2 136.08 357.971 138.296 361.507 138.296C364.884 138.296 366.573 136.025 366.573 131.476C366.573 127.164 364.868 125.014 361.463 125.014Z" fill="white"/>
<path d="M248.658 184.248H229.606V151.964H236.811V178.352H248.658V184.248Z" fill="white"/>
<path d="M271.285 184.248H264.614V180.938H264.526C262.991 183.517 260.725 184.81 257.722 184.81C255.506 184.81 253.762 184.177 252.492 182.906C251.221 181.636 250.583 179.948 250.583 177.83C250.583 173.359 253.207 170.774 258.459 170.086L264.663 169.256C264.663 166.737 263.31 165.472 260.604 165.472C257.882 165.472 255.297 166.291 252.838 167.925V162.568C253.823 162.056 255.165 161.605 256.864 161.215C258.569 160.824 260.12 160.632 261.517 160.632C268.035 160.632 271.291 163.91 271.291 170.471V184.248H271.285ZM264.658 174.882V173.331L260.511 173.87C258.217 174.173 257.073 175.212 257.073 177C257.073 177.808 257.354 178.474 257.909 178.991C258.465 179.508 259.224 179.766 260.175 179.766C261.501 179.766 262.579 179.304 263.409 178.38C264.24 177.456 264.658 176.29 264.658 174.882Z" fill="white"/>
<path d="M284.001 181.57H283.913V184.248H276.862V150.116H283.913V164.657H284.001C285.739 161.973 288.22 160.626 291.432 160.626C294.374 160.626 296.646 161.649 298.235 163.69C299.825 165.73 300.622 168.524 300.622 172.066C300.622 175.91 299.693 178.99 297.834 181.317C295.975 183.643 293.489 184.804 290.381 184.804C287.571 184.809 285.442 183.731 284.001 181.57ZM283.798 171.84V174.206C283.798 175.691 284.221 176.922 285.068 177.896C285.915 178.869 287.004 179.359 288.324 179.359C289.93 179.359 291.179 178.732 292.059 177.478C292.944 176.224 293.384 174.447 293.384 172.154C293.384 170.245 292.977 168.76 292.169 167.682C291.36 166.61 290.2 166.071 288.698 166.071C287.285 166.071 286.113 166.605 285.184 167.672C284.265 168.744 283.798 170.13 283.798 171.84Z" fill="white"/>
<path d="M303.702 183.638V177.874C304.863 178.578 306.018 179.106 307.173 179.453C308.328 179.799 309.417 179.97 310.44 179.97C311.688 179.97 312.673 179.799 313.393 179.453C314.114 179.106 314.477 178.584 314.477 177.874C314.477 177.423 314.312 177.049 313.987 176.747C313.663 176.444 313.239 176.186 312.728 175.96C312.216 175.735 311.655 175.531 311.045 175.35C310.434 175.168 309.846 174.965 309.279 174.739C308.372 174.393 307.574 174.024 306.881 173.623C306.188 173.227 305.611 172.765 305.143 172.237C304.676 171.709 304.318 171.104 304.071 170.411C303.823 169.723 303.702 168.904 303.702 167.958C303.702 166.665 303.983 165.554 304.538 164.624C305.094 163.695 305.842 162.93 306.771 162.336C307.701 161.742 308.762 161.308 309.961 161.033C311.16 160.758 312.403 160.615 313.696 160.615C314.708 160.615 315.736 160.692 316.776 160.852C317.815 161.011 318.844 161.237 319.856 161.539V167.034C318.965 166.506 318.008 166.115 316.99 165.851C315.973 165.587 314.972 165.455 313.987 165.455C313.525 165.455 313.091 165.499 312.684 165.576C312.277 165.659 311.914 165.78 311.6 165.939C311.287 166.099 311.045 166.296 310.863 166.544C310.682 166.791 310.594 167.072 310.594 167.391C310.594 167.809 310.726 168.172 310.995 168.469C311.265 168.771 311.611 169.03 312.046 169.245C312.48 169.459 312.959 169.657 313.487 169.828C314.015 169.998 314.537 170.174 315.06 170.356C315.995 170.686 316.847 171.049 317.606 171.434C318.365 171.824 319.014 172.281 319.559 172.809C320.103 173.337 320.521 173.947 320.807 174.657C321.099 175.361 321.242 176.202 321.242 177.176C321.242 178.54 320.945 179.711 320.362 180.679C319.773 181.647 318.992 182.434 318.019 183.044C317.045 183.649 315.923 184.095 314.647 184.375C313.377 184.65 312.057 184.793 310.687 184.793C308.174 184.81 305.842 184.419 303.702 183.638Z" fill="white"/>
</svg>
