<svg width="500" height="300" viewBox="0 0 500 300" fill="none" xmlns="http://www.w3.org/2000/svg">
<g clip-path="url(#clip0)">
<path d="M269.727 58.2507L273.543 48.8246L274.325 46.7531C261.084 42.938 247.068 41.865 233.379 45.0095L242.805 48.8246C251.106 51.7456 256.941 57.5726 260.756 65.4264C264.348 73.2802 264.571 81.134 261.427 88.9879L251.561 114.114C248.193 121.968 242.582 127.579 234.512 130.723C226.435 133.86 218.35 133.86 210.28 130.723L181.108 119.054C169.044 115.12 170.161 119.986 171.041 129.457C172.106 140.842 175.43 151.632 181.331 161.908C189.185 175.819 201.614 187.041 215.973 193.993L218.581 186.363L255.823 201.169C280.957 199.373 300.472 188.159 314.831 167.966C314.607 166.17 314.16 164.15 313.266 161.684C311.023 156.975 307.432 153.383 302.275 151.587L274.899 140.365C274.176 140.731 273.461 140.939 272.85 141.014C272 141.252 271.106 141.371 270.182 141.371C264.683 141.371 260.227 136.923 260.227 131.424C260.227 125.925 264.683 121.469 270.182 121.469C274.794 121.469 278.677 124.606 279.802 128.86L306.985 139.911C311.925 141.707 316.858 141.707 322.014 139.911C324.257 138.786 326.276 137.668 328.072 135.872C331.887 113.883 327.402 94.1442 314.16 75.7467L269.727 58.2507Z" fill="white"/>
<path d="M214.758 119.501C219.922 121.297 224.631 121.297 229.341 119.501C234.05 117.706 237.418 114.338 239.437 109.405L249.534 84.5021C251.553 79.7928 251.33 74.8525 249.087 70.1506C247.068 65.4339 243.476 62.0733 238.32 60.0539L215.66 51.0675C197.031 59.8155 184.245 73.7273 176.614 93.0265C175.042 97.0652 173.701 101.104 172.799 105.143C177.061 105.143 181.1 106.037 185.593 107.84L214.758 119.501Z" fill="white"/>
<path d="M415.589 253.314H393.891V249.141L397.743 245.013C404.3 238.225 408.153 233.769 408.153 229.097C408.153 226.064 406.551 223.546 402.735 223.546C400.209 223.546 397.87 224.88 396.268 226.072L394.382 221.206C396.536 219.559 400.12 218.091 404.114 218.091C411.543 218.091 414.941 222.816 414.941 228.456C414.941 234.604 410.768 239.648 405.724 244.738L402.84 247.577V247.674H415.589V253.314Z" fill="white"/>
<path d="M432.936 234.648C436.788 235.52 440 238.635 440 243.359C440 249.141 435.365 253.813 427.288 253.813C423.622 253.813 420.321 252.852 418.577 251.705L420.09 246.571C421.371 247.398 424.173 248.448 426.833 248.448C431.006 248.448 433.07 245.878 433.07 243.031C433.07 239.134 429.672 237.301 425.954 237.301H423.614V232.532H425.812C428.525 232.532 432.005 231.02 432.005 227.674C432.005 225.245 430.403 223.449 427.191 223.449C424.807 223.449 422.467 224.507 421.14 225.327L419.717 220.461C421.506 219.269 425.038 218.076 428.756 218.076C435.41 218.076 438.897 221.974 438.897 226.564C438.897 230.14 436.744 233.121 432.936 234.544V234.648Z" fill="white"/>
<path d="M59.91 222.935C61.7654 222.562 65.521 222.286 69.0455 222.286C73.3599 222.286 76.0051 222.704 78.2778 224.052C80.4536 225.215 82.0333 227.339 82.0333 230.17C82.0333 232.949 80.4089 235.55 76.8844 236.847V236.943C80.4536 237.92 83.0989 240.602 83.0989 244.641C83.0989 247.465 81.8023 249.693 79.8501 251.273C77.5774 253.083 73.7771 254.104 67.5627 254.104C64.0828 254.104 61.4897 253.866 59.91 253.635V222.935ZM66.9144 234.902H69.2318C72.9426 234.902 74.9321 233.367 74.9321 231.049C74.9321 228.687 73.1214 227.435 69.9248 227.435C68.3972 227.435 67.5105 227.525 66.9144 227.622V234.902ZM66.9144 248.769C67.6074 248.858 68.4419 248.858 69.6491 248.858C72.8532 248.858 75.6773 247.651 75.6773 244.358C75.6773 241.206 72.8532 239.954 69.3212 239.954H66.9144V248.769Z" fill="white"/>
<path d="M87.9348 222.935C90.2075 222.562 93.5905 222.286 97.346 222.286C101.981 222.286 105.23 222.979 107.458 224.745C109.313 226.228 110.334 228.412 110.334 231.28C110.334 235.267 107.502 238.002 104.82 238.978V239.119C106.996 239.999 108.203 242.085 108.993 244.961C109.969 248.486 110.937 252.569 111.541 253.776H104.306C103.799 252.897 103.054 250.349 102.122 246.496C101.288 242.607 99.9465 241.534 97.0703 241.489H94.9392V253.776H87.9348V222.935ZM94.9392 236.385H97.7185C101.243 236.385 103.329 234.619 103.329 231.884C103.329 229.015 101.377 227.577 98.1358 227.525C96.422 227.525 95.4459 227.666 94.9392 227.763V236.385Z" fill="white"/>
<path d="M123.143 245.751L120.915 253.776H113.59L123.143 222.525H132.412L142.107 253.776H134.499L132.092 245.751H123.143ZM131.071 240.468L129.126 233.836C128.567 231.981 128.016 229.663 127.547 227.808H127.457C126.995 229.663 126.533 232.026 126.019 233.836L124.164 240.468H131.071Z" fill="white"/>
<path d="M153.396 222.518V253.769H146.302V222.518H153.396Z" fill="white"/>
<path d="M159.521 253.776V222.525H167.777L174.267 233.978C176.123 237.271 177.978 241.161 179.371 244.686H179.513C179.051 240.557 178.909 236.34 178.909 231.653V222.518H185.4V253.769H177.978L171.301 241.712C169.446 238.374 167.404 234.343 165.877 230.677L165.735 230.729C165.922 234.85 166.011 239.261 166.011 244.358V253.769H159.521V253.776Z" fill="white"/>
<path d="M201.137 246.496C203.037 247.472 205.958 248.441 208.976 248.441C212.217 248.441 213.939 247.1 213.939 245.058C213.939 243.113 212.456 241.996 208.7 240.654C203.507 238.844 200.124 235.967 200.124 231.422C200.124 226.087 204.572 222.003 211.949 222.003C215.474 222.003 218.067 222.748 219.922 223.583L218.342 229.291C217.09 228.687 214.863 227.808 211.807 227.808C208.745 227.808 207.262 229.201 207.262 230.818C207.262 232.808 209.028 233.695 213.059 235.222C218.581 237.264 221.174 240.14 221.174 244.544C221.174 249.782 217.135 254.238 208.559 254.238C204.989 254.238 201.465 253.314 199.706 252.338L201.137 246.496Z" fill="white"/>
<path d="M231.986 228.456H223.596V222.518H247.619V228.456H239.087V253.776H231.993V228.456H231.986Z" fill="white"/>
<path d="M255.324 245.751L253.096 253.776H245.771L255.324 222.525H264.593L274.288 253.776H266.68L264.273 245.751H255.324ZM263.26 240.468L261.307 233.836C260.748 231.981 260.19 229.663 259.735 227.808H259.638C259.169 229.663 258.707 232.026 258.2 233.836L256.345 240.468H263.26Z" fill="white"/>
<path d="M280.659 228.456H272.268V222.518H296.292V228.456H287.752V253.776H280.659V228.456Z" fill="white"/>
<path d="M307.148 222.518V253.769H300.055V222.518H307.148Z" fill="white"/>
<path d="M341.887 237.823C341.887 248.068 335.673 254.29 326.537 254.29C317.268 254.29 311.843 247.286 311.843 238.382C311.843 229.015 317.826 222.011 327.051 222.011C336.649 222.011 341.887 229.201 341.887 237.823ZM319.302 238.24C319.302 244.365 322.171 248.672 326.902 248.672C331.679 248.672 334.413 244.127 334.413 238.054C334.413 232.443 331.723 227.622 326.858 227.622C322.089 227.622 319.302 232.167 319.302 238.24Z" fill="white"/>
<path d="M346.544 253.776V222.525H354.793L361.283 233.978C363.139 237.271 364.986 241.161 366.387 244.686H366.521C366.059 240.557 365.925 236.34 365.925 231.653V222.518H372.416V253.769H364.994L358.317 241.712C356.462 238.374 354.428 234.343 352.893 230.677L352.751 230.729C352.938 234.85 353.027 239.261 353.027 244.358V253.769H346.544V253.776Z" fill="white"/>
</g>
<defs>
<clipPath id="clip0">
<rect width="380.09" height="211.121" fill="white" transform="translate(59.91 43.169)"/>
</clipPath>
</defs>
</svg>
