<svg width="500" height="300" viewBox="0 0 500 300" fill="none" xmlns="http://www.w3.org/2000/svg">
<path fill-rule="evenodd" clip-rule="evenodd" d="M180.203 152.859C180.203 154.969 179.883 156.86 179.247 158.534C178.611 160.207 177.738 161.634 176.629 162.818C175.52 163.998 174.211 164.898 172.702 165.517C171.19 166.136 169.546 166.444 167.764 166.444C166.053 166.444 164.598 166.181 163.399 165.653C162.198 165.126 161.181 164.389 160.343 163.443H160.124L159.634 165.844H153.797V126.833H161.815V141.455C162.651 140.764 163.635 140.192 164.762 139.738C165.89 139.283 167.145 139.055 168.527 139.055C172.163 139.055 175.02 140.265 177.093 142.683C179.165 145.102 180.203 148.494 180.203 152.859ZM171.91 153.076C171.91 150.422 171.402 148.44 170.383 147.131C169.365 145.82 167.927 145.167 166.071 145.167C165.198 145.167 164.372 145.394 163.588 145.848C162.806 146.304 162.234 146.749 161.871 147.185V158.971C162.271 159.443 162.797 159.824 163.453 160.116C164.106 160.406 164.8 160.553 165.527 160.553C166.363 160.553 167.162 160.406 167.927 160.116C168.69 159.824 169.374 159.37 169.973 158.752C170.573 158.133 171.046 157.351 171.392 156.407C171.738 155.459 171.91 154.35 171.91 153.076ZM199.763 139.655H207.837V165.844H201.892L201.073 163.007H200.854C200.491 163.37 200.055 163.753 199.545 164.154C199.036 164.554 198.426 164.926 197.717 165.272C197.007 165.616 196.197 165.9 195.29 166.117C194.379 166.336 193.343 166.444 192.18 166.444C189.341 166.444 187.122 165.663 185.524 164.099C183.923 162.534 183.122 160.224 183.122 157.17V139.655H191.196V156.514C191.196 157.86 191.533 158.852 192.206 159.489C192.879 160.125 193.743 160.443 194.798 160.443C196.07 160.443 197.115 160.179 197.936 159.652C198.754 159.124 199.363 158.569 199.763 157.988V139.655ZM212.722 165.844H220.796V139.655H212.722V165.844ZM216.758 134.527C215.376 134.527 214.321 134.135 213.594 133.353C212.866 132.571 212.503 131.636 212.503 130.544C212.503 129.452 212.876 128.515 213.622 127.733C214.366 126.953 215.413 126.562 216.758 126.562C218.105 126.562 219.15 126.942 219.896 127.707C220.641 128.47 221.015 129.416 221.015 130.544C221.015 131.672 220.652 132.616 219.924 133.381C219.197 134.144 218.14 134.527 216.758 134.527ZM225.843 165.844H233.809V126.833H225.843V165.844ZM254.325 126.833H262.399V165.844H256.833L256.014 163.007H255.741C255.234 163.807 254.351 164.58 253.097 165.326C251.841 166.072 250.196 166.444 248.159 166.444C246.448 166.444 244.867 166.126 243.412 165.489C241.957 164.853 240.702 163.944 239.646 162.762C238.593 161.58 237.764 160.142 237.166 158.451C236.564 156.76 236.264 154.86 236.264 152.751C236.264 150.677 236.537 148.795 237.082 147.103C237.628 145.412 238.419 143.974 239.457 142.792C240.493 141.61 241.774 140.692 243.302 140.037C244.83 139.383 246.558 139.055 248.486 139.055C249.687 139.055 250.822 139.229 251.896 139.573C252.969 139.919 253.777 140.346 254.325 140.856V126.833ZM254.325 146.749C253.996 146.312 253.487 145.893 252.797 145.494C252.105 145.094 251.342 144.892 250.504 144.892C249.668 144.892 248.886 145.029 248.159 145.302C247.431 145.575 246.786 146.02 246.222 146.639C245.658 147.258 245.211 148.049 244.884 149.014C244.557 149.977 244.394 151.167 244.394 152.586C244.394 155.315 244.929 157.324 246.003 158.616C247.078 159.906 248.468 160.553 250.177 160.553C251.231 160.553 252.114 160.28 252.823 159.734C253.534 159.188 254.033 158.606 254.325 157.988V146.749ZM266.71 165.844H274.786V139.655H266.71V165.844ZM270.747 134.527C269.365 134.527 268.309 134.135 267.583 133.353C266.854 132.571 266.491 131.636 266.491 130.544C266.491 129.452 266.865 128.515 267.609 127.733C268.355 126.953 269.401 126.562 270.747 126.562C272.092 126.562 273.138 126.942 273.884 127.707C274.628 128.47 275.002 129.416 275.002 130.544C275.002 131.672 274.639 132.616 273.91 133.381C273.184 134.144 272.129 134.527 270.747 134.527ZM287.742 165.844H279.668V139.655H285.941L286.869 142.93C288.032 141.728 289.343 140.783 290.798 140.093C292.253 139.401 293.835 139.055 295.545 139.055C298.492 139.055 300.746 139.856 302.309 141.455C303.875 143.056 304.656 145.401 304.656 148.494V165.844H296.581V149.313C296.581 148.04 296.281 147.03 295.681 146.284C295.081 145.539 294.198 145.167 293.035 145.167C292.161 145.167 291.243 145.421 290.278 145.93C289.317 146.439 288.469 147.112 287.742 147.948V165.844ZM308.393 148.657C308.393 147.239 308.685 145.939 309.266 144.756C309.848 143.574 310.658 142.556 311.696 141.702C312.73 140.847 313.949 140.192 315.35 139.738C316.751 139.283 318.288 139.055 319.96 139.055C320.579 139.055 321.288 139.11 322.088 139.218C322.889 139.328 323.616 139.474 324.271 139.655H335.401V144.621H332.891L329.835 144.129C330.237 144.675 330.572 145.365 330.845 146.203C331.118 147.039 331.255 147.875 331.255 148.713C331.255 150.095 331 151.35 330.491 152.476C329.981 153.604 329.235 154.587 328.253 155.424C327.271 156.261 326.072 156.906 324.653 157.361C323.233 157.815 321.634 158.042 319.852 158.042C319.451 158.042 319.07 158.025 318.707 157.988C318.341 157.952 317.978 157.896 317.615 157.823C317.359 157.969 317.125 158.169 316.906 158.425C316.687 158.679 316.577 159.007 316.577 159.407C316.577 159.88 316.751 160.26 317.097 160.553C317.441 160.843 318.143 160.989 319.197 160.989H324.707C326.126 160.989 327.435 161.135 328.636 161.425C329.835 161.715 330.864 162.188 331.718 162.844C332.573 163.499 333.237 164.344 333.71 165.382C334.183 166.418 334.419 167.664 334.419 169.119C334.419 170.536 334.075 171.846 333.383 173.046C332.691 174.247 331.718 175.283 330.463 176.156C329.209 177.03 327.681 177.711 325.881 178.203C324.081 178.694 322.088 178.939 319.906 178.939C315.831 178.939 312.631 178.229 310.304 176.811C307.976 175.392 306.811 173.374 306.811 170.755C306.811 169.59 307.202 168.564 307.985 167.673C308.767 166.781 309.867 166.08 311.286 165.571C310.848 165.281 310.357 164.78 309.813 164.071C309.266 163.362 308.995 162.48 308.995 161.425C308.995 160.187 309.367 159.124 310.112 158.234C310.858 157.342 311.795 156.624 312.923 156.078C312.449 155.824 311.95 155.468 311.421 155.014C310.895 154.561 310.403 154.023 309.949 153.405C309.493 152.786 309.121 152.087 308.829 151.303C308.539 150.522 308.393 149.639 308.393 148.657ZM315.758 166.989C315.322 167.208 314.941 167.535 314.613 167.972C314.286 168.408 314.123 168.954 314.123 169.609C314.123 170.518 314.55 171.3 315.404 171.956C316.261 172.609 317.832 172.938 320.123 172.938C322.272 172.938 323.862 172.583 324.898 171.872C325.934 171.165 326.454 170.337 326.454 169.392C326.454 168.554 326.162 167.946 325.58 167.563C324.999 167.181 324.015 166.989 322.635 166.989H315.758ZM323.398 148.549C323.398 147.275 323.063 146.304 322.388 145.629C321.716 144.956 320.871 144.621 319.852 144.621C318.797 144.621 317.942 144.956 317.286 145.629C316.631 146.304 316.306 147.275 316.306 148.549C316.306 149.822 316.641 150.795 317.314 151.468C317.987 152.141 318.833 152.476 319.852 152.476C320.905 152.476 321.762 152.141 322.416 151.468C323.071 150.795 323.398 149.822 323.398 148.549ZM364.808 146.366C363.828 145.893 362.79 145.521 361.698 145.248C360.608 144.976 359.553 144.838 358.535 144.838C357.589 144.838 356.824 145.002 356.244 145.33C355.663 145.657 355.371 146.112 355.371 146.695C355.371 147.312 355.653 147.83 356.216 148.249C356.779 148.666 357.898 149.113 359.572 149.586L361.208 150.076C363.392 150.731 365.046 151.685 366.173 152.94C367.301 154.196 367.864 155.805 367.864 157.769C367.864 159.078 367.593 160.271 367.045 161.343C366.501 162.416 365.728 163.334 364.727 164.099C363.727 164.862 362.528 165.444 361.126 165.844C359.725 166.245 358.171 166.444 356.461 166.444C354.606 166.444 352.962 166.282 351.524 165.953C350.086 165.627 348.75 165.154 347.514 164.535L349.259 158.696C350.314 159.242 351.415 159.689 352.56 160.033C353.707 160.379 354.879 160.553 356.08 160.553C357.462 160.553 358.434 160.353 358.997 159.953C359.564 159.553 359.845 159.078 359.845 158.534C359.845 158.206 359.781 157.924 359.652 157.688C359.526 157.451 359.298 157.224 358.971 157.006C358.644 156.787 358.18 156.579 357.58 156.377C356.979 156.179 356.207 155.934 355.261 155.642L353.57 155.15C351.423 154.46 349.861 153.505 348.877 152.285C347.896 151.068 347.406 149.422 347.406 147.348C347.406 146.149 347.641 145.047 348.114 144.047C348.586 143.046 349.269 142.175 350.16 141.428C351.051 140.684 352.141 140.101 353.433 139.682C354.724 139.265 356.207 139.055 357.881 139.055C359.553 139.055 361.107 139.21 362.545 139.519C363.983 139.828 365.283 140.256 366.447 140.8L364.808 146.366ZM387.043 145.438H380.331V156.514C380.331 157.714 380.596 158.552 381.124 159.025C381.651 159.497 382.388 159.734 383.332 159.734C384.06 159.734 384.787 159.661 385.515 159.516C386.242 159.37 386.808 159.171 387.206 158.915L388.406 164.425C387.789 164.754 386.852 165.072 385.597 165.382C384.343 165.689 383.005 165.844 381.588 165.844C378.204 165.844 375.812 165.19 374.412 163.88C373.011 162.571 372.313 160.589 372.313 157.933V145.438H368.219V139.655H372.313V131.69H380.331V139.655H387.043V145.438ZM390.454 141.947C391.945 141.075 393.626 140.374 395.5 139.846C397.374 139.319 399.291 139.055 401.255 139.055C404.492 139.055 407.093 139.837 409.057 141.402C411.023 142.966 412.005 145.457 412.005 148.876V165.844H405.839L405.13 163.226H404.913C404.184 164.172 403.176 164.945 401.883 165.545C400.591 166.145 399.074 166.444 397.327 166.444C395.837 166.444 394.537 166.226 393.426 165.79C392.317 165.354 391.399 164.771 390.671 164.045C389.944 163.316 389.39 162.452 389.007 161.453C388.625 160.452 388.434 159.388 388.434 158.26C388.434 156.733 388.771 155.424 389.444 154.333C390.116 153.241 391.025 152.349 392.171 151.659C393.318 150.967 394.664 150.458 396.209 150.131C397.754 149.805 399.402 149.639 401.148 149.639H403.875V148.221C403.875 147.239 403.531 146.484 402.837 145.958C402.147 145.429 401.165 145.167 399.893 145.167C398.801 145.167 397.728 145.33 396.673 145.657C395.618 145.984 394.453 146.512 393.183 147.239L390.454 141.947ZM403.929 154.55L402.13 154.604C401.111 154.641 400.256 154.75 399.564 154.933C398.874 155.113 398.319 155.341 397.9 155.614C397.482 155.887 397.183 156.215 397 156.596C396.817 156.979 396.729 157.37 396.729 157.769C396.729 158.898 397.064 159.669 397.737 160.088C398.41 160.506 399.183 160.716 400.056 160.716C400.93 160.716 401.721 160.462 402.429 159.953C403.138 159.443 403.639 158.879 403.929 158.26V154.55ZM429.981 160.553C431.146 160.553 432.173 160.398 433.065 160.088C433.956 159.779 434.638 159.497 435.112 159.242L436.583 164.698C435.966 165.063 434.928 165.444 433.473 165.844C432.018 166.245 430.419 166.444 428.672 166.444C426.636 166.444 424.754 166.153 423.024 165.571C421.298 164.99 419.807 164.125 418.552 162.981C417.298 161.835 416.306 160.415 415.577 158.726C414.851 157.032 414.486 155.077 414.486 152.859C414.486 150.823 414.833 148.958 415.523 147.267C416.215 145.575 417.197 144.12 418.47 142.902C419.744 141.683 421.253 140.738 422.998 140.065C424.745 139.392 426.69 139.055 428.835 139.055C429.965 139.055 431.193 139.182 432.519 139.437C433.847 139.691 435.201 140.183 436.583 140.91L434.893 146.42C434.167 145.984 433.357 145.62 432.465 145.33C431.573 145.038 430.675 144.892 429.764 144.892C427.655 144.892 425.945 145.539 424.636 146.83C423.325 148.122 422.671 150.058 422.671 152.641C422.671 154.095 422.889 155.324 423.325 156.323C423.761 157.324 424.326 158.143 425.018 158.779C425.708 159.416 426.49 159.869 427.365 160.142C428.237 160.415 429.108 160.553 429.981 160.553ZM447.468 157.333V165.844H439.45V126.833H447.468V149.586L455.654 139.655H465.42L455.545 150.677L465.856 165.844H456.362L449.433 155.315L447.468 157.333Z" fill="white"/>
<path fill-rule="evenodd" clip-rule="evenodd" d="M473.112 126.739H474.45L476.209 132.046C476.289 132.312 476.367 132.59 476.446 132.879C476.524 133.169 476.602 133.446 476.68 133.713H476.727C476.79 133.494 476.863 133.235 476.95 132.938C477.037 132.641 477.127 132.343 477.219 132.046L478.935 126.739H480.272L481 135.099H479.804L479.474 130.636C479.442 130.261 479.423 129.901 479.416 129.557C479.408 129.213 479.396 128.797 479.38 128.312H479.333C479.208 128.797 479.088 129.244 478.97 129.651C478.853 130.058 478.754 130.386 478.676 130.636L477.197 135.099H476.188L474.707 130.614C474.582 130.221 474.473 129.854 474.379 129.51C474.285 129.166 474.175 128.768 474.05 128.312H474.003C473.988 128.768 473.972 129.197 473.956 129.604C473.941 130.011 473.916 130.355 473.885 130.636L473.581 135.099H472.408L473.112 126.739ZM471.914 126.739V127.749H469.331V135.099H468.11V127.749H465.574V126.739H471.914Z" fill="white"/>
<mask id="mask0" mask-type="alpha" maskUnits="userSpaceOnUse" x="19" y="99" width="85" height="102">
<path d="M19 99.2635H103.699V200.386H19V99.2635Z" fill="white"/>
</mask>
<g mask="url(#mask0)">
<path fill-rule="evenodd" clip-rule="evenodd" d="M101.066 158.631L62.7342 180.807C62.1449 181.148 61.4113 181.149 60.8238 180.807L35.9555 166.443L35.9259 166.461L22.527 158.722C21.9395 158.381 21.5744 157.747 21.5744 157.067V142.938C21.5744 142.811 21.6509 142.748 21.6996 142.722C21.7396 142.696 21.8282 142.661 21.9395 142.719L34.2206 149.825L34.1998 149.835L59.965 164.721C61.0845 165.366 62.4734 165.366 63.5911 164.721L87.6007 150.851L101.029 158.607C101.041 158.616 101.053 158.624 101.066 158.631ZM22.4314 123.411L60.8238 101.232C61.4113 100.892 62.1449 100.892 62.7342 101.232L101.029 123.356C101.052 123.368 101.073 123.384 101.095 123.396L62.7342 145.589C62.1449 145.929 61.4113 145.931 60.8238 145.589L35.9555 131.223L22.4314 123.411ZM103.6 124.274C103.392 123.276 102.787 122.389 101.886 121.87L63.5911 99.7478C62.4734 99.1011 61.081 99.1029 59.965 99.7478L19 123.411L34.2415 132.216L21.67 139.477C20.554 140.124 19.857 141.326 19.857 142.616V142.7V142.938V157.067C19.857 158.357 20.5523 159.561 21.67 160.206L34.212 167.452L19 176.239L59.965 199.901C60.5248 200.224 61.1523 200.387 61.7781 200.387C62.4056 200.387 63.0331 200.224 63.5911 199.902L101.886 177.781C103.004 177.136 103.699 175.933 103.699 174.641V160.583V160.262V160.034C103.699 159.838 103.656 159.653 103.593 159.478C103.374 158.501 102.771 157.635 101.886 157.122L89.2834 149.841L101.886 142.561C103.006 141.914 103.699 140.711 103.699 139.421V125.329V125.009V124.816C103.699 124.626 103.657 124.446 103.6 124.274Z" fill="white"/>
</g>
</svg>
