<svg width="260" height="97" viewBox="0 0 260 97" fill="none" xmlns="http://www.w3.org/2000/svg">
<path d="M5.89485 62V58.832H0.728852V57.86L5.64285 50.516H7.29885V57.644H8.86485V58.832H7.29885V62H5.89485ZM2.29485 57.644H5.89485V54.314C5.89485 54.002 5.90085 53.636 5.91285 53.216C5.93685 52.784 5.96085 52.412 5.98485 52.1H5.91285C5.76885 52.376 5.61885 52.646 5.46285 52.91C5.30685 53.174 5.14485 53.444 4.97685 53.72L2.29485 57.644ZM11.6201 62.216C11.3201 62.216 11.0621 62.114 10.8461 61.91C10.6421 61.694 10.5401 61.424 10.5401 61.1C10.5401 60.752 10.6421 60.476 10.8461 60.272C11.0621 60.056 11.3201 59.948 11.6201 59.948C11.9081 59.948 12.1541 60.056 12.3581 60.272C12.5741 60.476 12.6821 60.752 12.6821 61.1C12.6821 61.424 12.5741 61.694 12.3581 61.91C12.1541 62.114 11.9081 62.216 11.6201 62.216ZM19.3245 62V58.832H14.1585V57.86L19.0725 50.516H20.7285V57.644H22.2945V58.832H20.7285V62H19.3245ZM15.7245 57.644H19.3245V54.314C19.3245 54.002 19.3305 53.636 19.3425 53.216C19.3665 52.784 19.3905 52.412 19.4145 52.1H19.3425C19.1985 52.376 19.0485 52.646 18.8925 52.91C18.7365 53.174 18.5745 53.444 18.4065 53.72L15.7245 57.644ZM31.2813 62.216C30.7413 62.216 30.2253 62.114 29.7333 61.91C29.2533 61.706 28.8273 61.412 28.4553 61.028C28.0833 60.632 27.7833 60.152 27.5553 59.588C27.3393 59.012 27.2313 58.364 27.2313 57.644C27.2313 56.912 27.3393 56.264 27.5553 55.7C27.7833 55.124 28.0833 54.638 28.4553 54.242C28.8273 53.846 29.2533 53.546 29.7333 53.342C30.2253 53.138 30.7413 53.036 31.2813 53.036C31.8213 53.036 32.3313 53.138 32.8113 53.342C33.3033 53.546 33.7353 53.846 34.1073 54.242C34.4793 54.638 34.7733 55.124 34.9893 55.7C35.2173 56.264 35.3313 56.912 35.3313 57.644C35.3313 58.364 35.2173 59.012 34.9893 59.588C34.7733 60.152 34.4793 60.632 34.1073 61.028C33.7353 61.412 33.3033 61.706 32.8113 61.91C32.3313 62.114 31.8213 62.216 31.2813 62.216ZM31.2813 60.992C31.6533 60.992 31.9953 60.914 32.3073 60.758C32.6193 60.59 32.8833 60.362 33.0993 60.074C33.3273 59.774 33.5013 59.42 33.6213 59.012C33.7413 58.604 33.8013 58.148 33.8013 57.644C33.8013 57.14 33.7413 56.684 33.6213 56.276C33.5013 55.856 33.3273 55.496 33.0993 55.196C32.8833 54.896 32.6193 54.668 32.3073 54.512C31.9953 54.344 31.6533 54.26 31.2813 54.26C30.9093 54.26 30.5673 54.344 30.2553 54.512C29.9433 54.668 29.6733 54.896 29.4453 55.196C29.2293 55.496 29.0613 55.856 28.9413 56.276C28.8213 56.684 28.7613 57.14 28.7613 57.644C28.7613 58.148 28.8213 58.604 28.9413 59.012C29.0613 59.42 29.2293 59.774 29.4453 60.074C29.6733 60.362 29.9433 60.59 30.2553 60.758C30.5673 60.914 30.9093 60.992 31.2813 60.992ZM40.1912 62.216C39.2552 62.216 38.5712 61.928 38.1392 61.352C37.7192 60.776 37.5092 59.924 37.5092 58.796V53.252H39.0032V58.598C39.0032 59.426 39.1292 60.026 39.3812 60.398C39.6452 60.758 40.0652 60.938 40.6412 60.938C41.0972 60.938 41.4992 60.824 41.8472 60.596C42.1952 60.356 42.5792 59.978 42.9992 59.462V53.252H44.4752V62H43.2512L43.1252 60.632H43.0712C42.6632 61.112 42.2312 61.496 41.7752 61.784C41.3312 62.072 40.8032 62.216 40.1912 62.216ZM50.1802 62.216C49.7122 62.216 49.3162 62.144 48.9922 62C48.6802 61.856 48.4222 61.658 48.2182 61.406C48.0262 61.154 47.8882 60.848 47.8042 60.488C47.7202 60.128 47.6782 59.732 47.6782 59.3V54.458H46.3822V53.342L47.7502 53.252L47.9302 50.804H49.1722V53.252H51.5302V54.458H49.1722V59.318C49.1722 59.858 49.2682 60.278 49.4602 60.578C49.6642 60.866 50.0182 61.01 50.5222 61.01C50.6782 61.01 50.8462 60.986 51.0262 60.938C51.2062 60.89 51.3682 60.836 51.5122 60.776L51.8002 61.892C51.5602 61.976 51.2962 62.048 51.0082 62.108C50.7322 62.18 50.4562 62.216 50.1802 62.216ZM60.5137 62.216C59.9737 62.216 59.4577 62.114 58.9657 61.91C58.4857 61.706 58.0597 61.412 57.6877 61.028C57.3157 60.632 57.0157 60.152 56.7877 59.588C56.5717 59.012 56.4637 58.364 56.4637 57.644C56.4637 56.912 56.5717 56.264 56.7877 55.7C57.0157 55.124 57.3157 54.638 57.6877 54.242C58.0597 53.846 58.4857 53.546 58.9657 53.342C59.4577 53.138 59.9737 53.036 60.5137 53.036C61.0537 53.036 61.5637 53.138 62.0437 53.342C62.5357 53.546 62.9677 53.846 63.3397 54.242C63.7117 54.638 64.0057 55.124 64.2217 55.7C64.4497 56.264 64.5637 56.912 64.5637 57.644C64.5637 58.364 64.4497 59.012 64.2217 59.588C64.0057 60.152 63.7117 60.632 63.3397 61.028C62.9677 61.412 62.5357 61.706 62.0437 61.91C61.5637 62.114 61.0537 62.216 60.5137 62.216ZM60.5137 60.992C60.8857 60.992 61.2277 60.914 61.5397 60.758C61.8517 60.59 62.1157 60.362 62.3317 60.074C62.5597 59.774 62.7337 59.42 62.8537 59.012C62.9737 58.604 63.0337 58.148 63.0337 57.644C63.0337 57.14 62.9737 56.684 62.8537 56.276C62.7337 55.856 62.5597 55.496 62.3317 55.196C62.1157 54.896 61.8517 54.668 61.5397 54.512C61.2277 54.344 60.8857 54.26 60.5137 54.26C60.1417 54.26 59.7997 54.344 59.4877 54.512C59.1757 54.668 58.9057 54.896 58.6777 55.196C58.4617 55.496 58.2937 55.856 58.1737 56.276C58.0537 56.684 57.9937 57.14 57.9937 57.644C57.9937 58.148 58.0537 58.604 58.1737 59.012C58.2937 59.42 58.4617 59.774 58.6777 60.074C58.9057 60.362 59.1757 60.59 59.4877 60.758C59.7997 60.914 60.1417 60.992 60.5137 60.992ZM67.1196 62V54.458H65.9316V53.342L67.1196 53.252V51.866C67.1196 50.966 67.3236 50.258 67.7316 49.742C68.1516 49.226 68.7996 48.968 69.6756 48.968C69.9516 48.968 70.2096 48.998 70.4496 49.058C70.7016 49.106 70.9296 49.172 71.1336 49.256L70.8096 50.39C70.4856 50.246 70.1556 50.174 69.8196 50.174C69.0036 50.174 68.5956 50.738 68.5956 51.866V53.252H70.4496V54.458H68.5956V62H67.1196ZM78.463 62.216C78.007 62.216 77.587 62.168 77.203 62.072C76.831 61.988 76.489 61.874 76.177 61.73C75.877 61.586 75.601 61.424 75.349 61.244C75.109 61.052 74.893 60.854 74.701 60.65L75.421 59.678C75.757 60.026 76.153 60.332 76.609 60.596C77.077 60.86 77.647 60.992 78.319 60.992C78.667 60.992 78.991 60.932 79.291 60.812C79.603 60.68 79.873 60.5 80.101 60.272C80.329 60.044 80.509 59.768 80.641 59.444C80.773 59.12 80.839 58.76 80.839 58.364C80.839 57.572 80.617 56.954 80.173 56.51C79.729 56.066 79.135 55.844 78.391 55.844C77.995 55.844 77.653 55.904 77.365 56.024C77.089 56.144 76.777 56.318 76.429 56.546L75.637 56.042L76.015 50.516H81.757V51.794H77.311L77.005 55.196C77.281 55.052 77.557 54.938 77.833 54.854C78.109 54.77 78.421 54.728 78.769 54.728C79.261 54.728 79.723 54.8 80.155 54.944C80.587 55.088 80.965 55.31 81.289 55.61C81.613 55.898 81.865 56.27 82.045 56.726C82.237 57.17 82.333 57.704 82.333 58.328C82.333 58.952 82.225 59.504 82.009 59.984C81.793 60.464 81.505 60.872 81.145 61.208C80.785 61.532 80.371 61.784 79.903 61.964C79.447 62.132 78.967 62.216 78.463 62.216ZM90.5638 62.216C89.9398 62.216 89.3458 62.102 88.7818 61.874C88.2178 61.646 87.7258 61.358 87.3058 61.01L88.0438 60.02C88.4278 60.332 88.8178 60.584 89.2138 60.776C89.6218 60.968 90.0898 61.064 90.6178 61.064C91.1938 61.064 91.6258 60.932 91.9138 60.668C92.2018 60.404 92.3458 60.08 92.3458 59.696C92.3458 59.468 92.2858 59.27 92.1658 59.102C92.0458 58.934 91.8898 58.79 91.6978 58.67C91.5178 58.538 91.3078 58.424 91.0678 58.328C90.8278 58.232 90.5878 58.136 90.3478 58.04C90.0358 57.932 89.7238 57.812 89.4118 57.68C89.0998 57.536 88.8178 57.368 88.5658 57.176C88.3258 56.972 88.1278 56.738 87.9718 56.474C87.8158 56.21 87.7378 55.892 87.7378 55.52C87.7378 55.172 87.8038 54.848 87.9358 54.548C88.0798 54.236 88.2778 53.972 88.5298 53.756C88.7938 53.528 89.1118 53.354 89.4838 53.234C89.8558 53.102 90.2758 53.036 90.7438 53.036C91.2958 53.036 91.7998 53.132 92.2558 53.324C92.7238 53.516 93.1258 53.75 93.4618 54.026L92.7598 54.962C92.4598 54.734 92.1478 54.548 91.8238 54.404C91.4998 54.26 91.1458 54.188 90.7618 54.188C90.2098 54.188 89.8018 54.314 89.5378 54.566C89.2858 54.818 89.1598 55.112 89.1598 55.448C89.1598 55.652 89.2138 55.832 89.3218 55.988C89.4298 56.132 89.5738 56.264 89.7538 56.384C89.9338 56.492 90.1378 56.594 90.3658 56.69C90.6058 56.774 90.8518 56.864 91.1038 56.96C91.4158 57.08 91.7278 57.206 92.0398 57.338C92.3638 57.47 92.6518 57.638 92.9038 57.842C93.1558 58.034 93.3598 58.274 93.5158 58.562C93.6838 58.85 93.7678 59.198 93.7678 59.606C93.7678 59.966 93.6958 60.302 93.5518 60.614C93.4198 60.926 93.2158 61.202 92.9398 61.442C92.6758 61.682 92.3398 61.868 91.9318 62C91.5358 62.144 91.0798 62.216 90.5638 62.216ZM98.2212 62.216C97.7532 62.216 97.3572 62.144 97.0332 62C96.7212 61.856 96.4632 61.658 96.2592 61.406C96.0672 61.154 95.9292 60.848 95.8452 60.488C95.7612 60.128 95.7192 59.732 95.7192 59.3V54.458H94.4232V53.342L95.7912 53.252L95.9712 50.804H97.2132V53.252H99.5712V54.458H97.2132V59.318C97.2132 59.858 97.3092 60.278 97.5012 60.578C97.7052 60.866 98.0592 61.01 98.5632 61.01C98.7192 61.01 98.8872 60.986 99.0672 60.938C99.2472 60.89 99.4092 60.836 99.5532 60.776L99.8412 61.892C99.6012 61.976 99.3372 62.048 99.0492 62.108C98.7732 62.18 98.4972 62.216 98.2212 62.216ZM103.179 62.216C102.447 62.216 101.835 62 101.343 61.568C100.863 61.136 100.623 60.524 100.623 59.732C100.623 58.772 101.049 58.04 101.901 57.536C102.753 57.02 104.115 56.66 105.987 56.456C105.987 56.18 105.957 55.91 105.897 55.646C105.849 55.382 105.759 55.148 105.627 54.944C105.495 54.74 105.309 54.578 105.069 54.458C104.841 54.326 104.547 54.26 104.187 54.26C103.683 54.26 103.209 54.356 102.765 54.548C102.321 54.74 101.925 54.956 101.577 55.196L101.001 54.17C101.409 53.906 101.907 53.654 102.495 53.414C103.083 53.162 103.731 53.036 104.439 53.036C105.507 53.036 106.281 53.366 106.761 54.026C107.241 54.674 107.481 55.544 107.481 56.636V62H106.257L106.131 60.956H106.077C105.657 61.304 105.207 61.604 104.727 61.856C104.247 62.096 103.731 62.216 103.179 62.216ZM103.611 61.028C104.031 61.028 104.427 60.932 104.799 60.74C105.171 60.536 105.567 60.242 105.987 59.858V57.428C105.255 57.524 104.637 57.638 104.133 57.77C103.641 57.902 103.239 58.058 102.927 58.238C102.627 58.418 102.405 58.628 102.261 58.868C102.129 59.096 102.063 59.348 102.063 59.624C102.063 60.128 102.213 60.488 102.513 60.704C102.813 60.92 103.179 61.028 103.611 61.028ZM110.233 62V53.252H111.457L111.583 54.836H111.637C111.937 54.284 112.297 53.846 112.717 53.522C113.149 53.198 113.617 53.036 114.121 53.036C114.469 53.036 114.781 53.096 115.057 53.216L114.769 54.512C114.625 54.464 114.493 54.428 114.373 54.404C114.253 54.38 114.103 54.368 113.923 54.368C113.551 54.368 113.161 54.518 112.753 54.818C112.357 55.118 112.009 55.64 111.709 56.384V62H110.233ZM118.689 62.216C118.065 62.216 117.471 62.102 116.907 61.874C116.343 61.646 115.851 61.358 115.431 61.01L116.169 60.02C116.553 60.332 116.943 60.584 117.339 60.776C117.747 60.968 118.215 61.064 118.743 61.064C119.319 61.064 119.751 60.932 120.039 60.668C120.327 60.404 120.471 60.08 120.471 59.696C120.471 59.468 120.411 59.27 120.291 59.102C120.171 58.934 120.015 58.79 119.823 58.67C119.643 58.538 119.433 58.424 119.193 58.328C118.953 58.232 118.713 58.136 118.473 58.04C118.161 57.932 117.849 57.812 117.537 57.68C117.225 57.536 116.943 57.368 116.691 57.176C116.451 56.972 116.253 56.738 116.097 56.474C115.941 56.21 115.863 55.892 115.863 55.52C115.863 55.172 115.929 54.848 116.061 54.548C116.205 54.236 116.403 53.972 116.655 53.756C116.919 53.528 117.237 53.354 117.609 53.234C117.981 53.102 118.401 53.036 118.869 53.036C119.421 53.036 119.925 53.132 120.381 53.324C120.849 53.516 121.251 53.75 121.587 54.026L120.885 54.962C120.585 54.734 120.273 54.548 119.949 54.404C119.625 54.26 119.271 54.188 118.887 54.188C118.335 54.188 117.927 54.314 117.663 54.566C117.411 54.818 117.285 55.112 117.285 55.448C117.285 55.652 117.339 55.832 117.447 55.988C117.555 56.132 117.699 56.264 117.879 56.384C118.059 56.492 118.263 56.594 118.491 56.69C118.731 56.774 118.977 56.864 119.229 56.96C119.541 57.08 119.853 57.206 120.165 57.338C120.489 57.47 120.777 57.638 121.029 57.842C121.281 58.034 121.485 58.274 121.641 58.562C121.809 58.85 121.893 59.198 121.893 59.606C121.893 59.966 121.821 60.302 121.677 60.614C121.545 60.926 121.341 61.202 121.065 61.442C120.801 61.682 120.465 61.868 120.057 62C119.661 62.144 119.205 62.216 118.689 62.216ZM127.799 62V54.458H126.611V53.342L127.799 53.252V51.866C127.799 50.966 128.003 50.258 128.411 49.742C128.831 49.226 129.479 48.968 130.355 48.968C130.631 48.968 130.889 48.998 131.129 49.058C131.381 49.106 131.609 49.172 131.813 49.256L131.489 50.39C131.165 50.246 130.835 50.174 130.499 50.174C129.683 50.174 129.275 50.738 129.275 51.866V53.252H131.129V54.458H129.275V62H127.799ZM132.803 62V53.252H134.027L134.153 54.836H134.207C134.507 54.284 134.867 53.846 135.287 53.522C135.719 53.198 136.187 53.036 136.691 53.036C137.039 53.036 137.351 53.096 137.627 53.216L137.339 54.512C137.195 54.464 137.063 54.428 136.943 54.404C136.823 54.38 136.673 54.368 136.493 54.368C136.121 54.368 135.731 54.518 135.323 54.818C134.927 55.118 134.579 55.64 134.279 56.384V62H132.803ZM142.27 62.216C141.73 62.216 141.214 62.114 140.722 61.91C140.242 61.706 139.816 61.412 139.444 61.028C139.072 60.632 138.772 60.152 138.544 59.588C138.328 59.012 138.22 58.364 138.22 57.644C138.22 56.912 138.328 56.264 138.544 55.7C138.772 55.124 139.072 54.638 139.444 54.242C139.816 53.846 140.242 53.546 140.722 53.342C141.214 53.138 141.73 53.036 142.27 53.036C142.81 53.036 143.32 53.138 143.8 53.342C144.292 53.546 144.724 53.846 145.096 54.242C145.468 54.638 145.762 55.124 145.978 55.7C146.206 56.264 146.32 56.912 146.32 57.644C146.32 58.364 146.206 59.012 145.978 59.588C145.762 60.152 145.468 60.632 145.096 61.028C144.724 61.412 144.292 61.706 143.8 61.91C143.32 62.114 142.81 62.216 142.27 62.216ZM142.27 60.992C142.642 60.992 142.984 60.914 143.296 60.758C143.608 60.59 143.872 60.362 144.088 60.074C144.316 59.774 144.49 59.42 144.61 59.012C144.73 58.604 144.79 58.148 144.79 57.644C144.79 57.14 144.73 56.684 144.61 56.276C144.49 55.856 144.316 55.496 144.088 55.196C143.872 54.896 143.608 54.668 143.296 54.512C142.984 54.344 142.642 54.26 142.27 54.26C141.898 54.26 141.556 54.344 141.244 54.512C140.932 54.668 140.662 54.896 140.434 55.196C140.218 55.496 140.05 55.856 139.93 56.276C139.81 56.684 139.75 57.14 139.75 57.644C139.75 58.148 139.81 58.604 139.93 59.012C140.05 59.42 140.218 59.774 140.434 60.074C140.662 60.362 140.932 60.59 141.244 60.758C141.556 60.914 141.898 60.992 142.27 60.992ZM148.623 62V53.252H149.847L149.973 54.512H150.027C150.411 54.092 150.825 53.744 151.269 53.468C151.725 53.18 152.217 53.036 152.745 53.036C153.417 53.036 153.939 53.186 154.311 53.486C154.695 53.774 154.977 54.182 155.157 54.71C155.613 54.206 156.069 53.804 156.525 53.504C156.993 53.192 157.497 53.036 158.037 53.036C158.937 53.036 159.603 53.324 160.035 53.9C160.479 54.476 160.701 55.328 160.701 56.456V62H159.225V56.654C159.225 55.826 159.093 55.232 158.829 54.872C158.565 54.5 158.157 54.314 157.605 54.314C156.945 54.314 156.213 54.764 155.409 55.664V62H153.933V56.654C153.933 55.826 153.801 55.232 153.537 54.872C153.273 54.5 152.859 54.314 152.295 54.314C151.635 54.314 150.903 54.764 150.099 55.664V62H148.623ZM166.341 62V60.488C167.073 59.804 167.739 59.168 168.339 58.58C168.951 57.98 169.473 57.422 169.905 56.906C170.349 56.378 170.691 55.892 170.931 55.448C171.183 54.992 171.309 54.56 171.309 54.152C171.309 53.588 171.165 53.162 170.877 52.874C170.589 52.574 170.193 52.424 169.689 52.424C169.269 52.424 168.897 52.544 168.573 52.784C168.249 53.012 167.943 53.282 167.655 53.594L166.215 52.172C166.779 51.572 167.355 51.122 167.943 50.822C168.531 50.51 169.233 50.354 170.049 50.354C170.613 50.354 171.123 50.444 171.579 50.624C172.047 50.792 172.449 51.038 172.785 51.362C173.121 51.674 173.379 52.052 173.559 52.496C173.739 52.94 173.829 53.438 173.829 53.99C173.829 54.47 173.727 54.962 173.523 55.466C173.319 55.958 173.043 56.456 172.695 56.96C172.359 57.452 171.969 57.95 171.525 58.454C171.093 58.946 170.643 59.432 170.175 59.912C170.463 59.876 170.781 59.846 171.129 59.822C171.489 59.786 171.807 59.768 172.083 59.768H174.387V62H166.341ZM175.851 62V60.488C176.583 59.804 177.249 59.168 177.849 58.58C178.461 57.98 178.983 57.422 179.415 56.906C179.859 56.378 180.201 55.892 180.441 55.448C180.693 54.992 180.819 54.56 180.819 54.152C180.819 53.588 180.675 53.162 180.387 52.874C180.099 52.574 179.703 52.424 179.199 52.424C178.779 52.424 178.407 52.544 178.083 52.784C177.759 53.012 177.453 53.282 177.165 53.594L175.725 52.172C176.289 51.572 176.865 51.122 177.453 50.822C178.041 50.51 178.743 50.354 179.559 50.354C180.123 50.354 180.633 50.444 181.089 50.624C181.557 50.792 181.959 51.038 182.295 51.362C182.631 51.674 182.889 52.052 183.069 52.496C183.249 52.94 183.339 53.438 183.339 53.99C183.339 54.47 183.237 54.962 183.033 55.466C182.829 55.958 182.553 56.456 182.205 56.96C181.869 57.452 181.479 57.95 181.035 58.454C180.603 58.946 180.153 59.432 179.685 59.912C179.973 59.876 180.291 59.846 180.639 59.822C180.999 59.786 181.317 59.768 181.593 59.768H183.897V62H175.851ZM189.446 62.216C188.834 62.216 188.276 62.09 187.772 61.838C187.268 61.574 186.836 61.19 186.476 60.686C186.128 60.182 185.852 59.558 185.648 58.814C185.456 58.07 185.36 57.212 185.36 56.24C185.36 55.268 185.456 54.416 185.648 53.684C185.852 52.952 186.128 52.34 186.476 51.848C186.836 51.344 187.268 50.972 187.772 50.732C188.276 50.48 188.834 50.354 189.446 50.354C190.058 50.354 190.616 50.48 191.12 50.732C191.624 50.972 192.05 51.344 192.398 51.848C192.758 52.34 193.034 52.952 193.226 53.684C193.43 54.416 193.532 55.268 193.532 56.24C193.532 57.212 193.43 58.07 193.226 58.814C193.034 59.558 192.758 60.182 192.398 60.686C192.05 61.19 191.624 61.574 191.12 61.838C190.616 62.09 190.058 62.216 189.446 62.216ZM189.446 60.164C189.674 60.164 189.884 60.11 190.076 60.002C190.268 59.882 190.436 59.672 190.58 59.372C190.724 59.072 190.832 58.67 190.904 58.166C190.988 57.662 191.03 57.02 191.03 56.24C191.03 55.46 190.988 54.824 190.904 54.332C190.832 53.828 190.724 53.438 190.58 53.162C190.436 52.874 190.268 52.676 190.076 52.568C189.884 52.46 189.674 52.406 189.446 52.406C189.23 52.406 189.026 52.46 188.834 52.568C188.642 52.676 188.474 52.874 188.33 53.162C188.186 53.438 188.072 53.828 187.988 54.332C187.904 54.824 187.862 55.46 187.862 56.24C187.862 57.02 187.904 57.662 187.988 58.166C188.072 58.67 188.186 59.072 188.33 59.372C188.474 59.672 188.642 59.882 188.834 60.002C189.026 60.11 189.23 60.164 189.446 60.164ZM198.978 62V53.072H201.138L201.318 54.638H201.39C201.714 54.026 202.104 53.576 202.56 53.288C203.016 53 203.472 52.856 203.928 52.856C204.18 52.856 204.384 52.874 204.54 52.91C204.708 52.934 204.858 52.976 204.99 53.036L204.558 55.322C204.39 55.274 204.234 55.238 204.09 55.214C203.946 55.19 203.778 55.178 203.586 55.178C203.25 55.178 202.896 55.298 202.524 55.538C202.164 55.778 201.864 56.204 201.624 56.816V62H198.978ZM209.97 62.216C209.334 62.216 208.74 62.114 208.188 61.91C207.636 61.694 207.156 61.388 206.748 60.992C206.34 60.584 206.022 60.092 205.794 59.516C205.566 58.94 205.452 58.28 205.452 57.536C205.452 56.816 205.572 56.168 205.812 55.592C206.052 55.004 206.364 54.512 206.748 54.116C207.144 53.708 207.594 53.396 208.098 53.18C208.602 52.964 209.124 52.856 209.664 52.856C210.3 52.856 210.852 52.964 211.32 53.18C211.8 53.396 212.196 53.696 212.508 54.08C212.832 54.464 213.072 54.92 213.228 55.448C213.384 55.964 213.462 56.528 213.462 57.14C213.462 57.38 213.45 57.608 213.426 57.824C213.402 58.04 213.378 58.202 213.354 58.31H208.008C208.128 58.958 208.392 59.438 208.8 59.75C209.22 60.05 209.73 60.2 210.33 60.2C210.966 60.2 211.608 60.002 212.256 59.606L213.138 61.208C212.682 61.52 212.172 61.766 211.608 61.946C211.056 62.126 210.51 62.216 209.97 62.216ZM207.99 56.564H211.212C211.212 56.06 211.098 55.652 210.87 55.34C210.642 55.028 210.258 54.872 209.718 54.872C209.298 54.872 208.926 55.01 208.602 55.286C208.29 55.562 208.086 55.988 207.99 56.564ZM217.237 62L214.231 53.072H216.895L218.047 57.284C218.167 57.728 218.281 58.184 218.389 58.652C218.509 59.108 218.629 59.57 218.749 60.038H218.821C218.929 59.57 219.037 59.108 219.145 58.652C219.265 58.184 219.385 57.728 219.505 57.284L220.675 53.072H223.213L220.297 62H217.237ZM224.607 62V53.072H227.253V62H224.607ZM225.921 51.758C225.477 51.758 225.111 51.632 224.823 51.38C224.535 51.116 224.391 50.78 224.391 50.372C224.391 49.964 224.535 49.634 224.823 49.382C225.111 49.13 225.477 49.004 225.921 49.004C226.377 49.004 226.743 49.13 227.019 49.382C227.307 49.634 227.451 49.964 227.451 50.372C227.451 50.78 227.307 51.116 227.019 51.38C226.743 51.632 226.377 51.758 225.921 51.758ZM233.577 62.216C232.941 62.216 232.347 62.114 231.795 61.91C231.243 61.694 230.763 61.388 230.355 60.992C229.947 60.584 229.629 60.092 229.401 59.516C229.173 58.94 229.059 58.28 229.059 57.536C229.059 56.816 229.179 56.168 229.419 55.592C229.659 55.004 229.971 54.512 230.355 54.116C230.751 53.708 231.201 53.396 231.705 53.18C232.209 52.964 232.731 52.856 233.271 52.856C233.907 52.856 234.459 52.964 234.927 53.18C235.407 53.396 235.803 53.696 236.115 54.08C236.439 54.464 236.679 54.92 236.835 55.448C236.991 55.964 237.069 56.528 237.069 57.14C237.069 57.38 237.057 57.608 237.033 57.824C237.009 58.04 236.985 58.202 236.961 58.31H231.615C231.735 58.958 231.999 59.438 232.407 59.75C232.827 60.05 233.337 60.2 233.937 60.2C234.573 60.2 235.215 60.002 235.863 59.606L236.745 61.208C236.289 61.52 235.779 61.766 235.215 61.946C234.663 62.126 234.117 62.216 233.577 62.216ZM231.597 56.564H234.819C234.819 56.06 234.705 55.652 234.477 55.34C234.249 55.028 233.865 54.872 233.325 54.872C232.905 54.872 232.533 55.01 232.209 55.286C231.897 55.562 231.693 55.988 231.597 56.564ZM240.286 62L238.054 53.072H240.682L241.546 57.212C241.618 57.656 241.684 58.094 241.744 58.526C241.804 58.958 241.87 59.402 241.942 59.858H242.014C242.098 59.402 242.176 58.952 242.248 58.508C242.332 58.064 242.428 57.632 242.536 57.212L243.526 53.072H245.812L246.82 57.212C246.928 57.656 247.024 58.094 247.108 58.526C247.192 58.958 247.282 59.402 247.378 59.858H247.45C247.534 59.402 247.6 58.958 247.648 58.526C247.708 58.094 247.78 57.656 247.864 57.212L248.71 53.072H251.158L249.016 62H245.92L245.11 58.436C245.014 58.016 244.93 57.596 244.858 57.176C244.786 56.756 244.708 56.306 244.624 55.826H244.552C244.468 56.306 244.39 56.756 244.318 57.176C244.258 57.596 244.186 58.016 244.102 58.436L243.31 62H240.286ZM255.395 62.216C254.807 62.216 254.201 62.102 253.577 61.874C252.965 61.646 252.431 61.346 251.975 60.974L253.163 59.318C253.571 59.63 253.961 59.864 254.333 60.02C254.705 60.176 255.083 60.254 255.467 60.254C255.863 60.254 256.151 60.188 256.331 60.056C256.511 59.924 256.601 59.738 256.601 59.498C256.601 59.354 256.547 59.228 256.439 59.12C256.343 59 256.205 58.892 256.025 58.796C255.857 58.7 255.665 58.616 255.449 58.544C255.233 58.46 255.011 58.37 254.783 58.274C254.507 58.166 254.231 58.04 253.955 57.896C253.679 57.752 253.427 57.578 253.199 57.374C252.971 57.158 252.785 56.912 252.641 56.636C252.497 56.348 252.425 56.018 252.425 55.646C252.425 55.238 252.503 54.86 252.659 54.512C252.827 54.164 253.061 53.87 253.361 53.63C253.661 53.39 254.021 53.204 254.441 53.072C254.861 52.928 255.329 52.856 255.845 52.856C256.529 52.856 257.129 52.976 257.645 53.216C258.161 53.444 258.611 53.702 258.995 53.99L257.807 55.574C257.483 55.334 257.165 55.148 256.853 55.016C256.541 54.884 256.229 54.818 255.917 54.818C255.245 54.818 254.909 55.052 254.909 55.52C254.909 55.664 254.957 55.79 255.053 55.898C255.149 55.994 255.275 56.084 255.431 56.168C255.599 56.252 255.785 56.336 255.989 56.42C256.205 56.492 256.427 56.57 256.655 56.654C256.943 56.762 257.225 56.888 257.501 57.032C257.789 57.164 258.047 57.332 258.275 57.536C258.515 57.74 258.707 57.992 258.851 58.292C258.995 58.58 259.067 58.928 259.067 59.336C259.067 59.744 258.989 60.122 258.833 60.47C258.677 60.818 258.443 61.124 258.131 61.388C257.819 61.64 257.435 61.844 256.979 62C256.523 62.144 255.995 62.216 255.395 62.216Z" fill="white"/>
<path d="M64 10.7699L76.148 10.7724L83.5349 10.7736V3.45557L64 10.7699Z" fill="white"/>
<path d="M83.5348 3.45558V29.2921L92.7608 0L83.5348 3.45558Z" fill="white"/>
<path d="M83.5348 10.7737L76.148 10.7725L83.5348 29.2921V10.7737Z" fill="white"/>
<path d="M64 10.7698L78.0423 15.5241L76.148 10.7722L64 10.7698Z" fill="white"/>
<path d="M108.751 22.4909C108.644 22.598 108.465 22.7317 108.216 22.8922C107.966 23.0528 107.64 23.2133 107.239 23.374C106.838 23.5343 106.347 23.6724 105.767 23.7888C105.187 23.9044 104.523 23.9626 103.774 23.9626C102.329 23.9626 101.08 23.7305 100.028 23.267C98.9752 22.8035 98.1056 22.1564 97.4191 21.3271C96.7322 20.4975 96.2285 19.5167 95.9074 18.3836C95.5863 17.251 95.4258 16.0069 95.4258 14.651C95.4258 13.2957 95.5997 12.0422 95.9475 10.8917C96.2953 9.74104 96.8171 8.74696 97.5127 7.90816C98.2085 7.06998 99.0781 6.41433 100.122 5.94146C101.165 5.46913 102.391 5.23242 103.801 5.23242C104.496 5.23242 105.125 5.29506 105.687 5.4197C106.249 5.54461 106.74 5.6919 107.159 5.86121C107.578 6.03096 107.926 6.20899 108.202 6.39635C108.479 6.58363 108.688 6.74009 108.831 6.86455C108.992 7.00762 109.13 7.17692 109.246 7.37292C109.362 7.56945 109.42 7.78351 109.42 8.01518C109.42 8.37222 109.286 8.7288 109.019 9.08548C108.751 9.44251 108.457 9.7725 108.135 10.0755C107.921 9.86146 107.681 9.64327 107.413 9.42004C107.146 9.19709 106.847 9.00109 106.517 8.83134C106.186 8.66203 105.812 8.51942 105.393 8.40322C104.974 8.28738 104.505 8.22924 103.988 8.22924C103.078 8.22924 102.316 8.41239 101.7 8.77778C101.085 9.14362 100.59 9.62062 100.215 10.2093C99.8409 10.798 99.5732 11.4715 99.4126 12.2295C99.2521 12.9879 99.1719 13.7593 99.1719 14.5441C99.1719 15.3827 99.2521 16.1854 99.4126 16.9521C99.5731 17.7192 99.8495 18.3972 100.242 18.9856C100.634 19.5743 101.147 20.0471 101.781 20.4037C102.414 20.7608 103.203 20.939 104.149 20.939C104.648 20.939 105.107 20.8767 105.527 20.7518C105.946 20.627 106.316 20.4752 106.637 20.2966C106.958 20.1187 107.239 19.9315 107.48 19.735C107.721 19.5388 107.921 19.3695 108.082 19.2265C108.189 19.3516 108.314 19.5034 108.457 19.6815C108.6 19.8615 108.734 20.0491 108.858 20.2434C108.983 20.4398 109.09 20.6359 109.179 20.8318C109.268 21.0285 109.313 21.2066 109.313 21.3669C109.313 21.5991 109.268 21.7952 109.179 21.9557C109.089 22.1163 108.947 22.2948 108.751 22.4909ZM122.54 20.4388C122.54 21.8566 122.746 22.8885 123.159 23.5345C122.836 23.6599 122.535 23.7498 122.257 23.8036C121.979 23.8575 121.687 23.8843 121.382 23.8843C120.737 23.8843 120.247 23.7586 119.916 23.5075C119.583 23.2565 119.372 22.8976 119.283 22.4307C118.888 22.8439 118.368 23.1937 117.722 23.4809C117.076 23.7675 116.286 23.9114 115.353 23.9114C114.868 23.9114 114.384 23.8442 113.899 23.7105C113.415 23.5757 112.975 23.357 112.58 23.0532C112.185 22.7488 111.862 22.3418 111.611 21.8319C111.36 21.322 111.234 20.7005 111.234 19.9672C111.234 19.0549 111.454 18.3123 111.894 17.7401C112.333 17.1674 112.885 16.7158 113.549 16.3848C114.213 16.0541 114.931 15.8264 115.703 15.7009C116.474 15.5755 117.183 15.4953 117.829 15.4591C118.045 15.4414 118.255 15.4321 118.462 15.4321H119.041V14.9422C119.041 14.2524 118.856 13.7623 118.489 13.4722C118.121 13.1819 117.524 13.0364 116.699 13.0364C115.927 13.0364 115.24 13.1621 114.639 13.4132C114.038 13.6647 113.45 13.9516 112.876 14.2746C112.625 13.9696 112.423 13.6333 112.271 13.2652C112.118 12.8976 112.042 12.6238 112.042 12.4442C112.042 12.1931 112.181 11.9508 112.459 11.7174C112.737 11.4844 113.119 11.2732 113.603 11.0848C114.088 10.8963 114.644 10.7441 115.272 10.6272C115.9 10.5106 116.564 10.4522 117.264 10.4522C118.233 10.4522 119.054 10.5511 119.727 10.7483C120.4 10.946 120.947 11.251 121.369 11.6635C121.791 12.0766 122.091 12.5923 122.271 13.2114C122.45 13.8305 122.54 14.5531 122.54 15.3783V20.4388H122.54ZM119.094 17.3163H118.718C118.592 17.3163 118.466 17.3257 118.341 17.3434C117.892 17.3795 117.448 17.4332 117.008 17.5047C116.568 17.5766 116.178 17.7023 115.837 17.8817C115.496 18.0612 115.218 18.2947 115.003 18.5814C114.787 18.8687 114.68 19.2368 114.68 19.6852C114.68 20.1878 114.823 20.6137 115.11 20.9638C115.397 21.3138 115.882 21.4887 116.564 21.4887C116.905 21.4887 117.228 21.4442 117.533 21.3539C117.838 21.2646 118.107 21.1479 118.341 21.0043C118.574 20.8607 118.758 20.7038 118.893 20.533C119.027 20.3627 119.094 20.2058 119.094 20.0621V17.3163H119.094ZM129.242 12.0134C129.528 11.6727 129.976 11.327 130.584 10.977C131.192 10.627 131.962 10.4521 132.892 10.4521C133.554 10.4521 134.184 10.5643 134.784 10.7885C135.383 11.0131 135.915 11.3766 136.38 11.8788C136.846 12.3814 137.217 13.0455 137.494 13.8707C137.772 14.6964 137.91 15.7105 137.91 16.9125C137.91 18.3122 137.749 19.4655 137.427 20.3715C137.105 21.2781 136.689 21.9959 136.18 22.5252C135.67 23.0546 135.101 23.427 134.476 23.6422C133.849 23.8575 133.223 23.9653 132.597 23.9653C132.078 23.9653 131.626 23.9069 131.242 23.7904C130.857 23.6735 130.531 23.5438 130.263 23.4C129.994 23.2566 129.789 23.1132 129.646 22.9693C129.503 22.8258 129.413 22.7269 129.377 22.673V29.2902H125.716V10.8289C125.806 10.8112 125.915 10.7932 126.042 10.7751C126.15 10.7575 126.277 10.7439 126.422 10.7347C126.566 10.7259 126.738 10.7213 126.937 10.7213C127.533 10.7213 128.04 10.8201 128.456 11.0174C128.871 11.2151 129.134 11.5469 129.242 12.0134ZM134.088 16.9932C134.088 16.4549 134.043 15.9527 133.954 15.4858C133.865 15.0194 133.718 14.6156 133.512 14.2746C133.307 13.9338 133.03 13.6689 132.682 13.4803C132.334 13.292 131.911 13.1979 131.411 13.1979C130.662 13.1979 130.14 13.3417 129.845 13.6284C129.551 13.9157 129.404 14.23 129.404 14.5707V20.2775C129.546 20.4212 129.8 20.5914 130.166 20.7889C130.532 20.9865 130.956 21.0848 131.438 21.0848C132.348 21.0848 133.017 20.7262 133.445 20.0082C133.874 19.2906 134.088 18.2853 134.088 16.9932ZM140.736 21.6234C140.61 21.2646 140.529 20.8875 140.494 20.4927C140.457 20.0981 140.44 19.7034 140.44 19.3081V6.818C140.565 6.80039 140.7 6.78232 140.843 6.76417C140.969 6.74656 141.103 6.73317 141.247 6.72382C141.391 6.71502 141.534 6.71043 141.678 6.71043C141.965 6.71043 142.252 6.73739 142.539 6.79113C142.826 6.84505 143.086 6.95271 143.32 7.11411C143.553 7.27559 143.741 7.49567 143.885 7.77363C144.029 8.05203 144.101 8.41553 144.101 8.86378V10.7749H147.869V13.4939H144.101V19.2342C144.101 20.486 144.612 21.1118 145.635 21.1118C145.886 21.1118 146.124 21.0716 146.348 20.9906C146.573 20.9099 146.774 20.8203 146.954 20.7216C147.133 20.6229 147.29 20.5197 147.425 20.412C147.56 20.3042 147.654 20.2236 147.708 20.1698C147.977 20.5648 148.183 20.9068 148.327 21.1953C148.47 21.4843 148.542 21.7554 148.542 22.0087C148.542 22.2444 148.448 22.4756 148.26 22.7018C148.071 22.9281 147.806 23.1368 147.465 23.3268C147.124 23.5169 146.712 23.6708 146.227 23.7887C145.743 23.9065 145.213 23.9654 144.639 23.9654C143.526 23.9654 142.66 23.7499 142.041 23.3194C141.422 22.8885 140.987 22.3231 140.736 21.6234ZM157.141 21.2733C157.591 21.2733 157.987 21.2242 158.33 21.1252C158.672 21.0269 158.978 20.9057 159.248 20.7621C159.518 20.6187 159.753 20.4616 159.951 20.291C160.149 20.1206 160.329 19.9636 160.491 19.8198C160.707 20.0888 160.932 20.4346 161.166 20.856C161.4 21.2781 161.517 21.6234 161.517 21.8924C161.517 22.2874 161.293 22.6463 160.845 22.9693C160.468 23.2566 159.933 23.5033 159.243 23.7094C158.552 23.9156 157.74 24.019 156.807 24.019C155.963 24.019 155.133 23.9114 154.317 23.696C153.5 23.4808 152.773 23.1038 152.136 22.5653C151.499 22.0272 150.983 21.305 150.588 20.3986C150.194 19.4924 149.996 18.3486 149.996 16.9664C149.996 15.8357 150.171 14.8625 150.521 14.0458C150.871 13.2293 151.337 12.5518 151.921 12.0135C152.504 11.4751 153.163 11.0806 153.899 10.8289C154.635 10.578 155.389 10.4521 156.161 10.4521C157.166 10.4521 158.018 10.6095 158.718 10.9232C159.418 11.2374 159.987 11.6592 160.427 12.1884C160.867 12.7178 161.185 13.3235 161.383 14.0054C161.58 14.6876 161.679 15.4051 161.679 16.1588V16.5357C161.679 16.6796 161.674 16.8318 161.665 16.9932C161.656 17.1549 161.647 17.3122 161.639 17.4643C161.629 17.6172 161.616 17.7381 161.598 17.8278H153.657C153.729 18.8149 154.035 19.6358 154.575 20.291C155.115 20.9462 155.971 21.2733 157.141 21.2733ZM158.368 15.8088C158.368 14.9475 158.201 14.2476 157.867 13.7092C157.533 13.1709 156.933 12.9016 156.067 12.9016C155.326 12.9016 154.735 13.1574 154.293 13.6689C153.851 14.1804 153.63 14.8936 153.63 15.8087H158.368V15.8088ZM168.05 12.0814C168.157 11.9213 168.301 11.7433 168.48 11.5472C168.66 11.3513 168.88 11.1733 169.14 11.0132C169.4 10.8529 169.687 10.7191 170.001 10.6124C170.315 10.5055 170.652 10.4521 171.011 10.4521C171.226 10.4521 171.455 10.4702 171.697 10.5055C171.94 10.5413 172.164 10.6082 172.37 10.7057C172.576 10.8038 172.743 10.9371 172.868 11.1062C172.994 11.2753 173.057 11.4843 173.057 11.7334C173.057 12.1249 172.958 12.5746 172.761 13.0822C172.563 13.5903 172.366 14.0236 172.168 14.3823C171.863 14.1311 171.558 13.9382 171.253 13.8036C170.948 13.669 170.589 13.6016 170.176 13.6016C169.62 13.6016 169.153 13.7637 168.777 14.0875C168.4 14.4113 168.211 14.7983 168.211 15.2482V23.9624H164.55V10.8289C164.64 10.8112 164.748 10.7932 164.873 10.7751C164.981 10.7575 165.107 10.7439 165.25 10.7347C165.394 10.7259 165.564 10.7213 165.762 10.7213C166.336 10.7213 166.834 10.8326 167.256 11.0549C167.677 11.2768 167.942 11.6192 168.05 12.0814ZM178.458 12.0814C178.566 11.9213 178.709 11.7433 178.889 11.5472C179.068 11.3513 179.288 11.1733 179.548 11.0132C179.808 10.8529 180.096 10.7191 180.41 10.6124C180.724 10.5055 181.06 10.4521 181.419 10.4521C181.635 10.4521 181.863 10.4702 182.106 10.5055C182.348 10.5413 182.572 10.6082 182.779 10.7057C182.985 10.8038 183.151 10.9371 183.277 11.1062C183.402 11.2753 183.465 11.4843 183.465 11.7334C183.465 12.1249 183.366 12.5746 183.169 13.0822C182.971 13.5903 182.774 14.0236 182.577 14.3823C182.272 14.1311 181.966 13.9382 181.661 13.8036C181.356 13.669 180.997 13.6016 180.585 13.6016C180.028 13.6016 179.562 13.7637 179.185 14.0875C178.808 14.4113 178.62 14.7983 178.62 15.2482V23.9624H174.959V10.8289C175.048 10.8112 175.156 10.7932 175.282 10.7751C175.39 10.7575 175.515 10.7439 175.659 10.7347C175.802 10.7259 175.972 10.7213 176.17 10.7213C176.744 10.7213 177.242 10.8326 177.664 11.0549C178.085 11.2768 178.35 11.6192 178.458 12.0814ZM195.929 20.4388C195.929 21.8566 196.135 22.8885 196.548 23.5345C196.225 23.6599 195.924 23.7498 195.646 23.8036C195.368 23.8575 195.076 23.8843 194.771 23.8843C194.125 23.8843 193.636 23.7586 193.304 23.5075C192.972 23.2565 192.761 22.8976 192.671 22.4307C192.277 22.8439 191.756 23.1937 191.11 23.4809C190.464 23.7675 189.674 23.9114 188.741 23.9114C188.257 23.9114 187.772 23.8442 187.288 23.7105C186.803 23.5757 186.363 23.357 185.969 23.0532C185.574 22.7488 185.251 22.3418 185 21.8319C184.748 21.322 184.623 20.7005 184.623 19.9672C184.623 19.0549 184.842 18.3123 185.282 17.7401C185.722 17.1674 186.274 16.7158 186.938 16.3848C187.602 16.0541 188.319 15.8264 189.091 15.7009C189.863 15.5755 190.572 15.4953 191.218 15.4591C191.433 15.4414 191.644 15.4321 191.851 15.4321H192.429V14.9422C192.429 14.2524 192.245 13.7623 191.877 13.4722C191.509 13.1819 190.913 13.0364 190.087 13.0364C189.316 13.0364 188.629 13.1621 188.028 13.4132C187.427 13.6647 186.839 13.9516 186.265 14.2746C186.013 13.9696 185.811 13.6333 185.659 13.2652C185.507 12.8976 185.43 12.6238 185.43 12.4442C185.43 12.1931 185.569 11.9508 185.848 11.7174C186.126 11.4844 186.507 11.2732 186.992 11.0848C187.476 10.8963 188.032 10.7441 188.661 10.6272C189.289 10.5106 189.953 10.4522 190.653 10.4522C191.622 10.4522 192.443 10.5511 193.116 10.7483C193.788 10.946 194.336 11.251 194.758 11.6635C195.179 12.0766 195.48 12.5923 195.659 13.2114C195.838 13.8305 195.929 14.5531 195.929 15.3783V20.4388ZM192.483 17.3163H192.106C191.98 17.3163 191.855 17.3257 191.729 17.3434C191.281 17.3795 190.836 17.4332 190.397 17.5047C189.957 17.5766 189.567 17.7023 189.226 17.8817C188.885 18.0612 188.607 18.2947 188.391 18.5814C188.176 18.8687 188.068 19.2368 188.068 19.6852C188.068 20.1878 188.212 20.6137 188.499 20.9638C188.786 21.3138 189.271 21.4887 189.953 21.4887C190.293 21.4887 190.617 21.4442 190.922 21.3539C191.227 21.2646 191.496 21.1479 191.729 21.0043C191.962 20.8607 192.147 20.7038 192.281 20.533C192.416 20.3627 192.483 20.2058 192.483 20.0621V17.3163H192.483Z" fill="white"/>
<path d="M83.6968 82.7852L75.5095 81.5714L71.8484 74L68.1872 81.5714L60 82.7852L65.9242 88.6787L64.5261 96.9998L71.8484 93.0713L79.1707 96.9998L77.7726 88.6787L83.6968 82.7852Z" fill="white"/>
<path d="M142.242 82.7854L134.055 81.5716L130.393 74.0002L126.732 81.5716L118.545 82.7854L124.469 88.6789L123.071 97L130.393 93.0715L137.716 97L136.318 88.6789L142.242 82.7854Z" fill="white"/>
<path d="M112.969 82.7854L104.782 81.5716L101.121 74.0002L97.4596 81.5716L89.2723 82.7854L95.1965 88.6789L93.7984 97L101.121 93.0715L108.443 97L107.045 88.6789L112.969 82.7854Z" fill="white"/>
<path d="M171.514 82.7854L163.327 81.5716L159.666 74.0002L156.005 81.5716L147.817 82.7854L153.742 88.6789L152.343 97L159.666 93.0715L166.988 97L165.59 88.6789L171.514 82.7854Z" fill="white"/>
<path d="M200.787 82.7854L192.6 81.5716L188.938 74.0002L185.277 81.5716L177.09 82.7854L183.014 88.6789L181.616 97L188.938 93.0715L196.261 97L194.863 88.6789L200.787 82.7854Z" fill="#BABABA"/>
<path d="M200.787 82.7854L192.6 81.5716L188.938 74.0002L185.277 81.5716L177.09 82.7854L183.014 88.6789L181.616 97L188.938 93.0715L196.261 97L194.863 88.6789L200.787 82.7854Z" fill="white"/>
<mask id="mask0" mask-type="alpha" maskUnits="userSpaceOnUse" x="177" y="74" width="24" height="23">
<path d="M200.787 82.7854L192.6 81.5716L188.938 74.0002L185.277 81.5716L177.09 82.7854L183.014 88.6789L181.616 97L188.938 93.0715L196.261 97L194.863 88.6789L200.787 82.7854Z" fill="white"/>
</mask>
<g mask="url(#mask0)">
<path d="M187.545 71.9092H200.787V102.576H187.545V71.9092Z" fill="#C2C5C7"/>
</g>
</svg>
