<svg width="500" height="300" viewBox="0 0 500 300" fill="none" xmlns="http://www.w3.org/2000/svg">
<g clip-path="url(#clip0)">
<path d="M233.46 125.3C233.46 124.555 233.46 123.92 233.46 123.285C233.46 110.223 233.466 97.1605 233.442 84.0984C233.442 83.1923 233.682 82.5389 234.316 81.8731C236.648 79.4074 238.913 76.8739 241.209 74.3712C243.972 71.3631 246.741 68.3611 249.511 65.3591C251.683 63.0105 253.868 60.6742 256.034 58.3195C258.767 55.3483 261.481 52.3648 264.213 49.3936C265.278 48.2347 266.349 47.082 267.432 45.9354C267.518 45.8491 267.703 45.7875 267.82 45.8183C267.924 45.843 268.053 46.0094 268.066 46.1204C268.103 46.5087 268.109 46.9032 268.109 47.2977C268.109 58.0421 268.109 68.7864 268.109 79.5307C268.109 80.0239 268.115 80.517 268.177 81.004C268.189 81.1149 268.46 81.2875 268.601 81.269C268.835 81.2444 269.063 81.1149 269.278 80.9978C272.072 79.4999 275.045 78.4705 278.128 77.817C281.414 77.1205 284.744 76.9541 288.104 77.1636C290.523 77.3177 292.898 77.6814 295.237 78.2609C299.791 79.3951 304.093 81.1889 308.112 83.63C316.746 88.8819 322.765 96.3654 326.605 105.63C328.482 110.155 329.504 114.92 329.787 119.833C329.861 121.158 329.953 122.483 329.941 123.815C329.916 126.626 329.732 129.412 329.27 132.192C328.759 135.268 328.002 138.258 326.907 141.173C325.584 144.699 323.836 147.991 321.663 151.061C317.712 156.64 312.844 161.244 307.041 164.838C303.213 167.205 299.114 168.944 294.757 170.096C291.034 171.089 287.255 171.643 283.402 171.724C282.719 171.736 282.024 171.921 281.347 171.884C278.602 171.717 275.851 171.65 273.131 171.156C271.094 170.787 269.094 170.318 267.118 169.72C264.287 168.87 261.567 167.748 258.927 166.416C254.588 164.228 250.655 161.472 247.209 158.045C244.046 154.901 241.43 151.338 239.362 147.381C237.694 144.182 236.371 140.853 235.473 137.358C235.454 137.284 235.35 137.234 235.233 137.13C234.857 137.413 234.814 137.876 234.685 138.27C233.928 140.619 232.98 142.887 231.842 145.069C230.174 148.269 228.168 151.234 225.847 154.001C222.789 157.644 219.324 160.825 215.434 163.556C212.197 165.831 208.708 167.612 205.003 168.993C202.83 169.8 200.597 170.392 198.338 170.861C196.03 171.341 193.685 171.625 191.322 171.724C190.442 171.761 189.556 171.927 188.682 171.89C185.888 171.761 183.094 171.619 180.318 171.156C176.115 170.454 172.115 169.153 168.293 167.298C164.834 165.615 161.621 163.513 158.661 161.047C156.957 159.629 155.338 158.119 153.793 156.522C149.239 151.831 145.756 146.45 143.479 140.323C142.451 137.555 141.719 134.695 141.245 131.767C140.882 129.517 140.771 127.267 140.635 125.011C140.506 122.94 140.648 120.887 140.783 118.834C141.023 115.08 141.842 111.437 143.054 107.88C145.147 101.734 148.476 96.3222 152.698 91.4216C155.252 88.4566 158.07 85.806 161.209 83.482C165.849 80.0547 170.933 77.5458 176.527 76.1157C180.257 75.1602 184.042 74.6486 187.9 74.624C190.959 74.6055 194.005 74.7103 197.015 75.2589C199.673 75.7459 202.289 76.4239 204.831 77.3856C210.413 79.4999 215.404 82.5944 219.822 86.6011C221.423 88.0497 222.875 89.6709 224.389 91.2182C224.524 91.36 224.641 91.5202 224.752 91.6867C224.943 91.9579 224.961 92.2415 224.734 92.4942C224.149 93.1599 223.558 93.8195 222.961 94.4729C219.909 97.8201 216.862 101.167 213.804 104.508C210.942 107.627 208.068 110.734 205.206 113.86C201.052 118.396 196.904 122.94 192.75 127.483C191.987 128.321 191.23 129.159 190.46 129.985C190.196 130.269 189.888 130.503 189.58 130.78C187.42 129.794 185.475 128.568 183.721 127.045C181.654 125.257 179.998 123.124 178.595 120.788C178.521 120.659 178.447 120.529 178.38 120.4C177.85 119.383 177.875 119.216 178.693 118.329C181.888 114.846 185.088 111.369 188.282 107.886C188.676 107.455 189.039 106.986 189.476 106.462C189.236 106.247 189.057 106.012 188.823 105.883C187.045 104.903 185.174 104.182 183.131 103.991C181.888 103.873 180.651 104.04 179.512 104.502C175.487 106.136 172.785 109.051 171.536 113.218C170.902 115.333 171.019 117.521 171.462 119.666C172.336 123.84 174.515 127.304 177.438 130.337C178.878 131.828 180.398 133.222 182.078 134.436C184.485 136.18 187.057 137.604 189.956 138.35C191.525 138.757 193.119 139.127 194.756 139.01C199.249 138.689 202.738 136.698 204.929 132.691C205.938 130.848 206.271 128.796 206.332 126.7C206.351 126.059 206.326 125.418 206.357 124.776C206.382 124.296 206.665 124.049 207.132 124.105C209.477 124.413 211.847 124.283 214.197 124.419C214.979 124.462 215.761 124.555 216.548 124.592C219.349 124.715 222.143 124.813 224.943 124.937C227.595 125.06 230.242 125.208 232.894 125.344C233.03 125.356 233.177 125.325 233.46 125.3ZM281.205 137.629C282.128 137.518 283.058 137.456 283.975 137.284C287.587 136.6 290.406 134.639 292.474 131.65C294.88 128.179 295.2 124.345 294.086 120.369C293.249 117.367 291.421 115.018 288.88 113.249C287.624 112.374 286.221 111.801 284.701 111.492C282.694 111.086 280.713 111.129 278.707 111.499C275.002 112.183 272.214 114.125 270.257 117.33C269.531 118.52 269.038 119.79 268.589 121.096C268.361 121.762 268.306 123.741 268.349 124.431C268.527 127.261 269.112 128.678 270.38 131.218C271.758 133.974 273.863 135.958 276.848 136.889C278.251 137.339 279.697 137.629 281.205 137.629Z" fill="white"/>
<path d="M295.951 224.533C295.951 217.882 295.945 211.23 295.963 204.585C295.963 203.753 296.018 202.903 296.203 202.095C296.585 200.418 297.674 199.333 299.329 198.902C300.037 198.717 300.782 198.618 301.514 198.618C305.447 198.594 309.386 198.52 313.318 198.637C315.811 198.711 318.328 198.779 320.765 199.494C323.627 200.332 326.094 201.737 327.861 204.228C328.722 205.448 329.307 206.798 329.676 208.235C330.058 209.72 330.181 211.243 330.15 212.772C330.076 216.378 328.692 219.355 325.91 221.66C325.682 221.851 325.436 222.012 325.214 222.203C325.005 222.375 325.024 222.696 325.257 222.832C325.811 223.146 326.384 223.43 326.931 223.756C328.987 224.971 330.482 226.684 331.412 228.891C331.972 230.223 332.243 231.628 332.347 233.052C332.532 235.567 332.415 238.064 331.689 240.511C330.458 244.653 327.83 247.52 323.848 249.147C321.356 250.164 318.74 250.577 316.069 250.595C311.004 250.626 305.939 250.602 300.874 250.608C298.997 250.608 297.526 249.887 296.591 248.235C296.074 247.316 295.938 246.287 295.938 245.239C295.938 238.341 295.938 231.449 295.938 224.551C295.938 224.533 295.945 224.533 295.951 224.533ZM304.911 234.846C304.911 236.812 304.911 238.779 304.911 240.745C304.911 241.09 304.874 241.448 304.954 241.774C305.004 241.972 305.219 242.181 305.416 242.268C305.625 242.36 305.896 242.335 306.142 242.335C309.478 242.342 312.82 242.342 316.155 242.335C317.14 242.335 318.094 242.169 319.035 241.83C320.549 241.294 321.719 240.406 322.365 238.92C323.43 236.473 323.565 233.977 322.55 231.48C321.78 229.588 320.383 228.379 318.414 227.8C317.355 227.492 316.285 227.455 315.208 227.449C312.309 227.43 309.416 227.442 306.518 227.442C306.173 227.442 305.828 227.442 305.49 227.479C305.164 227.516 304.955 227.726 304.93 228.065C304.905 228.41 304.911 228.755 304.911 229.095C304.911 231.005 304.911 232.923 304.911 234.846ZM304.911 213.209C304.911 215.028 304.899 216.852 304.918 218.671C304.924 219.743 305.047 219.848 306.099 219.879C306.198 219.879 306.296 219.879 306.395 219.879C308.899 219.879 311.404 219.91 313.909 219.867C314.838 219.848 315.786 219.774 316.678 219.546C318.371 219.115 319.663 218.134 320.396 216.476C321.183 214.689 321.183 212.852 320.728 211.009C320.519 210.152 320.076 209.381 319.442 208.722C318.205 207.439 316.672 206.891 314.937 206.878C312.038 206.854 309.139 206.872 306.241 206.872C305.995 206.872 305.748 206.872 305.502 206.903C305.176 206.94 304.955 207.125 304.93 207.464C304.905 207.809 304.905 208.154 304.905 208.494C304.911 210.059 304.911 211.631 304.911 213.209Z" fill="white"/>
<path d="M108.067 246.989C107.027 245.917 105.919 245.011 105.39 243.624C104.842 242.194 104.775 240.751 105.076 239.278C105.372 237.823 106.264 236.707 107.304 235.647C107.163 235.364 107.046 235.098 106.898 234.852C105.661 232.781 104.984 230.562 105.046 228.121C105.082 226.69 105.107 225.279 105.47 223.873C106.233 220.921 107.833 218.597 110.381 216.939C112.221 215.743 114.258 215.052 116.431 214.744C118.782 214.411 121.139 214.325 123.484 214.713C124.548 214.892 125.607 215.139 126.629 215.465C127.182 215.644 127.558 215.601 127.939 215.182C128.715 214.337 129.626 213.696 130.666 213.197C132.167 212.469 133.724 212.161 135.38 212.248C137.454 212.358 138.98 214.282 138.611 216.341C138.309 218.023 137.097 219.121 135.368 219.219C134.574 219.262 133.804 219.299 133.109 219.928C133.226 220.181 133.318 220.452 133.466 220.686C135.066 223.331 135.417 226.216 135.128 229.23C134.9 231.585 134.204 233.755 132.764 235.653C131.515 237.293 129.94 238.52 128.05 239.339C125.859 240.289 123.564 240.763 121.176 240.837C118.603 240.918 116.062 240.763 113.618 239.882C112.923 239.635 112.517 240.055 112.406 240.56C112.129 241.818 112.64 242.767 113.865 243.26C114.646 243.574 115.459 243.728 116.314 243.722C118.53 243.704 120.739 243.722 122.954 243.716C124.776 243.71 126.585 243.796 128.389 244.098C130.05 244.376 131.638 244.832 133.14 245.602C136.211 247.174 137.842 249.695 138.125 253.098C138.205 254.072 138.18 255.077 138.057 256.045C137.657 259.275 135.792 261.556 133.127 263.208C131.324 264.323 129.324 264.983 127.226 265.402C123.521 266.148 119.797 266.111 116.08 265.686C113.428 265.384 110.874 264.668 108.56 263.263C106.646 262.104 105.23 260.508 104.485 258.369C103.045 254.245 104.11 250.084 107.409 247.618C107.636 247.464 107.815 247.236 108.067 246.989ZM120.948 250.602V250.595C119.773 250.595 118.591 250.571 117.416 250.602C115.828 250.639 114.498 251.274 113.317 252.334C111.932 253.573 111.871 256.396 113.908 257.499C114.252 257.684 114.597 257.869 114.96 258.017C116.289 258.56 117.693 258.763 119.12 258.862C121.188 259.01 123.231 258.942 125.256 258.461C126.364 258.196 127.379 257.765 128.327 257.111C130.198 255.829 130.21 252.605 127.859 251.508C126.684 250.959 125.472 250.632 124.179 250.602C123.108 250.577 122.031 250.602 120.948 250.602ZM120.062 221.611C117.139 221.537 113.951 223.947 114.018 227.763C114.086 231.363 116.849 233.779 120.105 233.73C123.601 233.681 126.056 231.166 126.142 227.72C126.235 224.095 123.022 221.5 120.062 221.611Z" fill="white"/>
<path d="M28.0124 224.558C28.0124 217.66 28.0124 210.756 28.0124 203.858C28.0124 202.964 28.0555 202.107 28.5232 201.287C29.2433 200.018 30.2218 199.124 31.6681 198.84C32.3389 198.711 33.0282 198.612 33.7113 198.612C40.9425 198.594 48.18 198.606 55.4112 198.6C57.0114 198.6 58.2668 199.179 59.1469 200.542C60.7839 203.075 59.19 205.991 56.9744 206.7C56.4759 206.86 55.9097 206.854 55.3743 206.854C50.0078 206.866 44.6474 206.86 39.2809 206.86C36.8869 206.86 37.1454 206.718 37.1392 209.011C37.133 212.118 37.1392 215.219 37.1392 218.326C37.1392 218.572 37.133 218.819 37.1392 219.065C37.1577 220.446 37.2069 220.502 38.5301 220.514C39.2686 220.52 40.0071 220.514 40.7456 220.514C43.6504 220.514 46.5491 220.52 49.4539 220.508C50.2416 220.508 51.0232 220.452 51.811 220.421C53.4911 220.36 55.0543 221.254 55.6697 222.634C56.8821 225.371 55.1405 228.355 52.2418 228.379C47.8107 228.423 43.3858 228.392 38.9547 228.392C38.5116 228.392 38.0685 228.392 37.6254 228.423C37.2992 228.447 37.0838 228.644 37.0407 228.977C37.01 229.218 37.0161 229.471 37.0161 229.717C37.0161 233.465 37.01 237.207 37.0161 240.955C37.0161 242.255 37.0715 242.323 38.3147 242.323C44.5613 242.329 50.814 242.329 57.0606 242.323C57.4545 242.323 57.8483 242.255 58.2361 242.268C59.9285 242.329 61.2763 242.983 62.0579 244.573C62.8333 246.151 62.624 247.661 61.6024 249.024C60.827 250.053 59.7131 250.577 58.4022 250.583C57.516 250.589 56.6298 250.522 55.7497 250.522C48.2723 250.515 40.7887 250.509 33.3112 250.528C32.4127 250.528 31.545 250.448 30.7203 250.072C29.0402 249.307 28.2401 247.914 28.0124 246.145C27.9632 245.757 28.0001 245.356 28.0001 244.961C28.0124 238.156 28.0124 231.357 28.0124 224.558Z" fill="white"/>
<path d="M383.729 217.037C385.003 216.402 386.154 215.743 387.366 215.231C389.127 214.491 391.004 214.411 392.881 214.498C394.801 214.584 396.678 214.904 398.487 215.632C401.404 216.809 403.546 218.825 405.029 221.549C406.192 223.688 406.826 226.006 407.159 228.423C407.479 230.728 407.479 233.046 407.374 235.351C407.251 238.02 406.759 240.628 405.657 243.094C403.626 247.63 400.106 250.232 395.275 251.15C393.231 251.539 391.176 251.656 389.108 251.471C385.92 251.181 382.948 250.3 380.351 248.327C378.449 246.878 377.156 244.998 376.283 242.816C375.501 240.874 375.175 238.853 375.175 236.757C375.193 224.681 375.187 212.605 375.187 200.529C375.187 200.184 375.193 199.839 375.187 199.494C375.175 198.551 375.575 197.774 376.178 197.096C377.267 195.869 379.107 195.394 380.609 195.937C382.4 196.578 383.483 197.977 383.502 199.796C383.532 202.755 383.508 205.707 383.508 208.666C383.508 211.083 383.502 213.499 383.514 215.909C383.52 216.285 383.385 216.698 383.729 217.037ZM383.508 231.733C383.508 233.41 383.514 235.086 383.502 236.757C383.495 237.755 383.662 238.723 384.018 239.648C384.862 241.848 386.357 243.414 388.653 244.043C390.284 244.487 391.958 244.468 393.601 243.944C394.856 243.544 395.872 242.829 396.715 241.805C397.884 240.387 398.45 238.717 398.758 236.96C399.22 234.371 399.213 231.757 398.752 229.168C398.487 227.664 398.013 226.203 397.164 224.909C395.619 222.56 393.373 221.463 390.628 221.685C388.216 221.876 386.105 222.912 384.326 224.613C383.748 225.168 383.471 225.747 383.489 226.555C383.538 228.281 383.508 230.007 383.508 231.733Z" fill="white"/>
<path d="M359.414 247.655C359.18 247.883 358.989 248.031 358.841 248.21C357.617 249.732 355.973 250.608 354.127 251.058C351.315 251.748 348.465 251.804 345.653 251.082C341.892 250.115 339.135 247.933 337.732 244.228C337.314 243.124 337.031 241.972 337.037 240.77C337.049 239.444 337 238.125 337.394 236.812C338.188 234.174 339.782 232.207 342.145 230.845C344.366 229.569 346.779 228.977 349.339 228.977C352.244 228.977 355.149 228.984 358.047 228.971C359.488 228.965 359.561 228.903 359.488 227.473C359.352 225.032 357.992 223.319 355.893 222.536C353.413 221.611 350.964 221.895 348.545 222.782C347.333 223.226 346.268 223.923 345.216 224.662C344.742 224.995 344.225 225.334 343.677 225.495C341.862 226.019 340.36 225.131 339.634 224.077C338.649 222.641 338.698 220.884 339.837 219.558C340.409 218.893 341.074 218.282 341.782 217.752C344.102 216.002 346.699 214.855 349.61 214.578C351.075 214.442 352.564 214.43 354.029 214.504C356.146 214.615 358.238 214.91 360.226 215.712C363.549 217.05 365.974 219.287 367.131 222.733C367.47 223.75 367.667 224.835 367.79 225.901C367.913 226.974 367.888 228.065 367.894 229.15C367.9 234.673 367.9 240.19 367.894 245.713C367.894 246.256 367.876 246.798 367.839 247.335C367.691 249.511 365.993 250.805 364.602 251.089C362.528 251.514 360.614 250.361 359.943 248.789C359.801 248.438 359.623 248.093 359.414 247.655ZM355.007 235.592C354.761 235.585 354.515 235.592 354.269 235.585C352.595 235.536 350.927 235.616 349.265 235.801C346.41 236.122 344.797 238.668 345.702 241.374C346.225 242.927 347.382 243.753 348.859 244.197C349.942 244.524 351.068 244.665 352.207 244.635C355.032 244.548 357.192 243.334 358.614 240.856C359.371 239.531 359.598 238.088 359.5 236.584C359.451 235.795 359.309 235.61 358.546 235.592C357.364 235.573 356.189 235.592 355.007 235.592Z" fill="white"/>
<path d="M215.373 235.925C212.37 235.925 209.372 235.918 206.369 235.925C205.095 235.931 204.96 236.054 205.095 237.262C205.409 240.042 206.868 242.052 209.391 243.174C211.446 244.086 213.625 244.314 215.884 243.913C217.958 243.55 219.841 242.792 221.57 241.608C222.647 240.868 223.804 240.653 225.072 241.022C227.294 241.676 228.469 244.431 226.949 246.669C226.727 246.989 226.463 247.298 226.161 247.544C224.001 249.319 221.57 250.54 218.832 251.169C216.702 251.656 214.567 251.717 212.388 251.594C210.456 251.483 208.578 251.2 206.757 250.583C202.917 249.282 200.166 246.767 198.467 243.094C197.292 240.554 196.781 237.854 196.664 235.08C196.584 233.163 196.578 231.246 196.787 229.329C197.175 225.84 198.227 222.604 200.43 219.811C201.932 217.913 203.864 216.6 206.098 215.706C209.089 214.504 212.21 214.325 215.379 214.571C217.305 214.719 219.152 215.169 220.906 216.008C224.149 217.555 226.284 220.082 227.509 223.405C228.438 225.926 228.789 228.558 228.629 231.24C228.586 232.016 228.42 232.805 228.192 233.551C227.78 234.914 226.764 235.629 225.392 235.838C224.912 235.912 224.413 235.912 223.921 235.912C221.078 235.931 218.228 235.925 215.373 235.925ZM212.653 228.984C214.714 228.984 216.782 228.984 218.844 228.984C219.188 228.984 219.539 228.99 219.872 228.922C220.025 228.891 220.198 228.694 220.247 228.54C220.315 228.312 220.315 228.047 220.278 227.812C219.896 225.106 218.45 223.171 215.933 222.141C213.994 221.346 211.988 221.383 210.037 222.147C207.212 223.257 205.741 225.445 205.218 228.361C205.163 228.663 205.391 228.934 205.723 228.959C206.117 228.99 206.511 228.99 206.898 228.996C208.819 228.99 210.732 228.984 212.653 228.984Z" fill="white"/>
<path d="M251.48 235.925C248.532 235.925 245.578 235.937 242.63 235.918C241.486 235.912 241.049 235.962 241.27 237.589C241.695 240.671 244.298 243.149 247.388 243.796C251.019 244.555 254.299 243.778 257.364 241.824C258.158 241.318 258.958 240.874 259.942 240.856C262.139 240.813 263.672 242.305 263.696 244.505C263.709 245.775 263.259 246.804 262.275 247.606C260.225 249.276 257.918 250.441 255.357 251.095C253.197 251.65 251.006 251.791 248.778 251.613C247.554 251.514 246.335 251.44 245.129 251.175C242.895 250.688 240.815 249.868 238.962 248.493C236.975 247.02 235.578 245.097 234.587 242.847C233.731 240.893 233.251 238.846 233.03 236.726C232.734 233.921 232.722 231.116 233.134 228.33C233.688 224.595 235.03 221.21 237.812 218.535C239.516 216.902 241.535 215.835 243.793 215.194C246.981 214.294 250.225 214.232 253.431 214.849C258.767 215.872 262.287 219.047 263.93 224.268C264.712 226.746 264.86 229.292 264.687 231.856C264.632 232.682 264.46 233.502 264.004 234.242C263.419 235.191 262.595 235.733 261.506 235.863C261.019 235.925 260.527 235.925 260.035 235.925C257.185 235.931 254.336 235.925 251.48 235.925ZM248.938 228.984C250.859 228.984 252.773 228.984 254.693 228.984C255.037 228.984 255.382 228.99 255.727 228.971C256.361 228.934 256.551 228.743 256.49 228.164C256.256 226.006 255.382 224.175 253.56 222.93C249.96 220.458 244.39 221.365 242.163 225.766C241.738 226.598 241.387 227.473 241.424 228.441C241.436 228.706 241.572 228.916 241.861 228.94C242.206 228.971 242.544 228.984 242.889 228.984C244.907 228.99 246.926 228.984 248.938 228.984Z" fill="white"/>
<path d="M67.5474 233.157C67.5474 228.817 67.5413 224.484 67.5597 220.144C67.5597 219.46 67.6336 218.769 67.7751 218.097C68.1506 216.291 69.5907 215.095 71.4123 215.003C72.1016 214.966 72.7909 214.997 73.4494 215.25C74.3602 215.601 75.0372 216.223 75.4803 217.093C75.6342 217.401 75.7265 217.734 75.8619 218.054C76.0034 218.387 76.305 218.449 76.5635 218.221C77.105 217.728 77.622 217.191 78.2005 216.747C80.176 215.225 82.4346 214.51 84.9271 214.491C86.3057 214.485 87.6781 214.528 89.0443 214.732C91.7707 215.145 94.097 216.285 95.8879 218.43C97.1495 219.947 97.8018 221.734 98.208 223.633C98.5281 225.131 98.6081 226.653 98.6019 228.188C98.5773 234.297 98.5957 240.412 98.5834 246.527C98.5834 247.113 98.5834 247.723 98.4234 248.278C97.9065 250.065 96.4479 251.311 94.1831 251.23C92.4907 251.175 91.3152 250.361 90.589 248.839C90.3182 248.272 90.349 247.692 90.349 247.1C90.349 242.563 90.3552 238.033 90.3429 233.496C90.3367 231.819 90.3429 230.142 90.2444 228.472C90.1952 227.597 90.0413 226.697 89.7397 225.877C89.0997 224.114 87.875 222.93 85.9979 222.431C83.9178 221.882 81.8869 221.999 79.9237 222.77C77.6343 223.664 76.5758 225.562 76.1634 227.868C76.0403 228.54 76.0588 229.242 76.0588 229.933C76.0526 235.407 76.0588 240.874 76.0465 246.348C76.0465 246.934 75.9788 247.526 75.868 248.105C75.5665 249.665 74.0217 251.378 71.6339 251.317C69.7137 251.274 68.1321 249.899 67.7136 247.92C67.5905 247.347 67.5597 246.749 67.5536 246.163C67.5413 241.836 67.5474 237.496 67.5474 233.157Z" fill="white"/>
<path d="M168.527 218.621C168.958 218.208 169.315 217.888 169.647 217.555C171.666 215.552 174.115 214.584 176.934 214.497C178.509 214.454 180.078 214.497 181.636 214.763C183.106 215.015 184.491 215.502 185.765 216.267C188.276 217.777 189.63 220.095 190.387 222.856C190.941 224.884 190.953 226.949 190.965 229.014C190.996 234.729 190.984 240.443 190.972 246.157C190.972 247.137 190.984 248.117 190.479 249.03C189.784 250.281 188.805 251.058 187.347 251.175C186.454 251.249 185.574 251.267 184.762 250.824C183.34 250.035 182.651 248.814 182.651 247.199C182.651 244.93 182.651 242.668 182.651 240.4C182.651 236.855 182.663 233.305 182.645 229.76C182.639 228.879 182.602 227.979 182.436 227.116C181.943 224.558 180.485 222.85 177.869 222.314C175.844 221.901 173.863 222.049 171.961 222.943C170.349 223.701 169.339 224.989 168.816 226.653C168.428 227.88 168.305 229.156 168.305 230.444C168.318 235.912 168.305 241.38 168.318 246.848C168.318 247.649 168.231 248.407 167.844 249.128C167.087 250.546 165.37 251.495 163.8 251.323C161.991 251.126 160.452 249.868 160.059 248.228C159.979 247.902 159.985 247.544 159.985 247.199C159.979 237.842 160.022 228.478 159.948 219.121C159.936 217.438 161.351 215.428 162.994 215.083C165.142 214.633 167.031 215.447 167.948 217.327C168.139 217.715 168.299 218.11 168.527 218.621Z" fill="white"/>
<path d="M442.73 228.885C442.73 231.745 442.73 234.599 442.73 237.459C442.73 239.29 442.515 241.09 442.01 242.853C440.878 246.823 438.299 249.363 434.416 250.614C431.616 251.52 428.729 251.68 425.812 251.514C423.695 251.391 421.633 251.015 419.639 250.219C416.125 248.814 414.039 246.2 412.993 242.637C412.488 240.918 412.34 239.148 412.328 237.379C412.304 231.517 412.322 225.655 412.316 219.793C412.316 218.745 412.414 217.734 413.005 216.821C413.694 215.761 414.655 215.151 415.904 215.028C417.652 214.855 419.122 215.348 420.089 216.914C420.538 217.641 420.686 218.467 420.753 219.306C420.784 219.651 420.76 219.996 420.76 220.341C420.76 225.858 420.76 231.375 420.76 236.892C420.76 237.977 420.809 239.044 421.166 240.098C421.892 242.249 423.467 243.383 425.597 243.71C426.797 243.895 428.065 243.883 429.271 243.735C432.428 243.359 433.899 241.226 434.157 238.84C434.262 237.916 434.317 236.972 434.317 236.042C434.33 230.574 434.33 225.106 434.317 219.639C434.317 218.739 434.397 217.869 434.847 217.068C435.758 215.459 437.579 214.633 439.364 215.015C441.259 215.422 442.558 216.902 442.7 218.837C442.724 219.182 442.712 219.528 442.712 219.873C442.73 222.875 442.73 225.877 442.73 228.885Z" fill="white"/>
<path d="M233.664 72.3986C233.424 71.5788 233.621 71.0055 233.713 70.4384C234.15 67.572 234.605 64.7056 235.067 61.8392C235.492 59.2194 235.935 56.5996 236.365 53.9798C236.55 52.8641 236.692 51.7422 236.882 50.6264C236.969 50.1518 236.852 49.7758 236.599 49.3813C235.621 47.8463 234.673 46.2929 233.707 44.7519C231.99 41.9965 230.267 39.2472 228.543 36.4979C228.285 36.0911 227.928 35.7212 228.02 35.0801C228.445 35.0555 228.876 35.0123 229.306 35.0123C235.159 35.0062 241.006 34.9938 246.858 35.0123C253.296 35.0308 259.733 35.074 266.171 35.1048C266.367 35.1048 266.564 35.0925 266.761 35.111C267.081 35.1418 267.518 34.9753 267.654 35.4068C267.777 35.789 267.426 36.0233 267.198 36.2698C265.998 37.5705 264.792 38.865 263.592 40.1657C260.626 43.3834 257.671 46.6073 254.699 49.8189C251.893 52.8517 249.068 55.8599 246.268 58.8927C243.566 61.8146 240.883 64.7611 238.187 67.6891C236.919 69.0638 235.639 70.4261 234.359 71.7884C234.199 71.9548 234.008 72.0966 233.664 72.3986Z" fill="white"/>
<path d="M278.922 218.782C279.494 218.184 279.882 217.746 280.301 217.333C282.221 215.447 284.51 214.498 287.218 214.621C289.372 214.719 290.837 216.279 290.966 218.387C291.089 220.323 289.446 222.345 287.341 222.493C286.947 222.517 286.553 222.499 286.159 222.505C282.861 222.567 279.999 225.057 279.131 227.886C278.854 228.792 278.719 229.692 278.725 230.642C278.744 235.758 278.731 240.881 278.731 245.997C278.731 246.342 278.713 246.687 278.737 247.033C278.873 249.116 276.996 251.076 274.786 251.175C272.842 251.261 270.706 249.924 270.411 247.452C270.355 247.014 270.343 246.57 270.343 246.126C270.337 237.466 270.337 228.799 270.349 220.138C270.349 219.454 270.355 218.745 270.521 218.085C271.02 216.143 272.614 215.095 274.054 215.003C276.029 214.886 277.451 215.515 278.405 217.37C278.608 217.746 278.707 218.171 278.922 218.782Z" fill="white"/>
<path d="M143.922 232.953C143.922 228.429 143.922 223.898 143.922 219.373C143.922 218.782 143.965 218.215 144.143 217.635C144.777 215.558 147.214 214.664 148.55 214.867C150.667 215.188 152.156 216.784 152.249 218.831C152.261 219.078 152.249 219.324 152.249 219.571C152.249 228.478 152.249 237.385 152.249 246.293C152.249 246.638 152.236 246.983 152.242 247.328C152.249 249.264 150.236 251.113 148.279 251.156C146.525 251.193 144.66 250.17 144.113 248.296C143.965 247.791 143.934 247.23 143.934 246.7C143.916 242.107 143.922 237.527 143.922 232.953Z" fill="white"/>
<path d="M459.605 199.617C465.963 199.463 471.932 204.579 471.994 211.939C472.055 218.862 466.56 224.44 459.599 224.465C452.583 224.484 447.124 218.831 447.137 212.013C447.155 204.918 452.934 199.438 459.605 199.617ZM459.655 200.893C453.95 200.542 448.349 205.547 448.374 212.032C448.398 218.788 454.196 223.22 459.544 223.214C464.535 223.208 470.486 219.392 470.818 212.069C470.517 204.616 464.504 200.609 459.655 200.893Z" fill="white"/>
<path d="M148.279 200.893C148.574 200.893 148.87 200.881 149.159 200.893C151.35 201.004 153.092 202.804 153.129 205.023C153.147 206.003 153.135 206.959 152.753 207.914C152.107 209.541 150.23 211.15 147.854 210.984C145.479 210.817 143.762 209.326 143.251 207.125C142.974 205.929 143.097 204.758 143.448 203.642C143.934 202.107 145.073 201.226 146.66 200.979C147.19 200.899 147.737 200.905 148.273 200.874C148.279 200.874 148.279 200.881 148.279 200.893Z" fill="white"/>
<path d="M462.603 214.269C463.304 215.33 463.926 216.267 464.547 217.21C464.707 217.456 464.867 217.703 465.009 217.962C465.138 218.202 465.003 218.523 464.757 218.535C464.215 218.56 463.674 218.603 463.144 218.535C462.898 218.504 462.615 218.27 462.461 218.054C462.067 217.493 461.729 216.889 461.372 216.304C461.169 215.971 460.941 215.644 460.75 215.299C460.535 214.91 460.227 214.744 459.79 214.75C459.002 214.769 458.215 214.75 457.433 214.775C456.996 214.787 456.799 214.991 456.787 215.41C456.768 215.952 456.781 216.495 456.775 217.037C456.775 217.333 456.781 217.629 456.756 217.925C456.719 218.356 456.522 218.554 456.122 218.591C455.925 218.603 455.728 218.603 455.531 218.597C454.848 218.572 454.676 218.412 454.657 217.697C454.633 216.71 454.645 215.724 454.645 214.744C454.645 212.229 454.645 209.72 454.645 207.205C454.645 206.811 454.651 206.416 454.688 206.028C454.713 205.763 454.885 205.535 455.156 205.535C457.556 205.535 459.981 205.171 462.332 205.941C463.513 206.33 464.443 207.088 464.8 208.296C465.384 210.269 465.212 212.408 463.304 213.721C463.095 213.85 462.923 214.017 462.603 214.269ZM456.768 210.145C456.768 210.145 456.775 210.145 456.768 210.145C456.775 210.737 456.756 211.329 456.781 211.915C456.805 212.445 456.99 212.648 457.495 212.667C458.375 212.691 459.267 212.716 460.141 212.648C460.621 212.611 461.095 212.426 461.556 212.26C462.086 212.063 462.424 211.662 462.677 211.15C463.255 209.961 462.695 207.97 460.923 207.791C459.802 207.68 458.67 207.667 457.544 207.655C457.002 207.649 456.799 207.908 456.775 208.518C456.75 209.061 456.768 209.603 456.768 210.145Z" fill="white"/>
</g>
<defs>
<clipPath id="clip0">
<rect width="444" height="231" fill="white" transform="translate(28 35)"/>
</clipPath>
</defs>
</svg>
