<svg width="500" height="300" viewBox="0 0 500 300" fill="none" xmlns="http://www.w3.org/2000/svg">
<path d="M133.12 186.581L125.318 196.566C123.612 198.748 120.997 200.024 118.227 200.024L88.7264 200.023C103.525 193.776 118.322 184.741 133.12 186.581ZM149.94 160.129L149.988 160.414C150.36 162.855 149.714 165.353 148.182 167.312L137.464 181.024C116.995 175.351 96.5244 193.062 76.054 197.955C75.5593 197.546 75.1059 197.081 74.7033 196.566L53.0899 168.918C85.373 185.869 117.657 135.598 149.94 160.129ZM141.211 121.701L141.236 121.765C141.424 122.225 141.575 122.704 141.685 123.197L148.233 152.465C115.488 130.215 82.7439 182.357 50 160.666C50.0342 160.375 50.0837 160.089 50.1472 159.805L55.383 136.402C83.9919 150.008 112.601 112.153 141.211 121.701ZM103.98 100.922L130.072 113.74C105.611 114.67 81.1512 140.866 56.6912 130.554L58.3364 123.197C58.9318 120.535 60.7023 118.287 63.1503 117.084L96.0416 100.922C98.5447 99.6925 101.477 99.6925 103.98 100.922Z" fill="white"/>
<path d="M171.556 172.83C171.133 172.83 170.773 172.68 170.477 172.379C170.181 172.078 170.032 171.712 170.032 171.282V128.572C170.032 128.099 170.181 127.723 170.477 127.443C170.773 127.164 171.133 127.024 171.556 127.024H177.334C177.799 127.024 178.169 127.164 178.445 127.443C178.72 127.723 178.857 128.099 178.857 128.572V143.282C181.397 140.185 184.804 138.637 189.079 138.637C192.973 138.637 196.083 139.938 198.411 142.54C200.739 145.142 201.903 148.68 201.903 153.153V171.282C201.903 171.712 201.766 172.078 201.49 172.379C201.215 172.68 200.845 172.83 200.379 172.83H194.602C194.136 172.83 193.756 172.68 193.459 172.379C193.163 172.078 193.015 171.712 193.015 171.282V153.54C193.015 151.045 192.412 149.099 191.205 147.701C189.999 146.303 188.274 145.605 186.031 145.605C183.873 145.605 182.137 146.314 180.825 147.734C179.513 149.153 178.857 151.088 178.857 153.54V171.282C178.857 171.712 178.72 172.078 178.445 172.379C178.169 172.68 177.799 172.83 177.334 172.83H171.556ZM223.192 173.476C218.452 173.476 214.696 172.099 211.923 169.347C209.151 166.594 207.68 162.68 207.511 157.605L207.448 155.992C207.448 150.615 208.834 146.379 211.606 143.282C214.378 140.185 218.219 138.637 223.129 138.637C228.166 138.637 232.049 140.185 234.779 143.282C237.509 146.379 238.874 150.508 238.874 155.669V157.024C238.874 157.454 238.726 157.82 238.429 158.121C238.133 158.422 237.752 158.572 237.287 158.572H216.209V159.088C216.294 161.497 216.939 163.486 218.145 165.056C219.351 166.626 221.013 167.411 223.129 167.411C225.542 167.411 227.51 166.422 229.033 164.443C229.414 163.97 229.71 163.68 229.922 163.572C230.134 163.465 230.494 163.411 231.001 163.411H236.588C236.969 163.411 237.297 163.519 237.572 163.734C237.847 163.949 237.985 164.25 237.985 164.637C237.985 165.669 237.382 166.884 236.176 168.282C234.969 169.68 233.245 170.895 231.001 171.927C228.758 172.959 226.155 173.476 223.192 173.476ZM230.113 153.088V152.959C230.113 150.422 229.488 148.39 228.24 146.863C226.991 145.336 225.288 144.572 223.129 144.572C220.97 144.572 219.277 145.336 218.05 146.863C216.823 148.39 216.209 150.422 216.209 152.959V153.088H230.113ZM246.133 185.088C245.709 185.088 245.35 184.949 245.053 184.669C244.757 184.39 244.609 184.013 244.609 183.54V140.83C244.609 140.357 244.757 139.981 245.053 139.701C245.35 139.422 245.709 139.282 246.133 139.282H251.212C251.677 139.282 252.058 139.433 252.354 139.734C252.651 140.035 252.799 140.4 252.799 140.83V143.411C255.042 140.228 258.407 138.637 262.893 138.637C267.168 138.637 270.448 140.002 272.734 142.734C275.019 145.465 276.247 149.131 276.416 153.734C276.458 154.25 276.479 155.024 276.479 156.056C276.479 157.088 276.458 157.863 276.416 158.379C276.289 162.895 275.072 166.54 272.765 169.314C270.459 172.088 267.168 173.476 262.893 173.476C258.661 173.476 255.423 171.949 253.18 168.895V183.54C253.18 184.013 253.042 184.39 252.767 184.669C252.492 184.949 252.122 185.088 251.656 185.088H246.133ZM260.481 166.508C265.009 166.508 267.422 163.669 267.718 157.992C267.761 157.562 267.782 156.916 267.782 156.056C267.782 155.196 267.761 154.551 267.718 154.121C267.422 148.443 265.009 145.605 260.481 145.605C258.068 145.605 256.269 146.4 255.084 147.992C253.899 149.583 253.264 151.519 253.18 153.798C253.137 154.314 253.116 155.131 253.116 156.25C253.116 157.368 253.137 158.207 253.18 158.766C253.264 160.916 253.92 162.744 255.148 164.25C256.375 165.755 258.153 166.508 260.481 166.508ZM297.197 172.83C293.346 172.83 290.447 171.809 288.5 169.766C286.553 167.723 285.579 164.723 285.579 160.766V146.185H280.564C280.141 146.185 279.781 146.035 279.485 145.734C279.188 145.433 279.04 145.067 279.04 144.637V140.83C279.04 140.4 279.188 140.035 279.485 139.734C279.781 139.433 280.141 139.282 280.564 139.282H285.579V128.572C285.579 128.099 285.727 127.723 286.024 127.443C286.32 127.164 286.68 127.024 287.103 127.024H292.372C292.838 127.024 293.208 127.164 293.483 127.443C293.759 127.723 293.896 128.099 293.896 128.572V139.282H301.832C302.255 139.282 302.615 139.433 302.911 139.734C303.208 140.035 303.356 140.4 303.356 140.83V144.637C303.356 145.067 303.208 145.433 302.911 145.734C302.615 146.035 302.255 146.185 301.832 146.185H293.896V160.056C293.896 161.906 294.214 163.303 294.848 164.25C295.483 165.196 296.52 165.669 297.959 165.669H302.403C302.869 165.669 303.239 165.809 303.514 166.088C303.79 166.368 303.927 166.744 303.927 167.217V171.282C303.927 171.712 303.79 172.078 303.514 172.379C303.239 172.68 302.869 172.83 302.403 172.83H297.197ZM318.106 173.476C315.947 173.476 313.969 173.035 312.17 172.153C310.371 171.271 308.953 170.078 307.916 168.572C306.879 167.067 306.361 165.411 306.361 163.605C306.361 160.68 307.525 158.314 309.853 156.508C312.18 154.701 315.376 153.476 319.439 152.83L328.137 151.54V150.185C328.137 148.336 327.671 146.938 326.74 145.992C325.809 145.045 324.328 144.572 322.296 144.572C320.899 144.572 319.778 144.83 318.931 145.347C318.085 145.863 317.397 146.39 316.868 146.927L315.82 147.992C315.651 148.508 315.334 148.766 314.868 148.766H309.916C309.535 148.766 309.207 148.637 308.932 148.379C308.657 148.121 308.519 147.777 308.519 147.347C308.562 146.271 309.08 145.056 310.075 143.701C311.069 142.346 312.604 141.164 314.678 140.153C316.752 139.142 319.312 138.637 322.36 138.637C327.354 138.637 330.994 139.777 333.279 142.056C335.565 144.336 336.708 147.325 336.708 151.024V171.282C336.708 171.712 336.57 172.078 336.295 172.379C336.02 172.68 335.65 172.83 335.184 172.83H329.915C329.491 172.83 329.132 172.68 328.835 172.379C328.539 172.078 328.391 171.712 328.391 171.282V168.766C327.46 170.142 326.148 171.271 324.455 172.153C322.762 173.035 320.645 173.476 318.106 173.476ZM320.264 167.282C322.592 167.282 324.497 166.508 325.978 164.959C327.46 163.411 328.2 161.174 328.2 158.25V156.959L321.852 157.992C316.984 158.766 314.551 160.422 314.551 162.959C314.551 164.336 315.111 165.4 316.233 166.153C317.355 166.906 318.698 167.282 320.264 167.282ZM358.695 187.024C354.929 187.024 351.881 186.39 349.553 185.121C347.225 183.852 345.575 182.4 344.601 180.766C343.628 179.131 343.141 177.734 343.141 176.572C343.141 176.142 343.289 175.787 343.585 175.508C343.882 175.228 344.242 175.088 344.665 175.088H350.315C350.696 175.088 351.024 175.185 351.299 175.379C351.574 175.572 351.797 175.927 351.966 176.443C352.431 177.562 353.13 178.519 354.061 179.314C354.992 180.11 356.431 180.508 358.378 180.508C360.918 180.508 362.78 179.938 363.965 178.798C365.15 177.658 365.743 175.669 365.743 172.83V168.443C363.457 171.196 360.219 172.572 356.029 172.572C351.627 172.572 348.315 171.217 346.093 168.508C343.871 165.798 342.675 162.099 342.506 157.411L342.443 155.669L342.506 153.927C342.675 149.325 343.882 145.626 346.125 142.83C348.368 140.035 351.67 138.637 356.029 138.637C358.272 138.637 360.24 139.067 361.933 139.927C363.626 140.787 365.023 141.949 366.123 143.411V140.895C366.123 140.422 366.282 140.035 366.6 139.734C366.917 139.433 367.287 139.282 367.711 139.282H372.917C373.34 139.282 373.7 139.433 373.996 139.734C374.292 140.035 374.44 140.422 374.44 140.895L374.504 171.992C374.504 176.766 373.192 180.465 370.568 183.088C367.943 185.712 363.986 187.024 358.695 187.024ZM358.441 165.734C360.812 165.734 362.589 164.959 363.774 163.411C364.96 161.863 365.616 159.97 365.743 157.734C365.785 157.39 365.806 156.701 365.806 155.669C365.806 154.637 365.785 153.949 365.743 153.605C365.616 151.368 364.96 149.476 363.774 147.927C362.589 146.379 360.812 145.605 358.441 145.605C353.87 145.605 351.458 148.443 351.204 154.121L351.14 155.669C351.14 162.379 353.574 165.734 358.441 165.734ZM396.492 173.476C391.497 173.476 387.646 172.185 384.937 169.605C382.228 167.024 380.768 163.454 380.556 158.895L380.493 156.056L380.556 153.217C380.768 148.701 382.249 145.142 385 142.54C387.751 139.938 391.582 138.637 396.492 138.637C401.359 138.637 405.168 139.938 407.919 142.54C410.67 145.142 412.152 148.701 412.363 153.217C412.406 153.734 412.427 154.68 412.427 156.056C412.427 157.433 412.406 158.379 412.363 158.895C412.152 163.454 410.692 167.024 407.983 169.605C405.274 172.185 401.444 173.476 396.492 173.476ZM396.492 166.959C398.735 166.959 400.459 166.25 401.666 164.83C402.872 163.411 403.517 161.325 403.602 158.572C403.644 158.142 403.666 157.304 403.666 156.056C403.666 154.809 403.644 153.97 403.602 153.54C403.517 150.787 402.861 148.691 401.634 147.25C400.407 145.809 398.692 145.088 396.492 145.088C394.248 145.088 392.513 145.809 391.286 147.25C390.058 148.691 389.402 150.787 389.317 153.54L389.254 156.056L389.317 158.572C389.402 161.325 390.058 163.411 391.286 164.83C392.513 166.25 394.248 166.959 396.492 166.959ZM419.94 172.83C419.516 172.83 419.157 172.68 418.86 172.379C418.564 172.078 418.416 171.712 418.416 171.282V140.83C418.416 140.357 418.564 139.981 418.86 139.701C419.157 139.422 419.516 139.282 419.94 139.282H425.209C425.675 139.282 426.045 139.422 426.32 139.701C426.595 139.981 426.733 140.357 426.733 140.83V143.476C429.314 140.25 432.849 138.637 437.335 138.637C441.229 138.637 444.319 139.927 446.604 142.508C448.89 145.088 450.032 148.637 450.032 153.153V171.282C450.032 171.712 449.895 172.078 449.62 172.379C449.345 172.68 448.974 172.83 448.509 172.83H442.795C442.372 172.83 442.012 172.68 441.716 172.379C441.419 172.078 441.271 171.712 441.271 171.282V153.54C441.271 151.045 440.668 149.099 439.462 147.701C438.256 146.303 436.531 145.605 434.288 145.605C432.129 145.605 430.394 146.314 429.082 147.734C427.77 149.153 427.114 151.088 427.114 153.54V171.282C427.114 171.712 426.976 172.078 426.701 172.379C426.426 172.68 426.055 172.83 425.59 172.83H419.94Z" fill="white"/>
</svg>
