<svg width="500" height="300" viewBox="0 0 500 300" fill="none" xmlns="http://www.w3.org/2000/svg">
<g clip-path="url(#clip0)">
<path d="M44.9513 186.184C40.3421 190.308 35.7272 194.438 30.8903 198.766C26.9298 192.455 22.7986 186.512 19.3502 180.207C15.0084 172.269 16.9944 163.635 22.884 157.738C25.8543 154.769 29.4564 152.435 32.6658 149.693C34.0656 148.492 35.3175 147.07 36.4271 145.597C37.9578 143.568 37.8042 141.466 36.3076 139.393C34.2818 136.583 32.3357 133.722 30.1165 130.549C34.7086 126.878 39.3634 123.156 44.2514 119.241C45.3895 120.368 46.4707 121.371 47.4779 122.448C48.8208 123.892 50.1353 125.365 51.4099 126.872C54.2324 130.221 57.9539 129.847 61.0893 127.048C62.9159 125.416 64.7198 123.762 66.5464 122.136C71.4857 117.751 77.3013 115.966 83.8111 116.845C87.7204 117.371 90.9469 119.638 94.1221 121.836C97.0128 123.841 99.454 126.306 101.315 129.297C102.601 131.365 104.934 131.932 106.852 133.036C110.38 135.076 113.68 137.382 116.594 140.203C120.742 144.225 123.251 149.188 123.285 154.899C123.314 159.879 121.664 164.627 118.978 168.921C117.982 170.507 116.889 172.037 115.905 173.629C113.714 177.181 114.898 181 118.568 182.903C121.658 184.507 124.776 186.059 127.838 187.611C127.861 189.866 123.65 199.979 120.446 205.361C117.783 204.12 115.103 202.84 112.394 201.622C108.616 199.928 108.183 199.65 105.133 203.134C103.176 205.367 101.668 208.018 100.171 210.607C98.6687 213.202 97.4112 215.938 96.0739 218.629C92.5402 225.739 85.8767 228.623 78.5702 227.898C76.1177 227.654 73.7334 226.465 71.3833 225.536C68.9364 224.572 66.5749 223.394 64.1621 222.323C61.7665 221.258 59.3651 220.221 56.6736 219.043C58.9782 213.627 62.4835 208.97 64.9702 203.797C66.0457 204.041 67.1894 204.126 68.1796 204.557C70.4216 205.537 72.5555 206.738 74.7804 207.757C77.4151 208.964 79.6002 208.012 80.1806 205.242C80.8976 201.809 82.2861 198.653 84.0672 195.701C85.4101 193.481 86.8839 191.192 88.8073 189.503C91.0777 187.504 93.8945 186.11 96.7909 184.252C96.4324 183.022 95.9146 181.453 95.5276 179.855C95.0383 177.816 94.418 175.85 94.7708 173.629C95.4366 169.403 97.3884 165.697 99.0557 161.868C99.9491 159.811 101.064 157.845 101.867 155.76C102.851 153.211 102.254 151.574 100.165 149.874C95.8065 146.327 91.4533 142.775 87.1571 139.161C84.659 137.059 82.2747 137.013 79.9928 139.353C77.6199 141.784 75.0593 143.971 72.0832 145.631C67.73 148.055 63.0866 149.285 58.0449 149.013C55.6208 148.882 55.5241 149.001 55.2282 151.341C54.5567 156.712 52.5537 161.46 48.377 165.012C45.6797 167.306 42.6809 169.25 39.7958 171.318C38.47 172.269 37.0929 173.159 35.5792 174.184C36.8596 175.748 37.8895 176.949 38.8569 178.195C40.9055 180.835 42.9199 183.515 44.9513 186.184Z" fill="white"/>
<path d="M277.649 176.394C284.449 164.638 290.987 153.335 297.56 141.971C299.21 141.971 300.792 141.971 302.562 141.971C302.562 158.706 302.562 175.408 302.562 192.285C301.059 192.285 299.506 192.285 297.674 192.285C297.674 179.005 297.674 165.692 297.674 152.384C297.474 152.321 297.27 152.253 297.07 152.191C291.113 162.468 285.155 172.745 279.191 183.022C278.138 183.022 277.205 183.022 276.164 183.022C270.149 172.638 264.14 162.259 258.125 151.879C258 151.919 257.875 151.959 257.75 151.993C257.75 165.358 257.75 178.728 257.75 192.274C256.031 192.274 254.472 192.274 252.742 192.274C252.742 175.629 252.742 158.927 252.742 142.039C254.353 142.039 256.008 142.039 257.898 142.039C264.368 153.296 270.912 164.672 277.649 176.394Z" fill="white"/>
<path d="M160.5 192.336C158.543 192.336 157.052 192.336 155.464 192.336C155.464 175.516 155.464 158.825 155.464 141.993C157.063 141.993 158.543 141.993 160.341 141.993C160.341 149.341 160.341 156.701 160.341 164.185C170.538 164.185 180.422 164.185 190.5 164.185C190.5 156.791 190.5 149.483 190.5 142.016C192.247 142.016 193.801 142.016 195.485 142.016C195.485 158.814 195.485 175.51 195.485 192.331C193.909 192.331 192.418 192.331 190.682 192.331C190.682 184.643 190.682 176.887 190.682 168.961C180.548 168.961 170.658 168.961 160.506 168.961C160.5 176.722 160.5 184.473 160.5 192.336Z" fill="white"/>
<path d="M388.43 173.81C388.43 180.144 388.43 186.138 388.43 192.297C386.768 192.297 385.215 192.297 383.496 192.297C383.496 175.612 383.496 158.922 383.496 142.033C384.173 141.976 384.902 141.869 385.624 141.863C391.491 141.852 397.358 141.903 403.225 141.846C410.235 141.778 415.158 145.002 418.054 151.205C420.962 157.432 419.92 163.312 415.721 168.609C413.007 172.031 409.342 173.81 404.881 173.81C399.503 173.805 394.12 173.81 388.43 173.81ZM388.538 169.306C394.137 169.306 399.441 169.284 404.744 169.318C406.941 169.329 408.807 168.558 410.457 167.199C414.042 164.247 415.493 158.519 413.877 153.777C412.273 149.064 408.591 146.412 403.333 146.327C398.883 146.254 394.427 146.31 389.977 146.322C389.528 146.322 389.078 146.424 388.532 146.486C388.538 154.095 388.538 161.573 388.538 169.306Z" fill="white"/>
<path d="M446.864 174.558C447.058 167.771 449.271 162.74 453.863 158.882C461.494 152.474 472.813 153.494 479.294 161.103C485.36 168.219 485.616 179.136 479.726 186.371C474.998 192.189 468.67 194.245 461.454 192.738C454.142 191.214 449.63 186.376 447.604 179.3C447.098 177.515 447.018 175.612 446.864 174.558ZM451.957 173.935C451.934 177.731 453.044 181.039 455.309 183.872C459.81 189.515 467.515 190.455 473.239 186.059C481.075 180.042 480.756 167 472.63 161.363C467.68 157.93 461.42 158.315 456.976 162.394C453.607 165.493 451.969 169.374 451.957 173.935Z" fill="white"/>
<path d="M110.937 71C125.317 83.7925 125.459 99.8653 114.829 115.207C113.134 113.893 111.438 112.595 109.759 111.275C108.137 109.995 106.538 108.686 104.746 107.242C111.91 97.9787 112.752 88.9084 103.181 80.4216C105.827 77.2093 108.314 74.1896 110.937 71Z" fill="white"/>
<path d="M163.795 112.04C161.201 114.998 158.628 117.938 155.88 121.077C151.259 118.289 146.457 116.539 141.068 117.309C135.656 118.085 131.77 121.536 127.69 125.076C124.304 122.595 120.986 120.164 117.652 117.723C128.987 105.667 146.918 100.443 163.795 112.04Z" fill="white"/>
<path d="M203.765 146.435C203.765 144.69 203.765 143.404 203.765 141.988C217.473 141.988 231.073 141.988 244.855 141.988C244.855 143.381 244.855 144.735 244.855 146.271C239.022 146.271 233.178 146.271 227.021 146.271C227.021 161.692 227.021 176.938 227.021 192.319C225.161 192.319 223.607 192.319 221.849 192.319C221.849 177.079 221.849 161.885 221.849 146.435C215.754 146.435 209.848 146.435 203.765 146.435Z" fill="white"/>
<path d="M320.668 187.997C330.684 187.997 340.3 187.997 350.076 187.997C350.076 189.453 350.076 190.739 350.076 192.444C338.787 192.484 327.394 192.45 315.849 192.461C315.849 175.618 315.849 158.927 315.849 142.044C317.357 142.044 318.904 142.044 320.674 142.044C320.668 157.228 320.668 172.411 320.668 187.997Z" fill="white"/>
<path d="M425.719 155.409C427.21 155.409 428.587 155.409 430.214 155.409C430.214 157.794 430.214 160.111 430.214 163.165C431.831 161.38 432.838 159.97 434.141 158.91C435.581 157.732 437.191 156.633 438.904 155.947C440.491 155.313 442.324 155.279 444.196 154.95C444.196 156.695 444.196 157.998 444.196 159.488C443.075 159.709 441.897 159.902 440.736 160.174C436.65 161.131 433.452 163.329 431.592 167.108C430.954 168.4 430.573 169.946 430.545 171.386C430.431 177.402 430.499 183.425 430.499 189.441C430.499 190.365 430.499 191.282 430.499 192.331C428.837 192.331 427.358 192.331 425.713 192.331C425.719 180.065 425.719 167.805 425.719 155.409Z" fill="white"/>
<path d="M117.504 135.665C110.385 129.807 103.534 124.176 96.2729 118.199C101.406 116.816 105.998 115.757 110.789 117.065C114.038 117.949 116.178 120.057 117.168 123.241C117.982 125.892 118.784 129.161 117.504 135.665Z" fill="white"/>
</g>
<defs>
<clipPath id="clip0">
<rect width="467" height="157" fill="white" transform="translate(17 71)"/>
</clipPath>
</defs>
</svg>
