<svg xmlns="http://www.w3.org/2000/svg" width="382" height="386" fill="none" viewBox="0 0 382 386">
    <path fill="#EBECEC" fill-rule="evenodd" d="M186.422 60.679c1.077-.026 2.157-.04 3.241-.04 1.083 0 2.163.014 3.24.04l-.06 2.467c-1.057-.025-2.117-.038-3.18-.038-1.064 0-2.124.013-3.181.038l-.06-2.467zm-12.885.937c2.128-.26 4.273-.469 6.431-.625l.18 2.461c-2.119.154-4.223.36-6.311.614l-.3-2.45zm25.82-.625c2.159.156 4.303.365 6.431.625l-.299 2.45c-2.089-.255-4.193-.46-6.312-.614l.18-2.461zm-38.553 2.816c2.095-.468 4.208-.885 6.339-1.252l.42 2.432c-2.091.36-4.164.77-6.22 1.229l-.539-2.409zm51.378-1.252c2.131.367 4.245.784 6.34 1.252l-.54 2.409c-2.055-.459-4.129-.869-6.22-1.229l.42-2.432zm-63.834 4.686c2.04-.672 4.102-1.296 6.185-1.87l.659 2.379c-2.044.563-4.067 1.175-6.069 1.835l-.775-2.344zm76.444-1.87c2.083.574 4.145 1.198 6.185 1.87l-.775 2.344c-2.002-.66-4.025-1.272-6.068-1.835l.658-2.38zm-88.499 6.516c1.965-.871 3.955-1.695 5.97-2.472l.89 2.303c-1.976.761-3.929 1.57-5.857 2.425l-1.003-2.256zm100.769-2.472c2.015.776 4.005 1.6 5.97 2.472l-1.003 2.256c-1.928-.855-3.881-1.663-5.857-2.425l.89-2.303zm11.811 5.234c1.927.97 3.826 1.986 5.697 3.046l-1.221 2.147c-1.835-1.04-3.699-2.037-5.589-2.989l1.113-2.204zm-124.118 3.046c1.871-1.06 3.771-2.076 5.697-3.046l1.114 2.204c-1.891.952-3.754 1.949-5.59 2.989l-1.221-2.147zm135.355 3.323c1.821 1.153 3.612 2.35 5.371 3.589l-1.426 2.017c-1.726-1.216-3.483-2.39-5.269-3.522l1.324-2.084zm-146.265 3.589c1.758-1.239 3.549-2.436 5.37-3.59l1.325 2.085c-1.787 1.132-3.544 2.306-5.27 3.522l-1.425-2.017zm156.823 3.847c1.699 1.325 3.364 2.69 4.994 4.096l-1.616 1.868c-1.6-1.379-3.234-2.719-4.9-4.02l1.522-1.944zM103.664 92.55c1.63-1.405 3.294-2.771 4.993-4.096l1.522 1.945c-1.666 1.3-3.3 2.64-4.9 4.019l-1.615-1.869zm176.785 4.333c1.56 1.484 3.084 3.005 4.569 4.562l-1.79 1.703c-1.458-1.529-2.953-3.022-4.484-4.477l1.705-1.788zm-186.142 4.562c1.486-1.557 3.01-3.078 4.57-4.562l1.705 1.788c-1.531 1.455-3.027 2.948-4.485 4.477l-1.79-1.703zm195.053 4.779c1.407 1.627 2.775 3.289 4.102 4.985l-1.948 1.52c-1.302-1.664-2.645-3.295-4.026-4.892l1.872-1.613zm-203.497 4.985c1.327-1.696 2.695-3.358 4.103-4.985l1.871 1.613c-1.381 1.597-2.724 3.228-4.026 4.892l-1.948-1.52zm211.453 5.179c1.241 1.756 2.44 3.543 3.595 5.361l-2.087 1.322c-1.134-1.783-2.311-3.537-3.528-5.26l2.02-1.423zm-218.902 5.361c1.155-1.818 2.354-3.605 3.595-5.361l2.02 1.423c-1.217 1.723-2.394 3.477-3.528 5.26l-2.087-1.322zm225.825 5.531c1.062 1.867 2.08 3.764 3.052 5.687l-2.208 1.112c-.953-1.888-1.952-3.748-2.994-5.581l2.15-1.218zm-232.204 5.687c.971-1.923 1.989-3.82 3.051-5.687l2.15 1.218c-1.042 1.833-2.04 3.693-2.994 5.581l-2.208-1.112zm-5.243 11.791c.777-2.011 1.603-3.999 2.475-5.96l2.26 1.001c-.856 1.925-1.666 3.874-2.429 5.847l-2.306-.888zm243.266-5.96c.872 1.961 1.698 3.949 2.476 5.96l-2.307.888c-.763-1.973-1.573-3.922-2.429-5.847l2.26-1.001zM62.74 157.007c.575-2.079 1.2-4.138 1.874-6.175l2.348.774c-.661 1.998-1.275 4.018-1.839 6.058l-2.383-.657zm251.971-6.175c.674 2.037 1.299 4.096 1.874 6.175l-2.383.657c-.564-2.04-1.178-4.06-1.838-6.058l2.347-.774zM59.919 169.596c.368-2.128.786-4.238 1.255-6.329l2.413.538c-.46 2.052-.87 4.122-1.23 6.21l-2.438-.419zm258.232-6.329c.469 2.091.887 4.201 1.255 6.329l-2.437.419c-.36-2.088-.771-4.158-1.231-6.21l2.413-.538zM58.353 182.398c.157-2.154.366-4.295.626-6.42l2.454.299c-.255 2.085-.46 4.186-.614 6.301l-2.467-.18zm261.993-6.42c.26 2.125.47 4.266.627 6.42l-2.466.18c-.154-2.115-.36-4.216-.615-6.301l2.454-.299zM58.001 192.076c0-1.081.013-2.16.04-3.235l2.47.06c-.025 1.055-.038 2.114-.038 3.175 0 1.062.013 2.12.039 3.176l-2.472.059c-.026-1.075-.039-2.153-.039-3.235zm263.284-3.235c.026 1.075.039 2.154.039 3.235 0 1.082-.013 2.16-.039 3.235l-2.472-.059c.026-1.056.039-2.114.039-3.176 0-1.061-.013-2.12-.039-3.175l2.472-.06zM58.979 208.174c-.26-2.125-.47-4.265-.627-6.42l2.467-.179c.154 2.115.359 4.215.614 6.3l-2.454.299zm261.994-6.42c-.157 2.155-.367 4.295-.627 6.42l-2.454-.299c.255-2.085.461-4.185.615-6.3l2.466.179zm-259.8 19.132c-.468-2.091-.886-4.202-1.254-6.329l2.437-.419c.36 2.087.771 4.157 1.23 6.209l-2.412.539zm258.233-6.329c-.368 2.127-.786 4.238-1.255 6.329l-2.413-.539c.46-2.052.871-4.122 1.231-6.209l2.437.419zM64.614 233.32c-.674-2.037-1.299-4.095-1.874-6.175l2.383-.657c.564 2.04 1.178 4.06 1.839 6.058l-2.348.774zm251.971-6.175c-.575 2.08-1.2 4.138-1.874 6.175l-2.347-.774c.66-1.998 1.274-4.018 1.838-6.058l2.383.657zm-247.318 18.21c-.872-1.962-1.698-3.949-2.475-5.96l2.306-.889c.763 1.973 1.573 3.922 2.43 5.847l-2.26 1.002zm243.267-5.96c-.778 2.011-1.604 3.998-2.476 5.96l-2.26-1.002c.856-1.925 1.666-3.874 2.429-5.847l2.307.889zm-5.243 11.79c-.972 1.924-1.99 3.82-3.052 5.688l-2.15-1.219c1.042-1.832 2.041-3.693 2.994-5.58l2.208 1.111zm-232.205 5.688c-1.062-1.868-2.08-3.764-3.051-5.688l2.207-1.111c.954 1.887 1.952 3.748 2.994 5.58l-2.15 1.219zm225.825 5.53c-1.155 1.818-2.354 3.606-3.595 5.362l-2.02-1.423c1.217-1.723 2.394-3.477 3.528-5.261l2.087 1.322zm-218.902 5.362c-1.24-1.756-2.44-3.544-3.595-5.362l2.087-1.322c1.134 1.784 2.31 3.538 3.528 5.261l-2.02 1.423zm211.453 5.179c-1.327 1.695-2.695 3.357-4.102 4.984l-1.872-1.613c1.381-1.597 2.724-3.228 4.026-4.891l1.948 1.52zm-203.496 4.984c-1.408-1.627-2.776-3.289-4.103-4.984l1.948-1.52c1.302 1.663 2.645 3.294 4.026 4.891l-1.871 1.613zm8.91 9.341c-1.56-1.483-3.083-3.004-4.57-4.562l1.791-1.702c1.458 1.528 2.954 3.021 4.485 4.477l-1.706 1.787zm186.142-4.562c-1.485 1.558-3.009 3.079-4.569 4.562l-1.705-1.787c1.531-1.456 3.026-2.949 4.484-4.477l1.79 1.702zm-9.356 8.896c-1.63 1.405-3.295 2.771-4.994 4.095l-1.522-1.944c1.666-1.301 3.3-2.641 4.9-4.019l1.616 1.868zm-167.005 4.095c-1.699-1.324-3.363-2.69-4.993-4.095l1.615-1.868c1.6 1.378 3.234 2.718 4.9 4.019l-1.522 1.944zm10.558 7.437c-1.821-1.154-3.612-2.351-5.37-3.589l1.425-2.017c1.726 1.215 3.483 2.39 5.27 3.522l-1.325 2.084zm146.266-3.589c-1.759 1.238-3.55 2.435-5.371 3.589l-1.324-2.084c1.786-1.132 3.543-2.307 5.269-3.522l1.426 2.017zm-10.911 6.911c-1.871 1.06-3.77 2.076-5.697 3.046l-1.113-2.204c1.89-.951 3.754-1.948 5.589-2.989l1.221 2.147zm-124.118 3.046c-1.926-.97-3.826-1.986-5.697-3.046l1.221-2.147c1.836 1.041 3.699 2.038 5.59 2.989l-1.114 2.204zm11.811 5.234c-2.015-.776-4.005-1.6-5.97-2.471l1.003-2.256c1.928.854 3.881 1.663 5.857 2.425l-.89 2.302zm100.769-2.471c-1.965.871-3.955 1.695-5.97 2.471l-.89-2.302c1.976-.762 3.929-1.571 5.857-2.425l1.003 2.256zm-88.499 6.516c-2.083-.574-4.145-1.198-6.185-1.871l.775-2.344c2.002.66 4.025 1.272 6.069 1.836l-.659 2.379zm76.444-1.871c-2.04.673-4.102 1.297-6.185 1.871l-.658-2.379c2.043-.564 4.066-1.176 6.068-1.836l.775 2.344zm-63.834 4.687c-2.131-.367-4.244-.785-6.339-1.253l.539-2.408c2.056.458 4.129.868 6.22 1.228l-.42 2.433zm51.379-1.253c-2.095.468-4.209.886-6.34 1.253l-.42-2.433c2.091-.36 4.165-.77 6.22-1.228l.54 2.408zm-38.554 2.817c-2.158-.157-4.303-.366-6.431-.625l.3-2.45c2.088.254 4.192.459 6.311.613l-.18 2.462zm25.82-.625c-2.128.259-4.272.468-6.431.625l-.18-2.462c2.119-.154 4.223-.359 6.312-.613l.299 2.45zm-16.125.976c-1.084 0-2.164-.013-3.241-.039l.06-2.468c1.057.026 2.117.038 3.181.038 1.063 0 2.123-.012 3.18-.038l.06 2.468c-1.077.026-2.157.039-3.24.039z" clip-rule="evenodd"/>
    <g filter="url(#filter0_d)">
        <ellipse cx="190.01" cy="327.379" fill="#fff" rx="34.413" ry="34.621"/>
    </g>
    <g clip-path="url(#clip0)">
        <path fill="url(#paint0_radial)" d="M210 337.291c0-4.81-3.896-8.708-8.703-8.708-4.806 0-8.702 3.898-8.702 8.708.007 4.81 3.903 8.709 8.709 8.709 4.8 0 8.696-3.899 8.696-8.709z"/>
        <path fill="url(#paint1_radial)" d="M187.398 337.291c0-4.81-3.896-8.701-8.702-8.701-4.8 0-8.696 3.898-8.696 8.701 0 4.81 3.896 8.709 8.702 8.709 4.8 0 8.696-3.899 8.696-8.709z"/>
        <path fill="url(#paint2_radial)" d="M198.702 317.709c0-4.81-3.896-8.709-8.702-8.709-4.807 0-8.703 3.899-8.703 8.709s3.896 8.708 8.703 8.708c4.806-.006 8.702-3.905 8.702-8.708z"/>
    </g>
    <g filter="url(#filter1_d)">
        <circle r="34.611" fill="#fff" transform="rotate(-44.951 395.814 26.096)"/>
    </g>
    <path fill="#0079BF" d="M109.75 270h-25.5c-2.347 0-4.25 1.903-4.25 4.25v25.5c0 2.347 1.903 4.25 4.25 4.25h25.5c2.347 0 4.25-1.903 4.25-4.25v-25.5c0-2.347-1.903-4.25-4.25-4.25z"/>
    <path fill="#fff" d="M107.54 274.42h-6.29c-1.127 0-2.04.913-2.04 2.04v10.795c0 1.127.913 2.04 2.04 2.04h6.29c1.127 0 2.04-.913 2.04-2.04V276.46c0-1.127-.913-2.04-2.04-2.04zM92.75 274.42h-6.29c-1.127 0-2.04.913-2.04 2.04v19.295c0 1.127.913 2.04 2.04 2.04h6.29c1.127 0 2.04-.913 2.04-2.04V276.46c0-1.127-.913-2.04-2.04-2.04z"/>
    <g filter="url(#filter2_d)">
        <ellipse cx="190.01" cy="58.621" fill="#fff" rx="34.413" ry="34.621"/>
    </g>
    <path fill="#2684FF" d="M212.443 57.085l-20.704-20.669-2.007-2.003-15.585 15.558-7.126 7.114c-.357.357-.557.84-.557 1.344 0 .504.2.987.557 1.344l14.239 14.215 8.472 8.457 15.585-15.558.242-.241 6.884-6.873c.357-.357.557-.84.557-1.344 0-.504-.2-.987-.557-1.344zm-22.711 8.445l-7.113-7.1 7.113-7.102 7.113 7.101-7.113 7.1z"/>
    <path fill="url(#paint3_linear)" d="M189.732 51.328c-2.237-2.233-3.498-5.26-3.508-8.418-.01-3.159 1.233-6.193 3.457-8.44l-15.566 15.533 8.472 8.458 7.145-7.133z"/>
    <path fill="url(#paint4_linear)" d="M196.864 58.41l-7.132 7.12c1.113 1.11 1.996 2.429 2.598 3.88.603 1.451.913 3.007.913 4.578 0 1.57-.31 3.126-.913 4.577-.602 1.451-1.485 2.77-2.598 3.88l15.604-15.577-8.472-8.458z"/>
    <g filter="url(#filter3_d)">
        <ellipse cx="323.32" cy="192.521" fill="#fff" rx="34.68" ry="34.355"/>
    </g>
    <g clip-path="url(#clip1)">
        <path fill="#1D2D35" d="M323.789 211c-6.991 0-13.671-2.968-18.343-8.191-.502-.558-.646-1.342-.383-2.054 1.279-3.443 4.744-11.444 9.202-11.468 2.258 0 3.955 1.781 5.305 3.218.395.415.992 1.044 1.411 1.365 1.039-1.045 3.083-4.405 4.672-7.788.478-1.009 1.697-1.448 2.713-.973 1.015.475 1.458 1.674.98 2.695-4.852 10.28-7.29 10.28-8.21 10.28-1.852 0-3.215-1.425-4.517-2.813-.598-.63-1.84-1.935-2.33-1.935-1.028.166-3.311 3.751-4.936 7.668 3.92 3.882 9.214 6.019 14.818 5.948 4.828 0 13.229-.795 16.718-5.995-.908-10.15-6.548-23.909-16.694-23.909-8.604 0-15.069 5.936-19.227 17.641-.383 1.056-1.542 1.614-2.606 1.234-1.063-.368-1.625-1.519-1.242-2.576C305.912 179.85 313.667 173 324.195 173c13.707 0 20.04 17.368 20.805 28.325.024.404-.06.807-.263 1.151-3.19 5.497-10.48 8.524-20.542 8.524h-.406z"/>
    </g>
    <g filter="url(#filter4_d)">
        <circle r="34.611" fill="#fff" transform="rotate(-44.951 166.568 -68.746)"/>
    </g>
    <path fill="#fff" d="M87.872 78.562c.306-.05.637-.055.921.08.423.17.723.574.825 1.011.036.311.025.64-.121.923-.267.586-.978.924-1.601.76-.64-.141-1.116-.756-1.11-1.409-.011-.635.475-1.216 1.086-1.365zM106.162 78.56c.309-.048.643-.048.931.094.474.209.796.705.832 1.217 0 .395-.134.807-.426 1.084-.249.262-.608.407-.967.424-.555.007-1.116-.323-1.332-.84-.141-.276-.123-.594-.106-.893.104-.529.548-.964 1.068-1.085zM104.328 100.147c.724-.003 1.446-.005 2.17 0-.009 2.87-.002 5.741-.003 8.612h-2.163c-.001-2.871.006-5.742-.004-8.612z"/>
    <path fill="#C7C7C7" d="M80.872 77.308c.456-.2.962-.23 1.453-.218h30.406c1.105-.02 2.183.663 2.63 1.675.188.398.268.841.261 1.28-.004.984.01 1.967-.006 2.95-.328-.124-.679-.156-1.026-.16-11.468.004-22.937.002-34.404.002-.364.01-.735.025-1.077.159-.017-1.022-.008-2.044-.012-3.066-.006-1.127.728-2.208 1.775-2.622zm7 1.254c-.61.15-1.096.73-1.084 1.365-.006.653.47 1.268 1.11 1.41.623.163 1.333-.175 1.6-.761.147-.283.157-.612.122-.923-.103-.437-.402-.84-.825-1.011-.288-.135-.618-.129-.923-.08zm18.29-.001c-.522.12-.964.558-1.069 1.085-.018.3-.036.617.105.893.218.517.778.848 1.332.84.359-.017.718-.162.968-.424.293-.277.425-.689.425-1.084-.034-.514-.356-1.008-.832-1.217-.285-.142-.619-.142-.929-.093zM105.993 91.53c.162-.067.339-.064.511-.05-.011 2.88.001 5.76-.006 8.64v.025c-.723-.004-1.447-.003-2.17 0v-.025c-.002-1.992-.002-3.982 0-5.974-1.442.479-2.883.966-4.326 1.443-.004-.65.003-1.3-.004-1.95 1.996-.711 3.999-1.403 5.995-2.11zM88.34 92.565c.904-.687 2.036-1.043 3.165-1.086 1.12-.04 2.28.142 3.26.71.776.442 1.389 1.153 1.724 1.98.334.824.44 1.737.338 2.62-.216 1.412-1.31 2.552-2.587 3.116.183.055.36.125.531.211-.112.02-.225.034-.338.029-1.507-.01-3.013.011-4.518-.01-.006-.327-.014-.653.007-.98 1.086-.026 2.233.106 3.249-.37.835-.352 1.456-1.148 1.574-2.049.1-.857.014-1.794-.494-2.52-.4-.575-1.079-.893-1.758-.994-.915-.127-1.92-.037-2.688.519-.757.531-1.157 1.469-1.138 2.378-.697.019-1.394.004-2.091.007.013-.382.043-.767.142-1.137.237-.961.83-1.829 1.623-2.424z"/>
    <path fill="#4483EF" d="M79.107 82.996c.343-.134.715-.15 1.077-.159l34.404-.001c.347.003.7.035 1.026.16.991.357 1.794 1.273 1.898 2.333-.202-.727-.638-1.403-1.29-1.805-.471-.294-1.022-.463-1.579-.459-11.505.008-23.01.008-34.516.008-.866-.017-1.74.357-2.291 1.03-.269.286-.408.656-.597.993.189-.968.947-1.775 1.868-2.1zM104.287 100.125l.04-.003v.025c.011 2.87.003 5.741.005 8.611h2.163c.001-2.87-.006-5.741.003-8.613v-.025l.035.003c.318.039.64.015.959.019 2.71-.001 5.42-.004 8.13 0 .313 4.524.608 9.05.917 13.574.029.517.096 1.048-.048 1.555l-.013.016c-.134.149-.209.335-.304.508-.509.828-1.454 1.386-2.433 1.377-10.811-.006-21.622.004-32.431.002-.338 0-.686.017-1.015-.072-.747-.202-1.424-.691-1.8-1.374-.08-.149-.152-.303-.257-.435l-.014-.019c-.18-.679-.034-1.381-.011-2.068.296-4.352.58-8.704.88-13.056 3.604-.009 7.207-.005 10.81-.003.003.207.004.413.003.62 1.142.022 2.336-.114 3.418.336.73.285 1.33.895 1.56 1.647.255.834.226 1.755-.074 2.572-.279.767-.946 1.36-1.727 1.588-.946.28-2 .256-2.913-.135-.71-.304-1.289-.914-1.508-1.657-.104-.327-.146-.672-.152-1.014-.69.004-1.38.003-2.07 0 .013.872.223 1.757.711 2.489.52.801 1.327 1.384 2.21 1.728 1.12.437 2.356.533 3.54.352 1.151-.182 2.278-.697 3.062-1.577.718-.795 1.09-1.86 1.139-2.921.065-1.013-.168-2.078-.813-2.884-.362-.476-.86-.82-1.37-1.122.249-.031.5-.024.749-.024 2.552-.003 5.105 0 7.658-.001.321-.008.642.018.961-.019z"/>
    <path fill="#3664D0" d="M77.837 84.105c.552-.674 1.426-1.047 2.292-1.031 11.505 0 23.01 0 34.515-.007.558-.005 1.109.164 1.58.459.651.4 1.088 1.078 1.289 1.805.057.256.04.522.012.783-.624 4.674-1.273 9.344-1.89 14.019-2.6-.004-5.2.003-7.801 0-.433-.003-.868.017-1.301-.007l-.035-.003c.007-2.88-.005-5.76.006-8.64-.172-.014-.349-.017-.511.05-1.996.706-3.999 1.397-5.994 2.108.007.65 0 1.3.004 1.95 1.444-.475 2.883-.962 4.326-1.442-.003 1.992-.001 3.982 0 5.974l-.04.003c-3.022.022-6.045 0-9.067.012-.15-.003-.306.043-.449-.02-.17-.085-.349-.155-.531-.21 1.277-.564 2.37-1.706 2.587-3.117.1-.883-.004-1.795-.338-2.62-.334-.826-.948-1.535-1.724-1.98-.98-.568-2.14-.749-3.26-.709-1.13.042-2.261.397-3.164 1.086-.796.595-1.386 1.463-1.626 2.428-.1.37-.13.755-.143 1.138.698-.004 1.396.011 2.092-.008-.02-.91.381-1.848 1.138-2.378.768-.556 1.772-.646 2.688-.519.677.101 1.357.42 1.757.994.51.726.597 1.663.494 2.52-.117.9-.738 1.698-1.573 2.05-1.017.475-2.163.344-3.25.369h-.026c.012.327-.001.653.008.98-3.605-.006-7.21-.007-10.816 0-.614-4.582-1.238-9.16-1.857-13.74-.071-.43-.095-.879.014-1.305.186-.338.327-.707.594-.992zM78.236 115.29c.106.133.178.285.257.435.377.683 1.053 1.171 1.8 1.374.332.089.677.071 1.015.071 10.811.005 21.621-.007 32.432-.001.979.009 1.923-.548 2.432-1.377.095-.174.172-.359.304-.508-.238.922-.982 1.688-1.891 1.972-.507.176-1.05.132-1.577.138H81.42c-.42.003-.85.007-1.254-.124-.922-.271-1.685-1.044-1.93-1.98z"/>
    <g filter="url(#filter5_d)">
        <circle r="34.611" fill="#fff" transform="rotate(-44.951 489.445 -200.223)"/>
    </g>
    <path fill="#0364B8" d="M300.53 268.619h-22.563c-1.011 0-1.843.832-1.843 1.843v2.094l12.717 3.938 13.531-3.938v-2.094c0-1.011-.831-1.843-1.842-1.843z"/>
    <path fill="#0A2767" d="M304.538 288.837c.192-.604.345-1.22.459-1.844 0-.312-.167-.601-.437-.757l-.017-.009-.005-.003-14.224-8.103c-.062-.039-.125-.076-.19-.109-.551-.273-1.199-.273-1.75 0-.065.033-.129.069-.19.109l-14.224 8.103-.006.003-.017.009c-.27.156-.437.445-.437.757.114.624.268 1.24.46 1.844l15.082 11.031 15.496-11.031z"/>
    <path fill="#28A8EA" d="M294.498 272.556h-9.187l-2.653 3.938 2.653 3.937 9.187 7.874h7.874v-7.874l-7.874-7.875z"/>
    <path fill="#0078D4" fill-rule="evenodd" d="M276.124 272.557h9.187v7.874h-9.187v-7.874z" clip-rule="evenodd"/>
    <path fill="#50D9FF" fill-rule="evenodd" d="M294.499 272.557h7.874v7.874h-7.874v-7.874z" clip-rule="evenodd"/>
    <path fill="#0364B8" d="M294.498 288.305l-9.187-7.874h-9.187v7.874l9.187 7.875 14.216 2.32-5.029-10.195z"/>
    <path fill="#0078D4" fill-rule="evenodd" d="M285.312 280.431h9.186v7.874h-9.186v-7.874z" clip-rule="evenodd"/>
    <path fill="#064A8C" fill-rule="evenodd" d="M276.124 288.305h9.187v7.875h-9.187v-7.875z" clip-rule="evenodd"/>
    <path fill="#0078D4" fill-rule="evenodd" d="M294.499 288.305h7.874v7.875h-7.874v-7.875z" clip-rule="evenodd"/>
    <path fill="#0A2767" fill-opacity=".498" d="M289.499 299.091l-15.479-11.287.648-1.14s14.102 8.032 14.317 8.153c.179.071.379.065.553-.016.201-.113 14.347-8.176 14.347-8.176l.651 1.14-15.037 11.326z"/>
    <path fill="#1490DF" d="M304.56 287.751l-.017.01-.004.003-14.224 8.103c-.574.37-1.301.415-1.916.119l4.954 6.642 10.833 2.359v.005c.511-.369.814-.963.814-1.593v-16.405c0 .312-.167.601-.437.757h-.003z"/>
    <path fill="#000" fill-opacity=".047" d="M304.997 303.399v-.969l-13.102-7.465-1.581.9c-.574.37-1.301.416-1.916.12l4.954 6.642 10.833 2.358v.006c.511-.37.814-.963.814-1.594l-.002.002z"/>
    <path fill="#000" fill-opacity=".098" d="M304.932 303.901l-14.362-8.181-.256.146c-.574.369-1.301.415-1.916.119l4.954 6.642 10.833 2.358v.006c.367-.267.632-.652.748-1.091l-.001.001z"/>
    <path fill="#28A8EA" d="M273.958 287.768v-.013h-.013l-.039-.026c-.255-.157-.409-.436-.407-.735v16.408c0 1.078.888 1.966 1.966 1.966h27.564c.163-.002.327-.024.485-.066.082-.014.162-.041.237-.079.027-.003.054-.012.078-.026.107-.044.209-.101.302-.171l.053-.039-30.226-17.219z"/>
    <path fill="#000" fill-opacity=".098" d="M286.623 298.368v-21.436c-.003-.958-.79-1.746-1.749-1.749h-8.709v9.785l-2.207 1.258-.005.002-.017.009c-.27.157-.437.446-.437.758v13.128-.006h11.375c.959-.002 1.746-.79 1.749-1.749z"/>
    <path fill="#000" fill-opacity=".2" d="M285.311 299.681v-21.436c-.003-.959-.791-1.746-1.75-1.75h-7.396v8.473l-2.207 1.258-.005.002-.017.01c-.27.156-.437.445-.437.757v14.44-.005h10.062c.959-.003 1.747-.791 1.75-1.749zm0-2.625v-18.811c-.003-.959-.791-1.746-1.75-1.75h-7.396v8.473l-2.207 1.258-.005.002-.017.01c-.27.156-.437.445-.437.757v11.815-.005h10.062c.959-.003 1.747-.79 1.75-1.749zm-1.313 0v-18.811c-.002-.959-.79-1.746-1.749-1.75h-6.084v8.473l-2.207 1.258-.005.002-.017.01c-.27.156-.437.445-.437.757v11.815-.005h8.75c.959-.003 1.747-.79 1.749-1.749z"/>
    <path fill="#0078D4" d="M264.749 276.494h17.499c.96 0 1.749.79 1.749 1.749v17.499c0 .96-.789 1.749-1.749 1.749h-17.499c-.959 0-1.749-.789-1.749-1.749v-17.499c0-.959.79-1.749 1.749-1.749z"/>
    <path fill="#fff" d="M268.074 283.671c.465-.991 1.216-1.82 2.155-2.381 1.041-.596 2.227-.893 3.426-.858 1.11-.025 2.207.257 3.168.813.905.539 1.633 1.329 2.097 2.275.505 1.041.757 2.188.735 3.345.025 1.21-.235 2.409-.757 3.5-.474.979-1.225 1.798-2.159 2.355-.999.574-2.136.863-3.288.836-1.134.027-2.255-.258-3.239-.823-.911-.54-1.649-1.331-2.123-2.278-.508-1.027-.763-2.161-.743-3.306-.022-1.2.227-2.389.73-3.478h-.002zm2.297 5.588c.248.626.669 1.17 1.213 1.567.554.388 1.218.588 1.894.571.72.028 1.43-.178 2.022-.588.538-.397.947-.944 1.177-1.571.259-.7.387-1.441.377-2.187.008-.752-.112-1.5-.354-2.212-.214-.641-.609-1.207-1.137-1.629-.577-.431-1.285-.649-2.004-.619-.69-.018-1.369.183-1.938.574-.555.399-.985.947-1.239 1.581-.564 1.45-.567 3.06-.01 4.513h-.001z"/>
    <g filter="url(#filter6_d)">
        <circle r="34.611" fill="#fff" transform="rotate(-44.951 260.2 -295.064)"/>
    </g>
    <path fill="#FF4A00" d="M290 98.009c-.001 1.486-.273 2.909-.768 4.222-1.313.496-2.737.768-4.223.769h-.018c-1.486-.001-2.909-.272-4.222-.768-.495-1.313-.768-2.736-.769-4.223v-.017c.001-1.486.273-2.91.768-4.223 1.314-.495 2.737-.768 4.223-.769h.018c1.486.001 2.91.274 4.223.77.495 1.313.767 2.736.768 4.222v.017zm14.722-3.342h-11.675l8.255-8.255c-.648-.91-1.371-1.765-2.161-2.555-.79-.79-1.643-1.512-2.553-2.16l-8.255 8.255V78.278c-1.098-.184-2.209-.277-3.323-.278h-.021c-1.113 0-2.224.094-3.322.278v11.675l-8.255-8.255c-.91.648-1.764 1.37-2.554 2.16l-.003.002c-.788.79-1.51 1.643-2.157 2.552l8.255 8.255h-11.675S265 96.86 265 97.993v.014c0 1.115.093 2.227.278 3.327h11.675l-8.255 8.255c1.298 1.822 2.891 3.416 4.714 4.714l8.255-8.255v11.674c1.096.184 2.207.277 3.319.278h.029c1.112-.001 2.222-.094 3.319-.278v-11.675l8.255 8.255c.909-.647 1.763-1.37 2.552-2.159l.002-.001c.79-.79 1.512-1.644 2.159-2.553l-8.255-8.255h11.675c.184-1.097.277-2.207.278-3.32v-.028c-.001-1.112-.094-2.222-.278-3.319z"/>
    <g filter="url(#filter7_d)">
        <ellipse cx="58.68" cy="192.521" fill="#fff" rx="34.68" ry="34.355"/>
    </g>
    <path fill="#E24329" d="M59.012 211.932l7.728-23.293H51.284l7.728 23.293z"/>
    <path fill="#FC6D26" d="M59.012 211.932l-7.728-23.293h-10.83l18.558 23.293z"/>
    <path fill="#FCA326" d="M40.453 188.639l-2.349 7.078c-.214.646.02 1.353.581 1.752l20.326 14.463-18.558-23.293z"/>
    <path fill="#E24329" d="M40.454 188.638h10.83l-4.654-14.029c-.24-.722-1.283-.722-1.522 0l-4.654 14.029z"/>
    <path fill="#FC6D26" d="M59.012 211.932l7.728-23.293h10.83l-18.558 23.293z"/>
    <path fill="#FCA326" d="M77.57 188.639l2.35 7.078c.213.646-.021 1.353-.582 1.752l-20.326 14.463 18.559-23.293z"/>
    <path fill="#E24329" d="M77.57 188.638H66.74l4.655-14.029c.24-.722 1.282-.722 1.521 0l4.655 14.029z"/>
    <path fill="#55A226" stroke="#55A126" stroke-width=".2" d="M191.136 158.014v.59c18.891 0 34.204 15.313 34.204 34.204s-15.313 34.204-34.204 34.204-34.204-15.313-34.204-34.204h-.59c0 19.217 15.577 34.794 34.794 34.794s34.794-15.577 34.794-34.794c-.004-19.217-15.581-34.794-34.794-34.794z"/>
    <path fill="#5AAB29" stroke="#5AAB29" stroke-width=".2" d="M224.747 192.808c0 18.565-15.049 33.615-33.615 33.615-18.565 0-33.614-15.05-33.614-33.615h-.59c0 18.891 15.313 34.204 34.204 34.204 18.892 0 34.205-15.313 34.205-34.204s-15.313-34.204-34.205-34.204v.589c18.569 0 33.615 15.05 33.615 33.615z"/>
    <path fill="#5CB02B" stroke="#5CB02B" stroke-width=".2" d="M224.161 192.808c0 18.239-14.786 33.025-33.025 33.025-18.239 0-33.026-14.786-33.026-33.025h-.589c0 18.565 15.05 33.615 33.615 33.615s33.615-15.05 33.615-33.615-15.05-33.615-33.615-33.615v.589c18.239 0 33.025 14.787 33.025 33.026z"/>
    <path fill="#5EB52B" stroke="#5EB52B" stroke-width=".2" d="M191.136 225.833c18.239 0 33.025-14.786 33.025-33.025 0-18.239-14.786-33.026-33.025-33.026v.59c17.913 0 32.436 14.523 32.436 32.436s-14.523 32.436-32.436 32.436c-17.914 0-32.436-14.523-32.436-32.436h-.59c0 18.239 14.787 33.025 33.026 33.025z"/>
    <path fill="#5FB92A" stroke="#5FB92A" stroke-width=".2" d="M158.7 192.808c0 17.913 14.522 32.436 32.436 32.436 17.913 0 32.436-14.523 32.436-32.436s-14.523-32.436-32.436-32.436v32.436H158.7z"/>
    <path fill="#ECECEC" stroke="#CECECE" stroke-width=".2" d="M178.416 162.958c-11.593 4.947-19.72 16.447-19.72 29.846h32.436l-12.716-29.846z"/>
    <path fill="#FF5715" stroke="#FF5715" stroke-width=".2" d="M191.136 192.808v-32.436c-4.514 0-8.813.922-12.717 2.59l12.717 29.853v-.007z"/>
    <path fill="#B0B0B0" stroke="#B0B0B0" stroke-width=".2" d="M177.726 161.332l-.232-.541c-12.436 5.305-21.152 17.643-21.152 32.017h.59c0-14.131 8.57-26.258 20.794-31.476z"/>
    <path fill="#BBB" stroke="#BBB" stroke-width=".2" d="M177.955 161.876l-.229-.544c-12.224 5.214-20.794 17.345-20.794 31.472h.589c0-13.884 8.421-25.803 20.434-30.928z"/>
    <path fill="#CACACA" stroke="#CACACA" stroke-width=".2" d="M157.521 192.808h.589c0-13.642 8.276-25.353 20.077-30.391l-.232-.541c-12.013 5.124-20.434 17.044-20.434 30.932z"/>
    <path fill="#DDD" stroke="#DDD" stroke-width=".2" d="M178.416 162.958l-.232-.541c-11.805 5.038-20.077 16.745-20.077 30.391h.589c.004-13.4 8.127-24.903 19.72-29.85z"/>
    <path fill="#F2340F" stroke="#F2340F" stroke-width=".2" d="M191.136 158.604v-.59c-4.843 0-9.451.992-13.642 2.777l.232.541c4.115-1.754 8.65-2.728 13.41-2.728z"/>
    <path fill="#F93A0D" stroke="#F93A0D" stroke-width=".2" d="M177.955 161.876c4.046-1.726 8.501-2.683 13.178-2.683v-.589c-4.76 0-9.292.974-13.41 2.728l.232.544z"/>
    <path fill="#FF3F0B" stroke="#FF3F0B" stroke-width=".2" d="M191.136 159.782v-.589c-4.677 0-9.132.957-13.178 2.683l.233.541c3.973-1.695 8.348-2.635 12.945-2.635z"/>
    <path fill="#FF4A12" stroke="#FF4A12" stroke-width=".2" d="M191.136 160.372v-.59c-4.597 0-8.972.94-12.949 2.635l.232.541c3.904-1.664 8.203-2.586 12.717-2.586z"/>
    <path fill="#191919" d="M198.964 172.381c-.159-.062-.333 0-.412.149l-6.92 13.102c-.191-.014-.378-.025-.558-.025-3.776 0-6.847 3.072-6.847 6.847 0 3.436 2.541 6.331 5.935 6.782l4.853 20.6c.042.177.191.291.368.291.021 0 .045 0 .069-.007.205-.035.34-.204.319-.409l-1.913-20.995c2.475-1.099 4.066-3.544 4.066-6.258 0-2.077-.925-4.008-2.541-5.315l3.782-14.37c.042-.166-.041-.329-.201-.392z"/>
    <path fill="#262626" d="M191.077 197.554c2.815 0 5.097-2.282 5.097-5.096 0-2.815-2.282-5.096-5.097-5.096-2.814 0-5.096 2.281-5.096 5.096 0 2.814 2.282 5.096 5.096 5.096z"/>
    <path fill="#191919" d="M191.077 194.042c.875 0 1.584-.709 1.584-1.584 0-.875-.709-1.584-1.584-1.584-.875 0-1.584.709-1.584 1.584 0 .875.709 1.584 1.584 1.584z"/>
    <path fill="#262626" d="M191.077 193.727c.701 0 1.269-.568 1.269-1.269s-.568-1.269-1.269-1.269-1.269.568-1.269 1.269.568 1.269 1.269 1.269z"/>
    <path fill="#191919" fill-rule="evenodd" d="M228.335 191.903c-.013-.513-.072-1.532-.072-1.532-1.29-19.786-18.035-35.251-38.036-34.766-9.395.229-17.899 3.938-24.313 9.863-7.038 6.501-11.558 15.67-11.961 25.835-.031.798-.041 1.599-.02 2.406.499 20.514 17.591 36.798 38.104 36.299 10.806-.264 20.441-5.131 27.063-12.682 5.949-6.778 9.471-15.716 9.235-25.423zM189.77 227.58v-3.483c0-.753.61-1.363 1.366-1.363.752 0 1.362.61 1.362 1.363v3.485c9.933-.387 18.755-4.917 24.84-11.879 5.082-5.813 8.251-13.319 8.568-21.529h-3.482c-.755-.003-1.366-.614-1.366-1.366 0-.752.611-1.362 1.363-1.362h3.485c-.708-18.23-15.366-32.72-33.408-33.411v3.502c0 .752-.61 1.362-1.366 1.362-.752 0-1.362-.61-1.362-1.362v-3.503c-4.158.164-8.119 1.051-11.767 2.539-3.862 1.574-7.374 3.82-10.39 6.59-6.625 6.081-10.872 14.686-11.25 24.244l-.001.035h3.482c.756 0 1.366.61 1.366 1.366 0 .752-.61 1.362-1.363 1.362h-3.485c.707 18.23 15.366 32.718 33.408 33.41z" clip-rule="evenodd"/>
    <path fill="#F4F4F4" d="M218.173 164.478c-15.153-14.435-38.889-14.4-54.004-.319-.574.536-1.141 1.093-1.691 1.667-14.985 15.731-14.376 40.713 1.352 55.698 15.727 14.981 40.713 14.375 55.695-1.352.35-.368.69-.742 1.022-1.121 13.92-15.772 12.985-39.942-2.374-54.573zm.452 52.745c-.333.379-.669.753-1.019 1.121-13.973 14.669-37.279 15.233-51.948 1.261-14.67-13.973-15.234-37.278-1.261-51.947.55-.578 1.117-1.131 1.695-1.664 14.102-13.023 36.161-13.02 50.253.403 14.302 13.622 15.195 36.111 2.28 50.826z"/>
    <path fill="#E0E0E0" d="M232.987 191.981c-.561-23.152-19.854-41.533-43.006-40.968-10.734.26-20.438 4.545-27.708 11.375-8.414 7.904-13.562 19.21-13.26 31.631.561 23.152 19.854 41.53 43.006 40.968 12.113-.294 22.92-5.716 30.391-14.137 6.805-7.673 10.844-17.834 10.577-28.869zm-12.751 26.799c-6.941 7.863-17.001 12.935-28.29 13.209-21.498.52-39.415-16.544-39.935-38.042-.02-.791-.01-1.574.018-2.351.378-10.661 5.075-20.288 12.422-27.132 6.736-6.275 15.698-10.21 25.602-10.449 20.996-.51 38.57 15.757 39.866 36.544.031.496.056.995.069 1.498.247 10.207-3.473 19.605-9.752 26.723z"/>
    <defs>
        <filter id="filter0_d" width="116.827" height="117.242" x="131.596" y="268.758" color-interpolation-filters="sRGB" filterUnits="userSpaceOnUse">
            <feFlood flood-opacity="0" result="BackgroundImageFix"/>
            <feColorMatrix in="SourceAlpha" values="0 0 0 0 0 0 0 0 0 0 0 0 0 0 0 0 0 0 127 0"/>
            <feOffset/>
            <feGaussianBlur stdDeviation="12"/>
            <feColorMatrix values="0 0 0 0 0 0 0 0 0 0 0 0 0 0 0 0 0 0 0.15 0"/>
            <feBlend in2="BackgroundImageFix" result="effect1_dropShadow"/>
            <feBlend in="SourceGraphic" in2="effect1_dropShadow" result="shape"/>
        </filter>
        <filter id="filter1_d" width="117.281" height="117.162" x="38.615" y="228.69" color-interpolation-filters="sRGB" filterUnits="userSpaceOnUse">
            <feFlood flood-opacity="0" result="BackgroundImageFix"/>
            <feColorMatrix in="SourceAlpha" values="0 0 0 0 0 0 0 0 0 0 0 0 0 0 0 0 0 0 127 0"/>
            <feOffset/>
            <feGaussianBlur stdDeviation="12"/>
            <feColorMatrix values="0 0 0 0 0 0 0 0 0 0 0 0 0 0 0 0 0 0 0.15 0"/>
            <feBlend in2="BackgroundImageFix" result="effect1_dropShadow"/>
            <feBlend in="SourceGraphic" in2="effect1_dropShadow" result="shape"/>
        </filter>
        <filter id="filter2_d" width="116.827" height="117.242" x="131.596" y="0" color-interpolation-filters="sRGB" filterUnits="userSpaceOnUse">
            <feFlood flood-opacity="0" result="BackgroundImageFix"/>
            <feColorMatrix in="SourceAlpha" values="0 0 0 0 0 0 0 0 0 0 0 0 0 0 0 0 0 0 127 0"/>
            <feOffset/>
            <feGaussianBlur stdDeviation="12"/>
            <feColorMatrix values="0 0 0 0 0 0 0 0 0 0 0 0 0 0 0 0 0 0 0.15 0"/>
            <feBlend in2="BackgroundImageFix" result="effect1_dropShadow"/>
            <feBlend in="SourceGraphic" in2="effect1_dropShadow" result="shape"/>
        </filter>
        <filter id="filter3_d" width="117.361" height="116.709" x="264.64" y="134.167" color-interpolation-filters="sRGB" filterUnits="userSpaceOnUse">
            <feFlood flood-opacity="0" result="BackgroundImageFix"/>
            <feColorMatrix in="SourceAlpha" values="0 0 0 0 0 0 0 0 0 0 0 0 0 0 0 0 0 0 127 0"/>
            <feOffset/>
            <feGaussianBlur stdDeviation="12"/>
            <feColorMatrix values="0 0 0 0 0 0 0 0 0 0 0 0 0 0 0 0 0 0 0.15 0"/>
            <feBlend in2="BackgroundImageFix" result="effect1_dropShadow"/>
            <feBlend in="SourceGraphic" in2="effect1_dropShadow" result="shape"/>
        </filter>
        <filter id="filter4_d" width="117.281" height="117.162" x="38.615" y="39.006" color-interpolation-filters="sRGB" filterUnits="userSpaceOnUse">
            <feFlood flood-opacity="0" result="BackgroundImageFix"/>
            <feColorMatrix in="SourceAlpha" values="0 0 0 0 0 0 0 0 0 0 0 0 0 0 0 0 0 0 127 0"/>
            <feOffset/>
            <feGaussianBlur stdDeviation="12"/>
            <feColorMatrix values="0 0 0 0 0 0 0 0 0 0 0 0 0 0 0 0 0 0 0.15 0"/>
            <feBlend in2="BackgroundImageFix" result="effect1_dropShadow"/>
            <feBlend in="SourceGraphic" in2="effect1_dropShadow" result="shape"/>
        </filter>
        <filter id="filter5_d" width="117.281" height="117.162" x="225.877" y="228.69" color-interpolation-filters="sRGB" filterUnits="userSpaceOnUse">
            <feFlood flood-opacity="0" result="BackgroundImageFix"/>
            <feColorMatrix in="SourceAlpha" values="0 0 0 0 0 0 0 0 0 0 0 0 0 0 0 0 0 0 127 0"/>
            <feOffset/>
            <feGaussianBlur stdDeviation="12"/>
            <feColorMatrix values="0 0 0 0 0 0 0 0 0 0 0 0 0 0 0 0 0 0 0.15 0"/>
            <feBlend in2="BackgroundImageFix" result="effect1_dropShadow"/>
            <feBlend in="SourceGraphic" in2="effect1_dropShadow" result="shape"/>
        </filter>
        <filter id="filter6_d" width="117.281" height="117.162" x="225.877" y="39.006" color-interpolation-filters="sRGB" filterUnits="userSpaceOnUse">
            <feFlood flood-opacity="0" result="BackgroundImageFix"/>
            <feColorMatrix in="SourceAlpha" values="0 0 0 0 0 0 0 0 0 0 0 0 0 0 0 0 0 0 127 0"/>
            <feOffset/>
            <feGaussianBlur stdDeviation="12"/>
            <feColorMatrix values="0 0 0 0 0 0 0 0 0 0 0 0 0 0 0 0 0 0 0.15 0"/>
            <feBlend in2="BackgroundImageFix" result="effect1_dropShadow"/>
            <feBlend in="SourceGraphic" in2="effect1_dropShadow" result="shape"/>
        </filter>
        <filter id="filter7_d" width="117.361" height="116.709" x="0" y="134.167" color-interpolation-filters="sRGB" filterUnits="userSpaceOnUse">
            <feFlood flood-opacity="0" result="BackgroundImageFix"/>
            <feColorMatrix in="SourceAlpha" values="0 0 0 0 0 0 0 0 0 0 0 0 0 0 0 0 0 0 127 0"/>
            <feOffset/>
            <feGaussianBlur stdDeviation="12"/>
            <feColorMatrix values="0 0 0 0 0 0 0 0 0 0 0 0 0 0 0 0 0 0 0.15 0"/>
            <feBlend in2="BackgroundImageFix" result="effect1_dropShadow"/>
            <feBlend in="SourceGraphic" in2="effect1_dropShadow" result="shape"/>
        </filter>
        <radialGradient id="paint0_radial" cx="0" cy="0" r="1" gradientTransform="matrix(0 -21.9172 21.9016 0 190 330.529)" gradientUnits="userSpaceOnUse">
            <stop stop-color="#FFB900"/>
            <stop offset=".6" stop-color="#F95D8F"/>
            <stop offset=".999" stop-color="#F95353"/>
        </radialGradient>
        <radialGradient id="paint1_radial" cx="0" cy="0" r="1" gradientTransform="matrix(0 -21.9172 21.9016 0 190.001 330.529)" gradientUnits="userSpaceOnUse">
            <stop stop-color="#FFB900"/>
            <stop offset=".6" stop-color="#F95D8F"/>
            <stop offset=".999" stop-color="#F95353"/>
        </radialGradient>
        <radialGradient id="paint2_radial" cx="0" cy="0" r="1" gradientTransform="matrix(0 -21.9172 21.9016 0 190 330.529)" gradientUnits="userSpaceOnUse">
            <stop stop-color="#FFB900"/>
            <stop offset=".6" stop-color="#F95D8F"/>
            <stop offset=".999" stop-color="#F95353"/>
        </radialGradient>
        <linearGradient id="paint3_linear" x1="188.462" x2="178.546" y1="44.145" y2="54.078" gradientUnits="userSpaceOnUse">
            <stop offset=".18" stop-color="#0052CC"/>
            <stop offset="1" stop-color="#2684FF"/>
        </linearGradient>
        <linearGradient id="paint4_linear" x1="794.865" x2="1137.58" y1="1507.25" y2="1284.76" gradientUnits="userSpaceOnUse">
            <stop offset=".18" stop-color="#0052CC"/>
            <stop offset="1" stop-color="#2684FF"/>
        </linearGradient>
        <clipPath id="clip0">
            <path fill="#fff" d="M0 0H40V37H0z" transform="translate(170 309)"/>
        </clipPath>
        <clipPath id="clip1">
            <path fill="#fff" d="M0 0H44V38H0z" transform="translate(301 173)"/>
        </clipPath>
    </defs>
</svg>
