<svg width="500" height="300" viewBox="0 0 500 300" fill="none" xmlns="http://www.w3.org/2000/svg">
<path d="M387.883 107.743C387.883 111.435 387.883 115.127 387.883 118.819C387.883 126.5 387.911 134.181 387.856 141.863C387.846 143.206 387.639 144.594 387.249 145.876C386.594 148.029 384.978 149.151 382.996 149.117C381.018 149.086 379.433 147.917 378.839 145.739C378.469 144.389 378.3 142.943 378.296 141.538C378.259 126.233 378.262 110.926 378.289 95.6213C378.293 94.2095 378.408 92.7703 378.71 91.3927C379.274 88.8186 381.245 86.9419 383.448 86.6274C386.102 86.2479 387.938 87.482 389.166 89.7074C393.106 96.8622 396.999 104.044 400.915 111.213C404.065 116.976 407.224 122.733 410.744 128.469C410.774 127.844 410.829 127.215 410.829 126.589C410.835 115.722 410.808 104.855 410.863 93.9873C410.869 92.4763 411.087 90.9107 411.521 89.4681C412.105 87.523 413.581 86.6103 415.468 86.5864C417.47 86.559 418.868 87.5299 419.496 89.3621C419.931 90.6236 420.185 92.0149 420.189 93.3515C420.233 109.398 420.226 125.444 420.202 141.49C420.199 142.618 420.077 143.77 419.812 144.864C418.76 149.212 413.971 150.675 410.703 147.599C409.651 146.607 408.752 145.367 408.056 144.088C401.771 132.588 395.547 121.055 389.302 109.534C388.959 108.902 388.6 108.276 388.247 107.651C388.124 107.675 388.006 107.709 387.883 107.743Z" fill="white"/>
<path d="M263.133 128.678C263.133 128.083 263.133 127.488 263.133 126.893C263.133 115.739 263.112 104.588 263.16 93.4369C263.167 92.0969 263.394 90.7056 263.808 89.4339C264.443 87.4854 265.871 86.6035 267.772 86.5761C269.788 86.5488 271.203 87.5606 271.787 89.3792C272.282 90.921 272.533 92.6062 272.54 94.2266C272.594 109.647 272.588 125.068 272.55 140.488C272.547 142.01 272.398 143.575 272.011 145.038C270.877 149.305 266.174 150.624 262.96 147.565C261.911 146.566 261.015 145.329 260.316 144.05C253.976 132.452 247.698 120.819 241.399 109.196C241.104 108.656 240.802 108.119 240.127 107.596C240.127 108.153 240.127 108.711 240.127 109.264C240.127 120.019 240.14 130.773 240.106 141.528C240.103 142.881 239.987 144.269 239.662 145.575C239.112 147.78 237.432 149.076 235.43 149.113C233.376 149.151 231.792 147.995 231.109 145.722C230.773 144.597 230.597 143.38 230.594 142.204C230.56 126.442 230.549 110.68 230.607 94.9205C230.614 93.307 230.824 91.567 231.452 90.1074C233.353 85.7147 238.643 85.2395 241.128 89.3074C243.816 93.707 246.144 98.3287 248.621 102.858C253.06 110.97 257.492 119.089 261.931 127.201C262.216 127.724 262.539 128.226 262.848 128.739C262.946 128.722 263.041 128.702 263.133 128.678Z" fill="white"/>
<path d="M278.34 194.414C278.34 193.871 278.34 193.324 278.34 192.78C278.34 183.168 278.327 173.555 278.357 163.942C278.361 162.705 278.466 161.43 278.781 160.244C279.318 158.234 280.791 157.184 282.742 157.143C284.805 157.102 286.336 158.104 286.954 160.144C287.293 161.269 287.473 162.486 287.473 163.659C287.507 177.592 287.5 191.529 287.486 205.463C287.486 206.252 287.388 207.049 287.276 207.835C286.984 209.917 286.221 211.729 284.025 212.385C281.775 213.059 279.535 212.853 277.899 211.062C276.46 209.49 275.232 207.681 274.132 205.842C268.427 196.301 262.797 186.719 257.136 177.151C256.861 176.69 256.559 176.242 256.009 175.377C256.009 176.403 256.009 176.943 256.009 177.486C256.009 186.87 256.023 196.257 255.992 205.641C255.989 206.878 255.887 208.153 255.582 209.35C255.042 211.455 253.42 212.648 251.397 212.676C249.297 212.703 247.793 211.66 247.145 209.483C246.826 208.413 246.7 207.251 246.697 206.129C246.666 192.421 246.673 178.713 246.687 165.005C246.687 164.1 246.744 163.183 246.867 162.288C247.199 159.823 248.923 157.844 251.136 157.307C253.596 156.712 255.619 157.437 257.116 159.775C259.193 163.023 261.103 166.376 263.089 169.682C267.809 177.565 272.534 185.444 277.254 193.327C277.485 193.71 277.716 194.09 277.947 194.473C278.076 194.452 278.208 194.435 278.34 194.414Z" fill="white"/>
<path d="M341.901 111.903C343.15 111.903 344.325 111.903 345.495 111.903C351.258 111.903 357.021 111.897 362.787 111.907C365.739 111.914 367.338 113.466 367.409 116.358C367.484 119.328 365.892 121.126 362.929 121.154C356.657 121.215 350.386 121.178 344.114 121.178C343.442 121.178 342.77 121.178 341.956 121.178C341.956 126.856 341.956 132.441 341.956 138.249C342.546 138.249 343.147 138.249 343.744 138.249C350.807 138.249 357.869 138.236 364.931 138.256C368.953 138.266 370.966 140.878 369.998 144.772C369.449 146.987 367.942 148.084 365.315 148.091C358.592 148.108 351.869 148.098 345.143 148.098C342.655 148.098 340.171 148.115 337.683 148.094C333.93 148.064 332.06 146.358 331.673 142.601C331.585 141.757 331.585 140.899 331.585 140.044C331.581 125.256 331.581 110.468 331.581 95.6794C331.581 95.6213 331.581 95.5666 331.581 95.5085C331.489 88.9348 333.902 87.4512 339.349 87.564C347.651 87.735 355.958 87.5982 364.266 87.6153C367.972 87.6221 369.672 89.5262 369.306 93.184C369.096 95.276 367.891 96.6195 365.821 96.9818C365.047 97.1152 364.249 97.163 363.462 97.1664C356.909 97.1801 350.352 97.1733 343.799 97.1733C343.195 97.1733 342.587 97.1733 341.898 97.1733C341.901 102.099 341.901 106.861 341.901 111.903Z" fill="white"/>
<path d="M315.315 185.342C315.315 177.951 315.22 170.56 315.359 163.173C315.42 159.943 317.117 158.179 320.185 158.121C326.053 158.005 331.934 157.981 337.799 158.24C346.778 158.64 352.225 163.915 354.951 172.092C357.717 180.392 357.662 188.911 355.11 197.259C352.171 206.888 345.591 211.637 335.593 211.76C330.791 211.818 325.988 211.801 321.19 211.76C317.12 211.725 315.587 210.228 315.308 206.15C315.271 205.582 315.196 205.015 315.196 204.451C315.189 198.082 315.189 191.714 315.189 185.345C315.234 185.342 315.274 185.342 315.315 185.342ZM325.228 203.06C328.12 203.06 330.93 203.066 333.74 203.056C340.14 203.032 343.673 200.53 345.496 194.37C347.321 188.196 347.318 181.903 345.73 175.685C344.892 172.41 343.185 169.494 339.923 168.12C335.209 166.134 330.21 166.773 325.228 166.732C325.228 178.943 325.228 190.914 325.228 203.06Z" fill="white"/>
<path d="M302.317 134.8C303.898 129.129 305.385 123.793 306.875 118.46C309.474 109.165 312.057 99.867 314.687 90.5825C315.271 88.5178 316.302 86.7812 318.749 86.6C321.519 86.3949 323.911 88.6101 323.962 91.6593C323.986 93.1635 323.728 94.7325 323.293 96.1785C318.732 111.285 314.117 126.37 309.481 141.456C309.05 142.861 308.507 144.256 307.815 145.544C306.573 147.862 304.655 149.171 301.92 149.127C299.266 149.082 297.365 147.807 296.228 145.507C295.38 143.787 294.715 141.958 294.155 140.119C289.729 125.625 285.297 111.134 281.011 96.599C280.424 94.606 280.261 92.3362 280.532 90.2817C280.828 88.0358 282.816 86.6821 284.825 86.5864C287.198 86.477 288.562 87.2154 289.383 89.8031C291.253 95.6965 292.936 101.648 294.627 107.596C297.029 116.06 299.371 124.541 301.743 133.012C301.882 133.501 302.052 133.976 302.317 134.8Z" fill="white"/>
<path d="M429.81 198.964C428.754 202.01 427.74 204.95 426.708 207.886C426.484 208.526 426.219 209.155 425.927 209.77C424.716 212.334 423.005 213.226 420.677 212.525C418.492 211.869 416.856 209.438 417.205 207.097C417.406 205.76 417.809 204.441 418.264 203.162C422.917 190.073 427.594 176.994 432.284 163.918C432.684 162.801 433.139 161.69 433.706 160.65C436.231 156.015 442.482 155.783 445.272 160.257C446.1 161.587 446.694 163.091 447.237 164.575C451.856 177.131 456.451 189.697 461.019 202.277C461.558 203.76 462.013 205.302 462.268 206.858C462.682 209.363 461.148 211.811 458.928 212.508C456.576 213.247 454.492 212.276 453.39 209.616C452.11 206.533 451.099 203.333 449.87 200.226C449.66 199.699 448.94 199.022 448.448 199.016C442.295 198.937 436.139 198.964 429.81 198.964ZM446.779 190.716C444.362 183.434 442.031 176.403 439.699 169.374C439.57 169.391 439.441 169.412 439.309 169.429C437.018 176.491 434.727 183.554 432.403 190.716C437.283 190.716 441.898 190.716 446.779 190.716Z" fill="white"/>
<path d="M442.543 97.7373C438.722 97.7373 435.165 97.7578 431.609 97.7305C427.954 97.7031 426.233 95.823 426.437 92.1482C426.586 89.4237 428.239 87.7623 430.971 87.6187C431.704 87.5811 432.44 87.6051 433.173 87.6051C443.344 87.6051 453.515 87.5948 463.686 87.6119C467.083 87.6187 468.882 89.2938 468.991 92.4558C469.099 95.6487 467.29 97.6587 464.117 97.7202C461.012 97.7818 457.903 97.7339 454.795 97.7373C454.177 97.7373 453.559 97.7373 452.714 97.7373C452.714 98.5167 452.714 99.1799 452.714 99.8431C452.714 113.835 452.735 127.83 452.684 141.822C452.677 143.268 452.429 144.785 451.944 146.143C451.289 147.985 449.85 149.062 447.807 149.113C445.699 149.168 444.115 148.166 443.436 146.248C442.879 144.679 442.587 142.936 442.577 141.268C442.513 127.447 442.54 113.623 442.54 99.8021C442.543 99.1902 442.543 98.5748 442.543 97.7373Z" fill="white"/>
<path d="M219.214 117.417C219.214 125.266 219.245 133.115 219.187 140.964C219.177 142.536 219.004 144.156 218.586 145.667C217.972 147.883 216.18 149.113 214.076 149.117C212.047 149.123 210.313 147.975 209.647 145.801C209.189 144.303 208.958 142.68 208.952 141.111C208.904 125.584 208.904 110.057 208.952 94.5308C208.955 92.9618 209.206 91.3448 209.641 89.8407C210.245 87.7589 211.935 86.6171 213.92 86.5829C216.099 86.5453 217.772 87.5367 218.447 89.7108C218.939 91.3072 219.163 93.0438 219.18 94.7223C219.258 102.291 219.214 109.856 219.214 117.417Z" fill="white"/>
<path d="M218.647 184.99C218.647 191.929 218.674 198.869 218.624 205.811C218.613 207.042 218.42 208.314 218.067 209.49C217.473 211.479 215.902 212.583 213.92 212.672C211.829 212.765 210.078 211.794 209.382 209.811C208.941 208.553 208.727 207.152 208.724 205.815C208.68 191.878 208.68 177.941 208.721 164.004C208.724 162.719 208.907 161.379 209.301 160.158C209.936 158.196 211.571 157.16 213.574 157.143C215.695 157.126 217.341 158.131 218.013 160.162C218.413 161.379 218.61 162.715 218.62 163.997C218.678 170.995 218.647 177.992 218.647 184.99Z" fill="white"/>
<path d="M392.747 184.993C392.747 191.82 392.77 198.646 392.726 205.473C392.72 206.765 392.601 208.102 392.265 209.343C391.688 211.462 389.991 212.645 387.873 212.679C385.722 212.713 384.079 211.613 383.356 209.507C383.068 208.662 382.878 207.733 382.874 206.844C382.844 192.223 382.837 177.606 382.864 162.985C382.871 159.061 385.216 156.736 388.535 157.211C390.948 157.557 392.56 159.471 392.665 162.472C392.791 166.052 392.737 169.637 392.743 173.22C392.753 177.141 392.747 181.069 392.747 184.993Z" fill="white"/>
<path fill-rule="evenodd" clip-rule="evenodd" d="M103.123 137.633L103.117 137.631L103.074 137.613C99.909 136.313 96.7593 135.02 93.6095 133.727C88.9999 131.835 84.3902 129.944 79.7807 128.053L79.778 128.051C66.3647 122.548 52.9524 117.044 39.5438 111.531C32.2235 108.523 29.1454 101.098 32.1319 93.7178L34.2966 88.3663C38 79.2104 41.7037 70.0537 45.4218 60.9041C48.5915 53.093 55.8134 50.0642 63.5681 53.2502C71.9431 56.6916 80.3181 60.1326 88.6932 63.5737C105.442 70.4552 122.191 77.3368 138.94 84.2214C147.146 87.5954 150.085 94.5998 146.742 102.907C144.33 108.907 141.894 114.898 139.458 120.889C138.24 123.885 137.022 126.881 135.807 129.878C135.638 130.295 135.483 130.717 135.315 131.179L135.315 131.179C135.23 131.41 135.142 131.651 135.047 131.905C136.513 132.481 137.971 133.055 139.425 133.627C142.993 135.031 146.532 136.423 150.075 137.805C152.433 138.727 154.793 139.642 157.153 140.558L157.162 140.562L157.165 140.563C160.169 141.729 163.173 142.895 166.175 144.071C173.654 147.001 176.855 154.296 173.939 161.868C164.013 187.657 154.069 213.439 144.115 239.214C141.281 246.55 133.944 249.807 126.692 246.984C115.642 242.68 104.595 238.369 93.5552 234.048C86.0584 231.115 82.8514 223.824 85.7598 216.266C92.1789 199.59 98.6094 182.921 105.04 166.252L105.045 166.238C107.884 158.879 110.723 151.52 113.561 144.16C113.683 143.844 113.8 143.524 113.931 143.169L113.931 143.169C114.037 142.88 114.152 142.568 114.284 142.215C110.526 140.673 106.814 139.149 103.123 137.633ZM109 128C121.15 128 131 117.926 131 105.5C131 93.0736 121.15 83 109 83C96.8497 83 87 93.0736 87 105.5C87 117.926 96.8497 128 109 128ZM160 168.5C160 180.926 149.926 191 137.5 191C125.074 191 115 180.926 115 168.5C115 156.074 125.074 146 137.5 146C149.926 146 160 156.074 160 168.5Z" fill="white"/>
</svg>
