<svg xmlns="http://www.w3.org/2000/svg" width="168" height="32" fill="none" viewBox="0 0 168 32">
    <path fill="#5C6369" d="M55.883 16.7c0 3.284-.91 5.797-2.732 7.54-1.82 1.732-4.443 2.599-7.867 2.599h-5.557V6.943h6.141c3.162 0 5.621.852 7.379 2.558 1.757 1.706 2.636 4.105 2.636 7.2zm-3.425.109c0-4.763-2.223-7.145-6.671-7.145h-2.813v14.44h2.31c4.783 0 7.175-2.432 7.175-7.295zM66.386 27.11c-2.337 0-4.167-.68-5.49-2.04-1.313-1.37-1.97-3.253-1.97-5.648 0-2.459.612-4.391 1.835-5.798 1.223-1.406 2.903-2.109 5.04-2.109 1.985 0 3.552.603 4.702 1.81s1.726 2.867 1.726 4.981v1.728H62.215c.045 1.461.439 2.586 1.182 3.375.743.78 1.789 1.17 3.139 1.17.887 0 1.712-.081 2.473-.244.77-.173 1.594-.454 2.473-.844v2.6c-.78.371-1.567.634-2.365.789-.797.154-1.707.23-2.73.23zm-.584-13.172c-1.015 0-1.83.322-2.446.966-.607.644-.97 1.583-1.087 2.817h6.821c-.018-1.243-.317-2.182-.897-2.817-.58-.644-1.376-.966-2.391-.966zM85.953 22.552c0 1.47-.535 2.6-1.603 3.389-1.07.78-2.6 1.17-4.593 1.17-2.002 0-3.61-.304-4.824-.912v-2.763c1.766.817 3.41 1.225 4.932 1.225 1.966 0 2.95-.594 2.95-1.782 0-.382-.11-.699-.327-.953-.217-.254-.575-.517-1.073-.79-.499-.272-1.192-.58-2.08-.925-1.73-.671-2.903-1.342-3.519-2.014-.607-.671-.91-1.542-.91-2.613 0-1.288.516-2.286 1.549-2.994 1.042-.716 2.455-1.075 4.24-1.075 1.766 0 3.437.358 5.013 1.075L84.676 15c-1.622-.671-2.985-1.007-4.09-1.007-1.685 0-2.528.48-2.528 1.442 0 .472.218.871.652 1.198.444.327 1.405.776 2.881 1.347 1.241.481 2.143.921 2.704 1.32.562.4.978.862 1.25 1.389.272.517.408 1.138.408 1.864zM92.502 18.891l1.808-2.259 4.538-4.845h3.682l-6.046 6.464 6.427 8.588h-3.75l-4.824-6.6-1.753 1.442v5.158h-3.166V5.663h3.166v10.33l-.163 2.898h.081zM112.545 26.839h-3.248V9.732h-5.843v-2.79h14.933v2.79h-5.842V26.84zM124.298 26.839h-3.193V11.787h3.193V26.84zm-3.383-19.04c0-.57.154-1.01.462-1.32.317-.308.765-.462 1.345-.462.562 0 .997.154 1.305.463.317.308.475.748.475 1.32 0 .544-.158.975-.475 1.293-.308.308-.743.462-1.305.462-.58 0-1.028-.154-1.345-.462-.308-.318-.462-.749-.462-1.293zM141.541 26.839h-3.206v-9.281c0-1.153-.218-2.01-.653-2.573-.434-.571-1.114-.857-2.038-.857-1.232 0-2.138.404-2.717 1.211-.571.799-.856 2.132-.856 4.001v7.499h-3.194V11.787h2.501l.448 1.974h.163c.417-.717 1.019-1.27 1.807-1.66.797-.39 1.672-.586 2.623-.586 2.31 0 3.841.79 4.592 2.368h.218c.444-.744 1.069-1.324 1.875-1.742.806-.417 1.73-.626 2.772-.626 1.794 0 3.098.454 3.913 1.361.825.907 1.237 2.29 1.237 4.15v9.813h-3.193v-9.281c0-1.153-.222-2.01-.666-2.573-.435-.571-1.114-.857-2.038-.857-1.241 0-2.152.39-2.732 1.17-.57.772-.856 1.96-.856 3.566v7.975zM162.046 27.11c-2.337 0-4.167-.68-5.49-2.04-1.313-1.37-1.97-3.253-1.97-5.648 0-2.459.611-4.391 1.834-5.798 1.223-1.406 2.904-2.109 5.041-2.109 1.984 0 3.551.603 4.702 1.81 1.15 1.207 1.726 2.867 1.726 4.981v1.728h-10.015c.046 1.461.44 2.586 1.182 3.375.743.78 1.789 1.17 3.139 1.17.888 0 1.712-.081 2.473-.244.77-.173 1.595-.454 2.473-.844v2.6c-.779.371-1.567.634-2.364.789-.797.154-1.708.23-2.731.23zm-.585-13.172c-1.014 0-1.829.322-2.445.966-.607.644-.97 1.583-1.087 2.817h6.821c-.018-1.243-.317-2.182-.897-2.817-.58-.644-1.377-.966-2.392-.966z"/>
    <g clip-path="url(#clip0)">
        <g clip-path="url(#clip1)">
            <path fill="#55A226" stroke="#55A126" stroke-width=".2" d="M16.027 2.672v.225c7.186 0 13.01 5.833 13.01 13.03 0 7.196-5.824 13.03-13.01 13.03-7.185 0-13.01-5.834-13.01-13.03h-.224c0 7.32 5.925 13.255 13.234 13.255 7.31 0 13.235-5.934 13.235-13.255-.002-7.32-5.927-13.255-13.235-13.255z"/>
            <path fill="#5AAB29" stroke="#5AAB29" stroke-width=".2" d="M28.812 15.926c0 7.073-5.725 12.806-12.786 12.806C8.964 28.732 3.24 23 3.24 15.926h-.224c0 7.197 5.824 13.03 13.01 13.03 7.185 0 13.01-5.833 13.01-13.03 0-7.196-5.825-13.03-13.01-13.03v.225c7.063 0 12.786 5.733 12.786 12.805z"/>
            <path fill="#5CB02B" stroke="#5CB02B" stroke-width=".2" d="M28.59 15.927c0 6.948-5.625 12.58-12.563 12.58-6.937 0-12.562-5.632-12.562-12.58h-.224c0 7.072 5.725 12.805 12.786 12.805 7.062 0 12.786-5.733 12.786-12.805 0-7.073-5.724-12.806-12.786-12.806v.224c6.938 0 12.562 5.633 12.562 12.582z"/>
            <path fill="#5EB52B" stroke="#5EB52B" stroke-width=".2" d="M16.027 28.508c6.938 0 12.562-5.633 12.562-12.581 0-6.949-5.624-12.582-12.562-12.582v.225c6.814 0 12.338 5.532 12.338 12.357 0 6.824-5.524 12.356-12.338 12.356-6.813 0-12.337-5.532-12.337-12.356h-.225c0 6.948 5.625 12.58 12.562 12.58z"/>
            <path fill="#5FB92A" stroke="#5FB92A" stroke-width=".2" d="M3.69 15.926c0 6.825 5.524 12.357 12.338 12.357 6.813 0 12.337-5.532 12.337-12.357 0-6.824-5.524-12.356-12.337-12.356v12.356H3.69z"/>
            <path fill="#ECECEC" stroke="#CECECE" stroke-width=".2" d="M11.19 4.555c-4.41 1.885-7.502 6.266-7.502 11.37h12.338L11.19 4.555z"/>
            <path fill="#FF5715" stroke="#FF5715" stroke-width=".2" d="M16.027 15.926V3.57c-1.717 0-3.352.351-4.837.986l4.837 11.373v-.003z"/>
            <path fill="#B0B0B0" stroke="#B0B0B0" stroke-width=".2" d="M10.927 3.936l-.089-.206c-4.73 2.02-8.045 6.72-8.045 12.197h.224c0-5.384 3.26-10.004 7.91-11.991z"/>
            <path fill="#BBB" stroke="#BBB" stroke-width=".2" d="M11.014 4.143l-.087-.207c-4.65 1.986-7.91 6.608-7.91 11.99h.224c0-5.29 3.203-9.83 7.773-11.783z"/>
            <path fill="#CACACA" stroke="#CACACA" stroke-width=".2" d="M3.241 15.927h.224c0-5.197 3.148-9.659 7.637-11.578l-.088-.206C6.444 6.095 3.24 10.636 3.24 15.927z"/>
            <path fill="#DDD" stroke="#DDD" stroke-width=".2" d="M11.19 4.555l-.09-.206c-4.49 1.92-7.636 6.38-7.636 11.578h.225c0-5.105 3.09-9.487 7.5-11.372z"/>
            <path fill="#F2340F" stroke="#F2340F" stroke-width=".2" d="M16.027 2.896v-.224c-1.842 0-3.594.378-5.189 1.058l.089.206c1.565-.668 3.29-1.04 5.1-1.04z"/>
            <path fill="#F93A0D" stroke="#F93A0D" stroke-width=".2" d="M11.014 4.143c1.539-.658 3.233-1.022 5.012-1.022v-.225c-1.81 0-3.534.371-5.1 1.04l.088.207z"/>
            <path fill="#FF3F0B" stroke="#FF3F0B" stroke-width=".2" d="M16.027 3.345v-.224c-1.778 0-3.473.364-5.012 1.022l.088.206c1.512-.646 3.176-1.004 4.925-1.004z"/>
            <path fill="#FF4A12" stroke="#FF4A12" stroke-width=".2" d="M16.027 3.57v-.225c-1.748 0-3.412.358-4.925 1.004l.088.206c1.485-.634 3.12-.985 4.837-.985z"/>
            <path fill="#191919" d="M19.005 8.145c-.06-.024-.126 0-.157.057l-2.632 4.99c-.072-.004-.144-.008-.212-.008-1.436 0-2.605 1.17-2.605 2.608 0 1.309.967 2.412 2.258 2.583l1.846 7.848c.016.068.073.111.14.111.008 0 .017 0 .026-.003.078-.013.13-.078.122-.155l-.728-7.999c.941-.418 1.547-1.35 1.547-2.384 0-.79-.352-1.526-.967-2.024l1.439-5.475c.015-.063-.016-.125-.077-.149z"/>
            <path fill="#262626" d="M16.005 17.735c1.071 0 1.939-.869 1.939-1.941s-.868-1.942-1.939-1.942c-1.07 0-1.938.87-1.938 1.942s.868 1.941 1.938 1.941z"/>
            <path fill="#191919" d="M16.005 16.397c.333 0 .603-.27.603-.603 0-.334-.27-.604-.603-.604-.333 0-.603.27-.603.604 0 .333.27.603.603.603z"/>
            <path fill="#262626" d="M16.005 16.277c.267 0 .483-.217.483-.484s-.216-.483-.483-.483c-.266 0-.482.216-.482.483s.216.484.482.484z"/>
            <path fill="#191919" fill-rule="evenodd" d="M30.177 15.582c-.006-.195-.028-.584-.028-.584-.49-7.537-6.86-13.429-14.467-13.244-3.574.087-6.809 1.5-9.248 3.758-2.677 2.476-4.397 5.97-4.55 9.842-.012.303-.016.609-.008.916.19 7.815 6.691 14.018 14.494 13.828 4.11-.1 7.775-1.954 10.294-4.831 2.262-2.582 3.602-5.987 3.513-9.685zm-14.67 13.591v-1.327c0-.286.233-.519.52-.519.286 0 .518.233.518.52v1.327c3.778-.147 7.134-1.873 9.449-4.525 1.933-2.215 3.138-5.074 3.258-8.202h-1.324c-.287-.001-.52-.233-.52-.52 0-.287.233-.52.519-.52h1.326c-.27-6.944-5.845-12.464-12.708-12.727v1.334c0 .287-.232.52-.52.52-.285 0-.517-.233-.517-.52V2.68c-1.582.062-3.089.4-4.476.967-1.47.6-2.805 1.455-3.952 2.51-2.52 2.317-4.136 5.595-4.28 9.236v.013h1.325c.287 0 .52.233.52.52 0 .287-.233.52-.52.52H2.8c.27 6.944 5.845 12.464 12.707 12.727z" clip-rule="evenodd"/>
            <path fill="#F4F4F4" d="M26.311 5.134C20.547-.364 11.52-.35 5.77 5.014c-.218.203-.434.415-.643.634-5.7 5.993-5.468 15.51.514 21.218 5.982 5.707 15.486 5.476 21.184-.515.134-.14.263-.283.39-.427 5.294-6.008 4.939-15.216-.904-20.79zm.172 20.094c-.127.144-.254.287-.388.427-5.314 5.588-14.179 5.803-19.759.48s-5.794-14.2-.48-19.79c.21-.22.426-.43.645-.633 5.364-4.961 13.755-4.96 19.115.154 5.44 5.189 5.78 13.756.867 19.362z"/>
            <path fill="#E0E0E0" d="M31.946 15.612C31.733 6.792 24.394-.21 15.588.005c-4.083.099-7.774 1.731-10.54 4.333C1.849 7.35-.11 11.656.006 16.388c.213 8.82 7.552 15.821 16.358 15.607 4.608-.112 8.718-2.178 11.56-5.386 2.588-2.922 4.125-6.793 4.023-10.997zm-4.85 10.209c-2.64 2.995-6.467 4.927-10.76 5.032-8.178.198-14.993-6.303-15.19-14.492-.008-.302-.005-.6.006-.896.144-4.061 1.93-7.729 4.725-10.336 2.562-2.39 5.97-3.89 9.738-3.98C23.601.954 30.285 7.15 30.78 15.07c.012.19.021.38.026.57.094 3.889-1.32 7.47-3.709 10.18z"/>
        </g>
    </g>
    <defs>
        <clipPath id="clip0">
            <path fill="#fff" d="M0 0H31.951V32H0z"/>
        </clipPath>
        <clipPath id="clip1">
            <path fill="#fff" d="M0 0H31.951V32H0z"/>
        </clipPath>
    </defs>
</svg>
