<svg xmlns="http://www.w3.org/2000/svg" width="200" height="120" fill="none" viewBox="0 0 200 120">
    <g clip-path="url(#prefix__clip0)">
        <path fill="#fff" fill-rule="evenodd" d="M51.493 44.4h4.104l4.55 7.386 4.551-7.385h4.104v17.463h-3.784V50.462l-4.875 7.46h-.1l-4.818-7.385v11.327h-3.732V44.4zm35.113 8.78v-.048c0-2.993-2.174-5.491-5.241-5.491-3.068 0-5.194 2.445-5.194 5.438v.049c0 2.993 2.174 5.487 5.242 5.487 3.067 0 5.193-2.441 5.193-5.434zm-14.417 0v-.048c0-4.966 3.881-9.032 9.224-9.032 5.342 0 9.175 4.017 9.175 8.984v.048c0 4.966-3.88 9.032-9.223 9.032-5.343 0-9.176-4.017-9.176-8.983zm21.786-8.78h3.513l8.113 10.754V44.401h3.758v17.463h-3.238l-8.383-11.102v11.102h-3.759V44.4h-.004zm23.566 3.541h-5.268v-3.545h14.343v3.545h-5.268v13.923h-3.807V47.94zm10.655-3.54h4.078l3.588 11.826 3.881-11.875h3.264l3.881 11.875 3.588-11.826h3.982l-5.912 17.59h-3.312l-3.907-11.428-3.907 11.429h-3.317L128.196 44.4zm36.553 10.153l-2.301-5.664-2.298 5.664h4.599zm-4.008-10.281h3.514l7.421 17.59h-3.982l-1.58-3.915h-7.32l-1.58 3.916h-3.881l7.408-17.591z" clip-rule="evenodd"/>
        <mask id="prefix__a" width="18" height="18" x="170" y="44" maskUnits="userSpaceOnUse">
            <path fill="#fff" fill-rule="evenodd" d="M187.2 61.863V44.4h-17.113v17.463H187.2z" clip-rule="evenodd"/>
        </mask>
        <g mask="url(#prefix__a)">
            <path fill="#fff" fill-rule="evenodd" d="M176.738 54.977L170.087 44.4h4.45l4.131 7.01 4.205-7.01h4.327l-6.651 10.506v6.961h-3.807l-.004-6.89z" clip-rule="evenodd"/>
        </g>
        <path fill="#fff" fill-rule="evenodd" d="M58.07 71.756l-2.202-4.988-2.214 4.988h4.415zm-2.7-6.272h1.023l4.42 9.848h-1.177l-1.134-2.587h-5.276l-1.151 2.587h-1.12c0 .004 4.415-9.848 4.415-9.848zm7.202 5.756v-5.686h1.094v5.615c0 2.11 1.107 3.298 2.962 3.298 1.785 0 2.923-1.09 2.923-3.227v-5.686h1.093v5.602c0 2.851-1.618 4.33-4.042 4.33-2.398.005-4.03-1.479-4.03-4.246zm13.223-4.666h-3.256v-1.02h7.618v1.02h-3.255v8.762h-1.107v-8.762zm14.736 3.898v-.027c0-2.22-1.606-4.034-3.82-4.034-2.213 0-3.793 1.787-3.793 4.008v.026c0 2.22 1.606 4.04 3.82 4.04 2.214 0 3.793-1.793 3.793-4.013zm-8.75 0v-.027c0-2.697 2.008-5.059 4.957-5.059s4.931 2.336 4.931 5.028c.013.013.013.013 0 .027 0 2.697-2.008 5.058-4.957 5.058-2.954.005-4.932-2.33-4.932-5.027zm18.915-3.898H97.44v-1.02h7.618v1.02h-3.255v8.762h-1.107v-8.762zm10.479 3.968c1.453 0 2.494-.755 2.494-2.013v-.026c0-1.2-.914-1.93-2.481-1.93h-2.993v3.97h2.98zm-4.069-4.988h4.17c1.19 0 2.148.362 2.756.976.473.476.749 1.16.749 1.929v.026c0 1.62-1.107 2.57-2.63 2.852l2.975 3.995h-1.343l-2.814-3.8H108.2v3.8h-1.094v-9.778zm16.299 6.202l-2.206-4.988-2.214 4.988h4.42zm-2.7-6.272h1.024l4.415 9.848h-1.177l-1.138-2.587h-5.272l-1.151 2.587h-1.125l4.424-9.848zm7.351.07h1.024l6.108 7.84v-7.84h1.068v9.782h-.871l-6.261-8.02v8.02h-1.068v-9.782zm10.304 8.356l.679-.812c1.01.923 1.977 1.382 3.325 1.382 1.299 0 2.161-.698 2.161-1.664v-.027c0-.91-.485-1.426-2.52-1.858-2.231-.49-3.255-1.214-3.255-2.821v-.026c0-1.537 1.343-2.667 3.185-2.667 1.413 0 2.424.406 3.409 1.2l-.639.853c-.902-.742-1.799-1.064-2.796-1.064-1.26 0-2.065.697-2.065 1.58v.027c0 .922.498 1.439 2.629 1.898 2.162.477 3.159 1.271 3.159 2.768v.026c0 1.678-1.387 2.768-3.312 2.768-1.536 0-2.796-.516-3.96-1.563zm12.991-3.032c1.606 0 2.661-.865 2.661-2.15v-.026c0-1.4-1.037-2.124-2.604-2.124h-2.45v4.304l2.393-.004zm-3.491-5.324h3.627c2.188 0 3.627 1.174 3.627 3.103v.027c0 2.11-1.746 3.2-3.807 3.2h-2.354v3.452h-1.093v-9.782zm17.572 4.918v-.027c0-2.22-1.606-4.034-3.82-4.034-2.214 0-3.794 1.787-3.794 4.008v.026c0 2.22 1.606 4.04 3.825 4.04 2.209-.005 3.789-1.793 3.789-4.013zm-8.751 0v-.027c0-2.697 2.008-5.059 4.957-5.059s4.931 2.336 4.931 5.028c.013.013.013.013 0 .027 0 2.697-2.008 5.058-4.957 5.058-2.949.005-4.931-2.33-4.931-5.027zm16.272.07c1.453 0 2.494-.755 2.494-2.013v-.026c0-1.2-.914-1.93-2.481-1.93h-2.988v3.97h2.975zm-4.073-4.988h4.17c1.19 0 2.148.362 2.756.976.473.476.748 1.16.748 1.929v.026c0 1.62-1.107 2.57-2.629 2.852l2.975 3.995h-1.343l-2.809-3.8h-2.77v3.8h-1.094v-9.778h-.004zm12.575 1.02H178.2v-1.02h7.617v1.02h-3.255v8.762h-1.107v-8.762zM15.742 50.336c2.97-4.312 7.915-7.136 13.514-7.136 9.084 0 16.457 7.43 16.457 16.598S38.344 76.4 29.256 76.4c-9.088 0-16.456-7.434-16.456-16.602 0-.503.026-1.007.07-1.51h.01-.001.013l-.009-.009c.088-.98.263-1.95.52-2.9.373-.406.775-.777 1.204-1.117 2.687-2.123 5.798-3.372 9.044-4.308 2.321-.67 4.694-1.023 7.26-1.077a125.856 125.856 0 00-.578.653c-1.01 1.115-2.024 2.227-3.038 3.338-2.486 2.725-4.972 5.45-7.402 8.228a29.272 29.272 0 00-3.36 4.723c-.796 1.388.017 2.983 1.337 3.422.137.047.28.08.426.1.115-.288.21-.576.302-.857.195-.591.377-1.145.713-1.58 1.032-1.328 2.126-2.652 3.395-3.738 4.441-3.805 9.15-7.253 14.146-10.285.117-.074.246-.13.422-.205.1-.044.217-.094.356-.158-.537.673-1.067 1.324-1.587 1.961-1.15 1.41-2.25 2.76-3.268 4.167-1.65 2.273-3.19 4.635-4.695 7.01-.556.874-.285 1.774.477 2.335.25.183.503.288.737.259.206-.022.399-.144.566-.405 1.192-1.867 2.866-3.226 4.54-4.585.483-.392.966-.784 1.437-1.189.776-.665 1.575-1.302 2.375-1.94.391-.313.783-.625 1.172-.941-.11.332-.29.593-.465.845a5.498 5.498 0 00-.246.376c-.23.4-.463.798-.697 1.196-.775 1.322-1.552 2.647-2.204 4.03-.538 1.14-.394 2.411.367 3.497.347.494.826.785 1.32.836.42.047.853-.079 1.227-.399-1.217-.08-1.112-.91-.972-1.664.149-.79.346-1.598.665-2.335 1.138-2.64 3.015-4.741 5.032-6.719.683-.67.503-1.28.022-1.911-.401-.524-.802-.789-1.22-.786-.252-.002-.51.094-.78.287-1.216.878-2.41 1.779-3.587 2.706a271.755 271.755 0 00-3.262 2.628l-1.194.97c.323-.69.745-1.29 1.213-1.841 1.115-1.315 2.236-2.622 3.357-3.928.753-.879 1.506-1.756 2.257-2.636.985-1.148 1.103-1.89.468-2.768-.328-.455-.707-.75-1.139-.885-.525-.166-1.128-.092-1.814.227l-.08.037c-.425.195-.858.394-1.241.656-2.971 2.009-5.93 4.03-8.883 6.066-.557.385-1.094.798-1.632 1.21-.25.192-.5.384-.754.574.21-.469.515-.824.837-1.153.765-.785 1.533-1.568 2.3-2.351 1.62-1.653 3.24-3.306 4.841-4.977 1.129-1.179.823-2.503-.718-3.086-.682-.256-1.461-.41-2.183-.37l-.443.023c-2.055.106-4.122.212-6.15.542-2.19.351-4.345.86-6.402 1.635-.5.188-.994.392-1.482.614z" clip-rule="evenodd"/>
    </g>
    <defs>
        <clipPath id="prefix__clip0">
            <path fill="#fff" d="M12.8 43.2H187.20000000000002V76.4H12.8z"/>
        </clipPath>
    </defs>
</svg>
