<svg width="500" height="300" viewBox="0 0 500 300" fill="none" xmlns="http://www.w3.org/2000/svg">
<g clip-path="url(#clip0)">
<path d="M112.789 87.2208C78.7837 87.2208 51.2183 115.105 51.2183 149.502C51.2183 183.9 78.7837 211.784 112.789 211.784C146.793 211.784 174.359 183.9 174.359 149.502C174.359 115.105 146.789 87.2208 112.789 87.2208ZM112.789 199.162C85.6729 199.162 63.6913 176.927 63.6913 149.498C63.6913 122.069 85.6729 99.8378 112.789 99.8378C139.904 99.8378 161.886 122.073 161.886 149.502C161.886 176.931 139.9 199.162 112.789 199.162Z" fill="white" stroke="white" stroke-miterlimit="10"/>
<path d="M291.221 209.743C288.301 212.146 284.066 211.625 281.761 208.573L198.873 98.7912C196.572 95.7396 197.07 91.319 199.995 88.9166C202.915 86.5142 207.15 87.0353 209.455 90.0869L292.339 199.869C294.644 202.92 294.142 207.341 291.221 209.743Z" fill="white"/>
<path d="M288.825 211.779C285.105 211.779 282.088 208.728 282.088 204.965V94.2999C282.088 90.5374 285.105 87.4858 288.825 87.4858C292.544 87.4858 295.561 90.5374 295.561 94.2999V204.969C295.561 208.732 292.544 211.779 288.825 211.779Z" fill="white"/>
<path d="M203.972 211.704C200.252 211.704 197.235 208.653 197.235 204.89V94.2204C197.235 90.4579 200.252 87.4063 203.972 87.4063C207.691 87.4063 210.708 90.4579 210.708 94.2204V204.89C210.704 208.653 207.691 211.704 203.972 211.704Z" fill="white"/>
<path d="M411.983 192.516C404.762 196.742 396.375 199.162 387.43 199.162C360.314 199.162 338.332 176.927 338.332 149.498C338.332 122.069 360.314 99.8378 387.43 99.8378C414.545 99.8378 436.527 122.073 436.527 149.502C436.527 158.516 434.152 166.973 430 174.259L439.068 183.432C445.35 173.672 449.004 162.018 449.004 149.502C449 115.105 421.435 87.2208 387.43 87.2208C353.425 87.2208 325.859 115.105 325.859 149.502C325.859 183.9 353.425 211.784 387.43 211.784C399.833 211.784 411.38 208.07 421.046 201.684L411.983 192.516Z" fill="white"/>
<path d="M444.473 207.2C441.775 209.929 437.4 209.929 434.702 207.2L410.036 182.248C407.338 179.519 407.338 175.094 410.036 172.365C412.734 169.636 417.108 169.636 419.806 172.365L444.473 197.316C447.171 200.045 447.171 204.47 444.473 207.2Z" fill="white"/>
</g>
<defs>
<clipPath id="clip0">
<rect width="398" height="125" fill="white" transform="translate(51 87)"/>
</clipPath>
</defs>
</svg>
