<svg xmlns="http://www.w3.org/2000/svg" width="200" height="120" fill="none" viewBox="0 0 200 120">
    <g fill="#fff" clip-path="url(#prefix__clip0)">
        <path d="M123.866 38.856l-6.748 10.206-3.6-4.354c-6.597 4.804-11.844 6.155-11.844 6.155l4.949 7.052-12.146 17.26v-22.81c-8.998 1.048-13.794.6-13.794.6v25.813h27.738l7.947-11.708 7.947 11.708h29.539V49.662h8.546V38.857h-38.534zm3.298 19.062l5.549-8.105h6.748l.15 25.817-12.447-17.712z"/>
        <path fill-rule="evenodd" d="M37.2 65.42c.15 13.207 15.893 14.86 21.442 14.86 10.796 0 22.49-3.453 22.49-14.26 0-7.505-6.747-10.206-13.643-11.856-6.898-1.652-13.944-2.252-14.245-5.252 0-2.25 3.449-2.702 5.398-2.702 1.5 0 3.299.302 4.497 1.052 1.2.748 2.1 1.65 1.799 3.302h14.245C78.734 40.508 69.288 37.06 58.79 37.06c-10.047 0-19.644 4.2-19.644 13.656 0 8.256 8.697 10.056 16.493 12.007 8.395 1.95 10.495 2.55 10.495 4.652 0 3.004-3.748 3.751-6.149 3.751-2.85 0-6.148-.449-7.196-3-.298-.75-.6-1.652-.6-2.702H37.2v-.003zM80.533 39.007v11.856S113.22 53.715 121.468 30h-15.893c-.003 0-3.151 9.754-25.042 9.007z" clip-rule="evenodd"/>
        <path d="M127.49 89.382h-1.992l-.034-.859c-.055.037-.095.052-.113.08-.397.579-.981.843-1.645.945a4.286 4.286 0 01-1.801-.099 1.972 1.972 0 01-.738-.366c-.363-.292-.541-.67-.566-1.135-.04-.763.304-1.277.978-1.597.35-.167.719-.253 1.1-.311.738-.111 1.479-.05 2.22-.068l.47-.01c.089-.572-.157-.95-.679-1.08a2.32 2.32 0 00-.932-.018c-.353.056-.612.243-.661.631-.206.043-1.77.052-2.093.012-.049-.144.024-.276.064-.406.111-.344.342-.603.637-.803.359-.243.765-.375 1.189-.452.707-.133 1.418-.136 2.131-.065a4.64 4.64 0 011.122.228c.713.255 1.251.766 1.294 1.782.034.83.009 1.661.015 2.492.003.258.025.517.034.775.006.102 0 .207 0 .323zm-2.099-2.351c-.034-.019-.05-.034-.065-.034-.553-.01-1.107-.043-1.654.052-.227.04-.455.099-.639.252-.397.327-.317.862.163 1.047.058.021.12.037.178.052.264.068.532.037.796-.003.738-.105 1.187-.603 1.221-1.366zM145.634 85.96c.089-.542-.166-.945-.643-1.071-.307-.08-.624-.07-.931-.034-.375.046-.655.234-.704.659h-2.112c.031-.345.141-.634.356-.89.286-.341.668-.535 1.079-.664.452-.142.92-.21 1.396-.222.581-.015 1.162-.012 1.734.108.277.058.556.138.815.25.691.298 1.017.867 1.082 1.596.024.259.012.517.012.779.003.501-.003 1 .003 1.501.003.311.022.625.031.936.003.15 0 .301 0 .452-.206.046-1.405.061-1.94.022-.135-.259-.015-.557-.098-.844-.034.019-.068.031-.083.053-.394.581-.975.852-1.639.957a4.307 4.307 0 01-1.804-.093 2.563 2.563 0 01-.375-.138c-.892-.403-1.098-1.255-.864-2.034.086-.29.273-.517.516-.698.351-.262.756-.394 1.178-.487.455-.101.919-.12 1.383-.12h1.368l.24-.018zm.018 1.068c-.04-.016-.064-.034-.089-.034-.535-.003-1.073-.037-1.602.052-.264.046-.525.108-.725.308-.326.329-.234.806.194.981a.898.898 0 00.178.056c.393.083.781.043 1.156-.09.575-.197.885-.643.888-1.273zM101.102 87.154h-4.977c-.043.267.043.483.141.686.117.24.308.412.557.517a1.962 1.962 0 001.33.055.785.785 0 00.536-.486c.018-.05.043-.098.067-.157h2.152c-.006.059-.003.11-.018.157-.262.837-.846 1.323-1.682 1.517-.292.068-.596.092-.897.12-.48.043-.963.05-1.442 0-.501-.05-.987-.148-1.442-.36-.815-.382-1.285-1.015-1.414-1.908-.083-.566-.055-1.123.138-1.661.292-.813.886-1.32 1.673-1.622.47-.178.959-.261 1.463-.277a5.964 5.964 0 011.617.157c1.134.286 1.817 1.012 2.053 2.15.074.349.096.709.145 1.112zm-2.25-1.123c.012-.037.018-.047.018-.056l-.018-.157c-.056-.452-.299-.75-.729-.898a1.953 1.953 0 00-.978-.056c-.445.08-.753.348-.906.779-.043.12-.114.24-.071.388h2.684zM109.599 89.385h-2.057c-.003-.099-.009-.191-.009-.287 0-.84-.003-1.68 0-2.517 0-.234-.031-.461-.108-.683-.169-.48-.556-.75-1.066-.794-1.162-.101-1.777.825-1.793 1.656-.015.766-.006 1.535-.009 2.305v.289c-.197.058-1.62.074-2.056.025-.003-.099-.01-.204-.01-.308 0-1.367.003-2.733-.003-4.099 0-.268-.024-.535-.037-.8-.003-.061 0-.123 0-.215.664-.016 1.319-.01 1.996-.003.012.326.021.624.033.987.093-.092.148-.141.197-.197.403-.452.882-.775 1.479-.913a3.37 3.37 0 012.17.193c.732.323 1.107.93 1.221 1.702.04.28.049.57.052.852.006.831.003 1.662.003 2.493-.003.089-.003.188-.003.314zM139.913 85.849h-2.103c-.031-.083-.058-.166-.089-.246-.126-.357-.375-.572-.744-.662a1.639 1.639 0 00-.845.013c-.511.147-.809.507-.96.997a2.443 2.443 0 00.04 1.55c.326.942 1.347 1.124 2.051.77a.936.936 0 00.492-.637l.058-.243h2.164a2.103 2.103 0 01-.559 1.243c-.372.397-.846.618-1.359.763-.406.114-.821.154-1.239.184a5.379 5.379 0 01-1.617-.129 3.496 3.496 0 01-1.15-.489 2.481 2.481 0 01-1.097-1.588 3.206 3.206 0 01.055-1.615c.246-.831.815-1.363 1.599-1.686.526-.216 1.079-.308 1.641-.333.655-.028 1.304.016 1.931.213.203.064.406.141.593.24.652.347 1.049.886 1.138 1.655zM115.861 88.108v1.267c-.258.093-.526.108-.787.124-.348.021-.695.012-1.042.006a2.737 2.737 0 01-.886-.182c-.679-.255-1.079-.76-1.103-1.578-.022-.733-.006-1.465-.006-2.198 0-.095-.007-.19-.013-.316h-1.288c-.052-.225-.061-.927-.018-1.28.424-.028.857.006 1.315-.022v-1.12c.692-.252 1.359-.495 2.048-.748.043.219.015.422.021.622.007.197 0 .394 0 .59v.619c.203.086.4.037.591.046.187.01.375.003.562.003h.6V85.2c-.292.046-.584.012-.877.021-.282.01-.565-.012-.854.013-.009.067-.022.107-.022.15 0 .634-.003 1.268.003 1.902 0 .123.028.25.059.37.061.22.203.384.43.436.188.043.388.071.581.071.219.003.44-.034.686-.055zM149.495 83.957h1.949l.077 1.147c.073-.11.12-.172.153-.236.342-.647.895-.945 1.608-.979.221-.012.44-.03.676-.05v1.74c-.135 0-.258.005-.381 0a2.447 2.447 0 00-.87.098c-.682.212-1.119.763-1.14 1.544-.019.616-.003 1.234-.003 1.85v.286c-.212.05-1.725.058-2.066.012-.003-1.794-.003-3.597-.003-5.412zM90.622 83.96c.12.369.019.748.096 1.163.07-.114.12-.185.16-.259.34-.63.882-.932 1.586-.972.22-.012.44-.034.688-.052.025.59.019 1.157.006 1.732-.15 0-.282.003-.415 0-.368-.01-.728.03-1.066.194-.505.243-.797.65-.88 1.197-.03.2-.04.406-.043.612-.006.508-.003 1.019-.003 1.526v.28h-2.026c-.003-.098-.012-.203-.012-.304 0-1.376.003-2.751-.003-4.126 0-.32-.028-.64-.043-.954.197-.068 1.353-.087 1.955-.037z"/>
    </g>
    <defs>
        <clipPath id="prefix__clip0">
            <path fill="#fff" d="M37.2 30H162.4V89.6H37.2z"/>
        </clipPath>
    </defs>
</svg>
